<mxfile host="app.diagrams.net" agent="Mozilla/5.0 (Macintosh; Intel Mac OS X 10_15_7) AppleWebKit/537.36 (KHTML, like Gecko) Chrome/136.0.0.0 Safari/537.36" version="27.1.4" pages="5">
  <diagram name="Информационная модель" id="_fIPr1OI5G1c7fJESj3I">
    <mxGraphModel grid="1" page="1" gridSize="10" guides="1" tooltips="1" connect="1" arrows="1" fold="1" pageScale="1" pageWidth="827" pageHeight="1169" math="0" shadow="0">
      <root>
        <mxCell id="0" />
        <mxCell id="1" parent="0" />
        <mxCell id="vmvah3B52CUSsklPLNtf-10" style="edgeStyle=orthogonalEdgeStyle;rounded=0;orthogonalLoop=1;jettySize=auto;html=1;entryX=0.296;entryY=0.009;entryDx=0;entryDy=0;entryPerimeter=0;" edge="1" parent="1" source="bkvfVt8OuZXxmEuU6Miq-1" target="vmvah3B52CUSsklPLNtf-4">
          <mxGeometry relative="1" as="geometry">
            <Array as="points">
              <mxPoint x="1340" y="555" />
              <mxPoint x="1418" y="555" />
            </Array>
          </mxGeometry>
        </mxCell>
        <mxCell id="vmvah3B52CUSsklPLNtf-11" value="&lt;font style=&quot;font-size: 16px;&quot;&gt;R5&lt;/font&gt;" style="edgeLabel;html=1;align=center;verticalAlign=middle;resizable=0;points=[];" vertex="1" connectable="0" parent="vmvah3B52CUSsklPLNtf-10">
          <mxGeometry x="-0.1063" y="-1" relative="1" as="geometry">
            <mxPoint as="offset" />
          </mxGeometry>
        </mxCell>
        <mxCell id="bkvfVt8OuZXxmEuU6Miq-1" value="&lt;font style=&quot;font-size: 14px;&quot; face=&quot;Times New Roman&quot;&gt;1. Вафельница (В)&lt;/font&gt;" style="swimlane;fontStyle=0;childLayout=stackLayout;horizontal=1;startSize=30;horizontalStack=0;resizeParent=1;resizeParentMax=0;resizeLast=0;collapsible=1;marginBottom=0;whiteSpace=wrap;html=1;labelBackgroundColor=none;" vertex="1" parent="1">
          <mxGeometry x="1180" y="210" width="240" height="240" as="geometry">
            <mxRectangle x="440" y="170" width="160" height="30" as="alternateBounds" />
          </mxGeometry>
        </mxCell>
        <mxCell id="bkvfVt8OuZXxmEuU6Miq-2" value="&lt;font style=&quot;font-size: 16px;&quot; face=&quot;Times New Roman&quot;&gt;* ID Вафельницы&lt;/font&gt;" style="text;strokeColor=none;fillColor=none;align=left;verticalAlign=middle;spacingLeft=4;spacingRight=4;overflow=hidden;points=[[0,0.5],[1,0.5]];portConstraint=eastwest;rotatable=0;whiteSpace=wrap;html=1;labelBackgroundColor=none;" vertex="1" parent="bkvfVt8OuZXxmEuU6Miq-1">
          <mxGeometry y="30" width="240" height="30" as="geometry" />
        </mxCell>
        <mxCell id="bkvfVt8OuZXxmEuU6Miq-3" value="&lt;font style=&quot;font-size: 16px;&quot; face=&quot;Times New Roman&quot;&gt;- ID Вилки (R1)&lt;/font&gt;" style="text;strokeColor=none;fillColor=none;align=left;verticalAlign=middle;spacingLeft=4;spacingRight=4;overflow=hidden;points=[[0,0.5],[1,0.5]];portConstraint=eastwest;rotatable=0;whiteSpace=wrap;html=1;labelBackgroundColor=none;" vertex="1" parent="bkvfVt8OuZXxmEuU6Miq-1">
          <mxGeometry y="60" width="240" height="30" as="geometry" />
        </mxCell>
        <mxCell id="bkvfVt8OuZXxmEuU6Miq-4" value="&lt;font style=&quot;font-size: 16px;&quot;&gt;&lt;span style=&quot;font-family: &amp;quot;Times New Roman&amp;quot;;&quot;&gt;- ID&amp;nbsp;&lt;/span&gt;&lt;span style=&quot;font-family: &amp;quot;Times New Roman&amp;quot;; text-align: center;&quot;&gt;Электронагревателя&amp;nbsp;&lt;/span&gt;&lt;span style=&quot;font-family: &amp;quot;Times New Roman&amp;quot;;&quot;&gt;(R2)&lt;/span&gt;&lt;/font&gt;" style="text;strokeColor=none;fillColor=none;align=left;verticalAlign=middle;spacingLeft=4;spacingRight=4;overflow=hidden;points=[[0,0.5],[1,0.5]];portConstraint=eastwest;rotatable=0;whiteSpace=wrap;html=1;labelBackgroundColor=none;" vertex="1" parent="bkvfVt8OuZXxmEuU6Miq-1">
          <mxGeometry y="90" width="240" height="30" as="geometry" />
        </mxCell>
        <mxCell id="bkvfVt8OuZXxmEuU6Miq-5" value="&lt;font style=&quot;font-size: 16px;&quot;&gt;&lt;span style=&quot;font-family: &amp;quot;Times New Roman&amp;quot;;&quot;&gt;- ID Панели управления (R3)&lt;/span&gt;&lt;/font&gt;" style="text;strokeColor=none;fillColor=none;align=left;verticalAlign=middle;spacingLeft=4;spacingRight=4;overflow=hidden;points=[[0,0.5],[1,0.5]];portConstraint=eastwest;rotatable=0;whiteSpace=wrap;html=1;labelBackgroundColor=none;" vertex="1" parent="bkvfVt8OuZXxmEuU6Miq-1">
          <mxGeometry y="120" width="240" height="30" as="geometry" />
        </mxCell>
        <mxCell id="-0e73Oecrw0nrFexp8uu-1" value="&lt;span style=&quot;font-family: &amp;quot;Times New Roman&amp;quot;;&quot;&gt;&lt;font style=&quot;font-size: 16px;&quot;&gt;- ID Таймера (R4)&lt;/font&gt;&lt;/span&gt;" style="text;strokeColor=none;fillColor=none;align=left;verticalAlign=middle;spacingLeft=4;spacingRight=4;overflow=hidden;points=[[0,0.5],[1,0.5]];portConstraint=eastwest;rotatable=0;whiteSpace=wrap;html=1;labelBackgroundColor=none;" vertex="1" parent="bkvfVt8OuZXxmEuU6Miq-1">
          <mxGeometry y="150" width="240" height="30" as="geometry" />
        </mxCell>
        <mxCell id="vmvah3B52CUSsklPLNtf-2" value="&lt;span style=&quot;font-family: &amp;quot;Times New Roman&amp;quot;;&quot;&gt;&lt;font style=&quot;font-size: 16px;&quot;&gt;- ID Индикатора (R5)&lt;/font&gt;&lt;/span&gt;" style="text;strokeColor=none;fillColor=none;align=left;verticalAlign=middle;spacingLeft=4;spacingRight=4;overflow=hidden;points=[[0,0.5],[1,0.5]];portConstraint=eastwest;rotatable=0;whiteSpace=wrap;html=1;labelBackgroundColor=none;" vertex="1" parent="bkvfVt8OuZXxmEuU6Miq-1">
          <mxGeometry y="180" width="240" height="30" as="geometry" />
        </mxCell>
        <mxCell id="bkvfVt8OuZXxmEuU6Miq-10" value="&lt;font style=&quot;font-size: 16px;&quot;&gt;- &lt;font style=&quot;&quot; face=&quot;Times New Roman&quot;&gt;Состояние&lt;/font&gt;&lt;/font&gt;" style="text;strokeColor=none;fillColor=none;align=left;verticalAlign=middle;spacingLeft=4;spacingRight=4;overflow=hidden;points=[[0,0.5],[1,0.5]];portConstraint=eastwest;rotatable=0;whiteSpace=wrap;html=1;labelBackgroundColor=none;" vertex="1" parent="bkvfVt8OuZXxmEuU6Miq-1">
          <mxGeometry y="210" width="240" height="30" as="geometry" />
        </mxCell>
        <mxCell id="bkvfVt8OuZXxmEuU6Miq-45" style="edgeStyle=orthogonalEdgeStyle;rounded=0;orthogonalLoop=1;jettySize=auto;html=1;entryX=0;entryY=0.5;entryDx=0;entryDy=0;startArrow=classic;startFill=1;labelBackgroundColor=none;fontColor=default;" edge="1" parent="1" source="bkvfVt8OuZXxmEuU6Miq-11" target="bkvfVt8OuZXxmEuU6Miq-3">
          <mxGeometry relative="1" as="geometry" />
        </mxCell>
        <mxCell id="bkvfVt8OuZXxmEuU6Miq-46" value="&lt;font style=&quot;font-size: 16px;&quot;&gt;R1&lt;/font&gt;" style="edgeLabel;html=1;align=center;verticalAlign=middle;resizable=0;points=[];labelBackgroundColor=none;" connectable="0" vertex="1" parent="bkvfVt8OuZXxmEuU6Miq-45">
          <mxGeometry x="-0.3458" relative="1" as="geometry">
            <mxPoint x="34" as="offset" />
          </mxGeometry>
        </mxCell>
        <mxCell id="bkvfVt8OuZXxmEuU6Miq-11" value="&lt;font style=&quot;font-size: 14px;&quot; face=&quot;Times New Roman&quot;&gt;2.Вилка (В)&lt;/font&gt;" style="swimlane;fontStyle=0;childLayout=stackLayout;horizontal=1;startSize=30;horizontalStack=0;resizeParent=1;resizeParentMax=0;resizeLast=0;collapsible=1;marginBottom=0;whiteSpace=wrap;html=1;labelBackgroundColor=none;" vertex="1" parent="1">
          <mxGeometry x="920" y="380" width="140" height="90" as="geometry" />
        </mxCell>
        <mxCell id="bkvfVt8OuZXxmEuU6Miq-12" value="&lt;span style=&quot;font-family: &amp;quot;Times New Roman&amp;quot;;&quot;&gt;&lt;font style=&quot;font-size: 16px;&quot;&gt;* ID Вилки (R1)&lt;/font&gt;&lt;/span&gt;" style="text;strokeColor=none;fillColor=none;align=left;verticalAlign=middle;spacingLeft=4;spacingRight=4;overflow=hidden;points=[[0,0.5],[1,0.5]];portConstraint=eastwest;rotatable=0;whiteSpace=wrap;html=1;labelBackgroundColor=none;" vertex="1" parent="bkvfVt8OuZXxmEuU6Miq-11">
          <mxGeometry y="30" width="140" height="30" as="geometry" />
        </mxCell>
        <mxCell id="bkvfVt8OuZXxmEuU6Miq-13" value="&lt;font style=&quot;font-size: 14px;&quot; face=&quot;Times New Roman&quot;&gt;- Состояние&lt;/font&gt;" style="text;strokeColor=none;fillColor=none;align=left;verticalAlign=middle;spacingLeft=4;spacingRight=4;overflow=hidden;points=[[0,0.5],[1,0.5]];portConstraint=eastwest;rotatable=0;whiteSpace=wrap;html=1;labelBackgroundColor=none;" vertex="1" parent="bkvfVt8OuZXxmEuU6Miq-11">
          <mxGeometry y="60" width="140" height="30" as="geometry" />
        </mxCell>
        <mxCell id="bkvfVt8OuZXxmEuU6Miq-14" value="&lt;font style=&quot;font-size: 14px;&quot; face=&quot;Times New Roman&quot;&gt;3.Электронагреватель(Э)&lt;/font&gt;" style="swimlane;fontStyle=0;childLayout=stackLayout;horizontal=1;startSize=30;horizontalStack=0;resizeParent=1;resizeParentMax=0;resizeLast=0;collapsible=1;marginBottom=0;whiteSpace=wrap;html=1;labelBackgroundColor=none;" vertex="1" parent="1">
          <mxGeometry x="860" y="500" width="215" height="90" as="geometry" />
        </mxCell>
        <mxCell id="bkvfVt8OuZXxmEuU6Miq-15" value="&lt;font style=&quot;font-size: 16px;&quot;&gt;&lt;font style=&quot;&quot; face=&quot;Times New Roman&quot;&gt;* ID&amp;nbsp;&lt;/font&gt;&lt;span style=&quot;font-family: &amp;quot;Times New Roman&amp;quot;; text-align: center;&quot;&gt;Электронагревателя&amp;nbsp;&lt;/span&gt;&lt;font style=&quot;&quot; face=&quot;Times New Roman&quot;&gt;(R2)&lt;/font&gt;&lt;/font&gt;" style="text;strokeColor=none;fillColor=none;align=left;verticalAlign=middle;spacingLeft=4;spacingRight=4;overflow=hidden;points=[[0,0.5],[1,0.5]];portConstraint=eastwest;rotatable=0;whiteSpace=wrap;html=1;labelBackgroundColor=none;" vertex="1" parent="bkvfVt8OuZXxmEuU6Miq-14">
          <mxGeometry y="30" width="215" height="30" as="geometry" />
        </mxCell>
        <mxCell id="bkvfVt8OuZXxmEuU6Miq-16" value="&lt;font style=&quot;font-size: 16px;&quot; face=&quot;Times New Roman&quot;&gt;- Состояние&lt;/font&gt;" style="text;strokeColor=none;fillColor=none;align=left;verticalAlign=middle;spacingLeft=4;spacingRight=4;overflow=hidden;points=[[0,0.5],[1,0.5]];portConstraint=eastwest;rotatable=0;whiteSpace=wrap;html=1;labelBackgroundColor=none;" vertex="1" parent="bkvfVt8OuZXxmEuU6Miq-14">
          <mxGeometry y="60" width="215" height="30" as="geometry" />
        </mxCell>
        <mxCell id="bkvfVt8OuZXxmEuU6Miq-17" value="&lt;font style=&quot;font-size: 14px;&quot; face=&quot;Times New Roman&quot;&gt;4. Панель управления (П)&lt;/font&gt;" style="swimlane;fontStyle=0;childLayout=stackLayout;horizontal=1;startSize=30;horizontalStack=0;resizeParent=1;resizeParentMax=0;resizeLast=0;collapsible=1;marginBottom=0;whiteSpace=wrap;html=1;labelBackgroundColor=none;" vertex="1" parent="1">
          <mxGeometry x="1040" y="630" width="240" height="90" as="geometry">
            <mxRectangle x="600" y="520" width="220" height="30" as="alternateBounds" />
          </mxGeometry>
        </mxCell>
        <mxCell id="bkvfVt8OuZXxmEuU6Miq-18" value="&lt;div style=&quot;text-align: center;&quot;&gt;&lt;font style=&quot;background-color: transparent; color: light-dark(rgb(0, 0, 0), rgb(255, 255, 255)); font-size: 14px;&quot; face=&quot;Times New Roman&quot;&gt;* ID Панели управления&amp;nbsp;&lt;/font&gt;&lt;font style=&quot;background-color: transparent; color: light-dark(rgb(0, 0, 0), rgb(255, 255, 255)); font-size: 14px;&quot; face=&quot;Times New Roman&quot;&gt;(R3)&lt;/font&gt;&lt;/div&gt;" style="text;strokeColor=none;fillColor=none;align=left;verticalAlign=middle;spacingLeft=4;spacingRight=4;overflow=hidden;points=[[0,0.5],[1,0.5]];portConstraint=eastwest;rotatable=0;whiteSpace=wrap;html=1;labelBackgroundColor=none;" vertex="1" parent="bkvfVt8OuZXxmEuU6Miq-17">
          <mxGeometry y="30" width="240" height="30" as="geometry" />
        </mxCell>
        <mxCell id="bkvfVt8OuZXxmEuU6Miq-19" value="&lt;font style=&quot;font-size: 14px;&quot; face=&quot;Times New Roman&quot;&gt;- Состояние&lt;/font&gt;" style="text;strokeColor=none;fillColor=none;align=left;verticalAlign=middle;spacingLeft=4;spacingRight=4;overflow=hidden;points=[[0,0.5],[1,0.5]];portConstraint=eastwest;rotatable=0;whiteSpace=wrap;html=1;labelBackgroundColor=none;" vertex="1" parent="bkvfVt8OuZXxmEuU6Miq-17">
          <mxGeometry y="60" width="240" height="30" as="geometry" />
        </mxCell>
        <mxCell id="bkvfVt8OuZXxmEuU6Miq-47" style="edgeStyle=orthogonalEdgeStyle;rounded=0;orthogonalLoop=1;jettySize=auto;html=1;entryX=0;entryY=0.5;entryDx=0;entryDy=0;labelBackgroundColor=none;fontColor=default;" edge="1" parent="1" source="bkvfVt8OuZXxmEuU6Miq-15" target="bkvfVt8OuZXxmEuU6Miq-4">
          <mxGeometry relative="1" as="geometry" />
        </mxCell>
        <mxCell id="bkvfVt8OuZXxmEuU6Miq-48" value="&lt;font style=&quot;font-size: 16px;&quot;&gt;R2&lt;/font&gt;" style="edgeLabel;html=1;align=center;verticalAlign=middle;resizable=0;points=[];labelBackgroundColor=none;" connectable="0" vertex="1" parent="bkvfVt8OuZXxmEuU6Miq-47">
          <mxGeometry x="-0.0309" y="2" relative="1" as="geometry">
            <mxPoint as="offset" />
          </mxGeometry>
        </mxCell>
        <mxCell id="bkvfVt8OuZXxmEuU6Miq-49" style="edgeStyle=orthogonalEdgeStyle;rounded=0;orthogonalLoop=1;jettySize=auto;html=1;entryX=0.5;entryY=0;entryDx=0;entryDy=0;exitX=0.43;exitY=1.034;exitDx=0;exitDy=0;exitPerimeter=0;labelBackgroundColor=none;fontColor=default;" edge="1" parent="1" source="bkvfVt8OuZXxmEuU6Miq-10" target="bkvfVt8OuZXxmEuU6Miq-17">
          <mxGeometry relative="1" as="geometry">
            <Array as="points">
              <mxPoint x="1283" y="495" />
              <mxPoint x="1160" y="495" />
            </Array>
          </mxGeometry>
        </mxCell>
        <mxCell id="bkvfVt8OuZXxmEuU6Miq-50" value="&lt;font style=&quot;font-size: 16px;&quot;&gt;R3&lt;/font&gt;" style="edgeLabel;html=1;align=center;verticalAlign=middle;resizable=0;points=[];labelBackgroundColor=none;" connectable="0" vertex="1" parent="bkvfVt8OuZXxmEuU6Miq-49">
          <mxGeometry x="-0.0956" y="1" relative="1" as="geometry">
            <mxPoint x="-47" y="49" as="offset" />
          </mxGeometry>
        </mxCell>
        <mxCell id="-0e73Oecrw0nrFexp8uu-4" value="&lt;font style=&quot;font-size: 14px;&quot; face=&quot;Times New Roman&quot;&gt;5. Таймер (Т)&lt;/font&gt;" style="swimlane;fontStyle=0;childLayout=stackLayout;horizontal=1;startSize=30;horizontalStack=0;resizeParent=1;resizeParentMax=0;resizeLast=0;collapsible=1;marginBottom=0;whiteSpace=wrap;html=1;labelBackgroundColor=none;" vertex="1" parent="1">
          <mxGeometry x="1490" y="465" width="230" height="120" as="geometry">
            <mxRectangle x="50" y="245" width="170" height="30" as="alternateBounds" />
          </mxGeometry>
        </mxCell>
        <mxCell id="-0e73Oecrw0nrFexp8uu-5" value="&lt;font style=&quot;font-size: 14px;&quot; face=&quot;Times New Roman&quot;&gt;* ID Таймера (R4)&lt;/font&gt;" style="text;strokeColor=none;fillColor=none;align=left;verticalAlign=middle;spacingLeft=4;spacingRight=4;overflow=hidden;points=[[0,0.5],[1,0.5]];portConstraint=eastwest;rotatable=0;whiteSpace=wrap;html=1;labelBackgroundColor=none;" vertex="1" parent="-0e73Oecrw0nrFexp8uu-4">
          <mxGeometry y="30" width="230" height="30" as="geometry" />
        </mxCell>
        <mxCell id="-0e73Oecrw0nrFexp8uu-6" value="&lt;font style=&quot;font-size: 14px;&quot; face=&quot;Times New Roman&quot;&gt;- Время приготовления&lt;/font&gt;" style="text;strokeColor=none;fillColor=none;align=left;verticalAlign=middle;spacingLeft=4;spacingRight=4;overflow=hidden;points=[[0,0.5],[1,0.5]];portConstraint=eastwest;rotatable=0;whiteSpace=wrap;html=1;labelBackgroundColor=none;" vertex="1" parent="-0e73Oecrw0nrFexp8uu-4">
          <mxGeometry y="60" width="230" height="30" as="geometry" />
        </mxCell>
        <mxCell id="-0e73Oecrw0nrFexp8uu-7" value="&lt;span style=&quot;font-family: &amp;quot;Times New Roman&amp;quot;; font-size: 14px;&quot;&gt;- Состояние&lt;/span&gt;" style="text;strokeColor=none;fillColor=none;align=left;verticalAlign=middle;spacingLeft=4;spacingRight=4;overflow=hidden;points=[[0,0.5],[1,0.5]];portConstraint=eastwest;rotatable=0;whiteSpace=wrap;html=1;labelBackgroundColor=none;" vertex="1" parent="-0e73Oecrw0nrFexp8uu-4">
          <mxGeometry y="90" width="230" height="30" as="geometry" />
        </mxCell>
        <mxCell id="vmvah3B52CUSsklPLNtf-4" value="&lt;font style=&quot;font-size: 14px;&quot; face=&quot;Times New Roman&quot;&gt;6. Индикатор работы (И)&lt;/font&gt;" style="swimlane;fontStyle=0;childLayout=stackLayout;horizontal=1;startSize=30;horizontalStack=0;resizeParent=1;resizeParentMax=0;resizeLast=0;collapsible=1;marginBottom=0;whiteSpace=wrap;html=1;labelBackgroundColor=none;" vertex="1" parent="1">
          <mxGeometry x="1350" y="640" width="230" height="90" as="geometry">
            <mxRectangle x="50" y="245" width="170" height="30" as="alternateBounds" />
          </mxGeometry>
        </mxCell>
        <mxCell id="vmvah3B52CUSsklPLNtf-5" value="&lt;font style=&quot;font-size: 14px;&quot; face=&quot;Times New Roman&quot;&gt;* ID Индикатора работы (R5)&lt;/font&gt;" style="text;strokeColor=none;fillColor=none;align=left;verticalAlign=middle;spacingLeft=4;spacingRight=4;overflow=hidden;points=[[0,0.5],[1,0.5]];portConstraint=eastwest;rotatable=0;whiteSpace=wrap;html=1;labelBackgroundColor=none;" vertex="1" parent="vmvah3B52CUSsklPLNtf-4">
          <mxGeometry y="30" width="230" height="30" as="geometry" />
        </mxCell>
        <mxCell id="vmvah3B52CUSsklPLNtf-7" value="&lt;span style=&quot;font-family: &amp;quot;Times New Roman&amp;quot;; font-size: 14px;&quot;&gt;- Состояние&lt;/span&gt;" style="text;strokeColor=none;fillColor=none;align=left;verticalAlign=middle;spacingLeft=4;spacingRight=4;overflow=hidden;points=[[0,0.5],[1,0.5]];portConstraint=eastwest;rotatable=0;whiteSpace=wrap;html=1;labelBackgroundColor=none;" vertex="1" parent="vmvah3B52CUSsklPLNtf-4">
          <mxGeometry y="60" width="230" height="30" as="geometry" />
        </mxCell>
        <mxCell id="vmvah3B52CUSsklPLNtf-8" style="edgeStyle=orthogonalEdgeStyle;rounded=0;orthogonalLoop=1;jettySize=auto;html=1;entryX=0;entryY=0.5;entryDx=0;entryDy=0;" edge="1" parent="1" source="-0e73Oecrw0nrFexp8uu-1" target="-0e73Oecrw0nrFexp8uu-6">
          <mxGeometry relative="1" as="geometry" />
        </mxCell>
        <mxCell id="vmvah3B52CUSsklPLNtf-9" value="&lt;font style=&quot;font-size: 16px;&quot;&gt;R4&lt;/font&gt;" style="edgeLabel;html=1;align=center;verticalAlign=middle;resizable=0;points=[];" vertex="1" connectable="0" parent="vmvah3B52CUSsklPLNtf-8">
          <mxGeometry x="-0.0775" y="-3" relative="1" as="geometry">
            <mxPoint as="offset" />
          </mxGeometry>
        </mxCell>
      </root>
    </mxGraphModel>
  </diagram>
  <diagram name="ДПС" id="NshQ-tN_Twab3b1fidBj">
    <mxGraphModel grid="1" page="1" gridSize="10" guides="1" tooltips="1" connect="1" arrows="1" fold="1" pageScale="1" pageWidth="827" pageHeight="1169" math="0" shadow="0">
      <root>
        <mxCell id="0" />
        <mxCell id="1" parent="0" />
        <mxCell id="9hR5Twmfe8VWlhZQ7I1L-1" value="&lt;font style=&quot;font-size: 20px;&quot;&gt;&lt;b&gt;Вафельница&lt;/b&gt;&lt;/font&gt;" style="text;html=1;align=center;verticalAlign=middle;whiteSpace=wrap;rounded=0;labelBackgroundColor=none;" vertex="1" parent="1">
          <mxGeometry x="271" y="50" width="206" height="30" as="geometry" />
        </mxCell>
        <mxCell id="9hR5Twmfe8VWlhZQ7I1L-5" style="edgeStyle=orthogonalEdgeStyle;rounded=0;orthogonalLoop=1;jettySize=auto;html=1;entryX=0.418;entryY=-0.006;entryDx=0;entryDy=0;entryPerimeter=0;endArrow=classic;endFill=1;labelBackgroundColor=none;fontColor=default;" edge="1" parent="1">
          <mxGeometry relative="1" as="geometry">
            <mxPoint x="210" y="130.18268096514748" as="sourcePoint" />
            <mxPoint x="80.16000000000003" y="199.82" as="targetPoint" />
            <Array as="points">
              <mxPoint x="80" y="130" />
              <mxPoint x="80" y="190" />
              <mxPoint x="80" y="190" />
            </Array>
          </mxGeometry>
        </mxCell>
        <mxCell id="TJ0tVEPkmKTqhxerXWwx-3" value="С1" style="edgeLabel;html=1;align=center;verticalAlign=middle;resizable=0;points=[];fontSize=14;" vertex="1" connectable="0" parent="9hR5Twmfe8VWlhZQ7I1L-5">
          <mxGeometry x="-0.1646" y="2" relative="1" as="geometry">
            <mxPoint x="-2" y="-2" as="offset" />
          </mxGeometry>
        </mxCell>
        <mxCell id="9hR5Twmfe8VWlhZQ7I1L-2" value="&lt;font style=&quot;font-size: 14px;&quot;&gt;1. Выключена&lt;/font&gt;" style="rounded=0;whiteSpace=wrap;html=1;labelBackgroundColor=none;" vertex="1" parent="1">
          <mxGeometry x="210" y="110" width="130" height="60" as="geometry" />
        </mxCell>
        <mxCell id="9hR5Twmfe8VWlhZQ7I1L-7" style="edgeStyle=orthogonalEdgeStyle;rounded=0;orthogonalLoop=1;jettySize=auto;html=1;entryX=0;entryY=0.5;entryDx=0;entryDy=0;labelBackgroundColor=none;fontColor=default;" edge="1" parent="1" source="9hR5Twmfe8VWlhZQ7I1L-3" target="9hR5Twmfe8VWlhZQ7I1L-2">
          <mxGeometry relative="1" as="geometry">
            <Array as="points">
              <mxPoint x="100" y="140" />
            </Array>
          </mxGeometry>
        </mxCell>
        <mxCell id="TJ0tVEPkmKTqhxerXWwx-4" value="&lt;font style=&quot;font-size: 14px;&quot;&gt;С2&lt;/font&gt;" style="edgeLabel;html=1;align=center;verticalAlign=middle;resizable=0;points=[];" vertex="1" connectable="0" parent="9hR5Twmfe8VWlhZQ7I1L-7">
          <mxGeometry x="-0.5141" y="1" relative="1" as="geometry">
            <mxPoint as="offset" />
          </mxGeometry>
        </mxCell>
        <mxCell id="9hR5Twmfe8VWlhZQ7I1L-9" style="edgeStyle=orthogonalEdgeStyle;rounded=0;orthogonalLoop=1;jettySize=auto;html=1;entryX=0;entryY=0.5;entryDx=0;entryDy=0;labelBackgroundColor=none;fontColor=default;" edge="1" parent="1" source="9hR5Twmfe8VWlhZQ7I1L-3" target="9hR5Twmfe8VWlhZQ7I1L-4">
          <mxGeometry relative="1" as="geometry" />
        </mxCell>
        <mxCell id="TJ0tVEPkmKTqhxerXWwx-5" value="&lt;font style=&quot;font-size: 14px;&quot;&gt;С3&lt;/font&gt;" style="edgeLabel;html=1;align=center;verticalAlign=middle;resizable=0;points=[];" vertex="1" connectable="0" parent="9hR5Twmfe8VWlhZQ7I1L-9">
          <mxGeometry x="-0.0948" relative="1" as="geometry">
            <mxPoint as="offset" />
          </mxGeometry>
        </mxCell>
        <mxCell id="9hR5Twmfe8VWlhZQ7I1L-3" value="&lt;font style=&quot;font-size: 14px;&quot;&gt;2. Ожидает запуска&lt;/font&gt;" style="rounded=0;whiteSpace=wrap;html=1;fontStyle=0;labelBackgroundColor=none;" vertex="1" parent="1">
          <mxGeometry x="30" y="200" width="120" height="60" as="geometry" />
        </mxCell>
        <mxCell id="9hR5Twmfe8VWlhZQ7I1L-11" style="edgeStyle=orthogonalEdgeStyle;rounded=0;orthogonalLoop=1;jettySize=auto;html=1;entryX=1;entryY=0.5;entryDx=0;entryDy=0;labelBackgroundColor=none;fontColor=default;" edge="1" parent="1" source="9hR5Twmfe8VWlhZQ7I1L-4" target="9hR5Twmfe8VWlhZQ7I1L-2">
          <mxGeometry relative="1" as="geometry">
            <Array as="points">
              <mxPoint x="420" y="330" />
              <mxPoint x="420" y="140" />
            </Array>
          </mxGeometry>
        </mxCell>
        <mxCell id="gbKqkkttoXDkYdt1FxoY-5" value="&lt;font style=&quot;font-size: 15px;&quot;&gt;C2&lt;/font&gt;" style="edgeLabel;html=1;align=center;verticalAlign=middle;resizable=0;points=[];labelBackgroundColor=none;" connectable="0" vertex="1" parent="9hR5Twmfe8VWlhZQ7I1L-11">
          <mxGeometry x="-0.0779" y="1" relative="1" as="geometry">
            <mxPoint as="offset" />
          </mxGeometry>
        </mxCell>
        <mxCell id="gbKqkkttoXDkYdt1FxoY-1" style="edgeStyle=orthogonalEdgeStyle;rounded=0;orthogonalLoop=1;jettySize=auto;html=1;entryX=1;entryY=0.25;entryDx=0;entryDy=0;labelBackgroundColor=none;fontColor=default;" edge="1" parent="1" source="9hR5Twmfe8VWlhZQ7I1L-4" target="9hR5Twmfe8VWlhZQ7I1L-3">
          <mxGeometry relative="1" as="geometry">
            <Array as="points">
              <mxPoint x="220" y="320" />
              <mxPoint x="220" y="215" />
            </Array>
          </mxGeometry>
        </mxCell>
        <mxCell id="TJ0tVEPkmKTqhxerXWwx-6" value="&lt;font style=&quot;font-size: 14px;&quot;&gt;С4&lt;/font&gt;" style="edgeLabel;html=1;align=center;verticalAlign=middle;resizable=0;points=[];" vertex="1" connectable="0" parent="gbKqkkttoXDkYdt1FxoY-1">
          <mxGeometry x="-0.0551" relative="1" as="geometry">
            <mxPoint as="offset" />
          </mxGeometry>
        </mxCell>
        <mxCell id="9hR5Twmfe8VWlhZQ7I1L-4" value="&lt;font style=&quot;font-size: 14px;&quot;&gt;3. Приготовление&lt;/font&gt;" style="rounded=0;whiteSpace=wrap;html=1;labelBackgroundColor=none;" vertex="1" parent="1">
          <mxGeometry x="250" y="300" width="150" height="60" as="geometry" />
        </mxCell>
        <mxCell id="gbKqkkttoXDkYdt1FxoY-8" value="C1 - Подключить электропитание" style="text;html=1;align=left;verticalAlign=middle;whiteSpace=wrap;rounded=0;labelBackgroundColor=none;" vertex="1" parent="1">
          <mxGeometry x="470" y="120" width="220" height="30" as="geometry" />
        </mxCell>
        <mxCell id="gbKqkkttoXDkYdt1FxoY-9" value="C2 - Выключить электропитание" style="text;html=1;align=left;verticalAlign=middle;whiteSpace=wrap;rounded=0;labelBackgroundColor=none;" vertex="1" parent="1">
          <mxGeometry x="470" y="150" width="220" height="30" as="geometry" />
        </mxCell>
        <mxCell id="gbKqkkttoXDkYdt1FxoY-10" value="C3 - Начать готовку" style="text;html=1;align=left;verticalAlign=middle;whiteSpace=wrap;rounded=0;labelBackgroundColor=none;" vertex="1" parent="1">
          <mxGeometry x="470" y="180" width="223" height="30" as="geometry" />
        </mxCell>
        <mxCell id="gbKqkkttoXDkYdt1FxoY-11" value="C4 - Прекратить готовку" style="text;html=1;align=left;verticalAlign=middle;whiteSpace=wrap;rounded=0;labelBackgroundColor=none;" vertex="1" parent="1">
          <mxGeometry x="470" y="210" width="223" height="30" as="geometry" />
        </mxCell>
        <mxCell id="gbKqkkttoXDkYdt1FxoY-50" value="" style="shape=table;startSize=0;container=1;collapsible=0;childLayout=tableLayout;labelBackgroundColor=none;" vertex="1" parent="1">
          <mxGeometry x="740" y="120" width="300" height="160" as="geometry" />
        </mxCell>
        <mxCell id="gbKqkkttoXDkYdt1FxoY-51" value="" style="shape=tableRow;horizontal=0;startSize=0;swimlaneHead=0;swimlaneBody=0;top=0;left=0;bottom=0;right=0;collapsible=0;dropTarget=0;fillColor=none;points=[[0,0.5],[1,0.5]];portConstraint=eastwest;labelBackgroundColor=none;" vertex="1" parent="gbKqkkttoXDkYdt1FxoY-50">
          <mxGeometry width="300" height="40" as="geometry" />
        </mxCell>
        <mxCell id="gbKqkkttoXDkYdt1FxoY-52" value="" style="shape=partialRectangle;html=1;whiteSpace=wrap;connectable=0;overflow=hidden;fillColor=none;top=0;left=0;bottom=0;right=0;pointerEvents=1;labelBackgroundColor=none;" vertex="1" parent="gbKqkkttoXDkYdt1FxoY-51">
          <mxGeometry width="60" height="40" as="geometry">
            <mxRectangle width="60" height="40" as="alternateBounds" />
          </mxGeometry>
        </mxCell>
        <mxCell id="gbKqkkttoXDkYdt1FxoY-53" value="C1" style="shape=partialRectangle;html=1;whiteSpace=wrap;connectable=0;overflow=hidden;fillColor=none;top=0;left=0;bottom=0;right=0;pointerEvents=1;labelBackgroundColor=none;" vertex="1" parent="gbKqkkttoXDkYdt1FxoY-51">
          <mxGeometry x="60" width="60" height="40" as="geometry">
            <mxRectangle width="60" height="40" as="alternateBounds" />
          </mxGeometry>
        </mxCell>
        <mxCell id="gbKqkkttoXDkYdt1FxoY-54" value="C2" style="shape=partialRectangle;html=1;whiteSpace=wrap;connectable=0;overflow=hidden;fillColor=none;top=0;left=0;bottom=0;right=0;pointerEvents=1;labelBackgroundColor=none;" vertex="1" parent="gbKqkkttoXDkYdt1FxoY-51">
          <mxGeometry x="120" width="60" height="40" as="geometry">
            <mxRectangle width="60" height="40" as="alternateBounds" />
          </mxGeometry>
        </mxCell>
        <mxCell id="gbKqkkttoXDkYdt1FxoY-55" value="C3" style="shape=partialRectangle;html=1;whiteSpace=wrap;connectable=0;overflow=hidden;fillColor=none;top=0;left=0;bottom=0;right=0;pointerEvents=1;labelBackgroundColor=none;" vertex="1" parent="gbKqkkttoXDkYdt1FxoY-51">
          <mxGeometry x="180" width="60" height="40" as="geometry">
            <mxRectangle width="60" height="40" as="alternateBounds" />
          </mxGeometry>
        </mxCell>
        <mxCell id="gbKqkkttoXDkYdt1FxoY-56" value="C4" style="shape=partialRectangle;html=1;whiteSpace=wrap;connectable=0;overflow=hidden;fillColor=none;top=0;left=0;bottom=0;right=0;pointerEvents=1;labelBackgroundColor=none;" vertex="1" parent="gbKqkkttoXDkYdt1FxoY-51">
          <mxGeometry x="240" width="60" height="40" as="geometry">
            <mxRectangle width="60" height="40" as="alternateBounds" />
          </mxGeometry>
        </mxCell>
        <mxCell id="gbKqkkttoXDkYdt1FxoY-57" value="" style="shape=tableRow;horizontal=0;startSize=0;swimlaneHead=0;swimlaneBody=0;top=0;left=0;bottom=0;right=0;collapsible=0;dropTarget=0;fillColor=none;points=[[0,0.5],[1,0.5]];portConstraint=eastwest;labelBackgroundColor=none;" vertex="1" parent="gbKqkkttoXDkYdt1FxoY-50">
          <mxGeometry y="40" width="300" height="40" as="geometry" />
        </mxCell>
        <mxCell id="gbKqkkttoXDkYdt1FxoY-58" value="1" style="shape=partialRectangle;html=1;whiteSpace=wrap;connectable=0;overflow=hidden;fillColor=none;top=0;left=0;bottom=0;right=0;pointerEvents=1;labelBackgroundColor=none;" vertex="1" parent="gbKqkkttoXDkYdt1FxoY-57">
          <mxGeometry width="60" height="40" as="geometry">
            <mxRectangle width="60" height="40" as="alternateBounds" />
          </mxGeometry>
        </mxCell>
        <mxCell id="gbKqkkttoXDkYdt1FxoY-59" value="2" style="shape=partialRectangle;html=1;whiteSpace=wrap;connectable=0;overflow=hidden;fillColor=none;top=0;left=0;bottom=0;right=0;pointerEvents=1;labelBackgroundColor=none;" vertex="1" parent="gbKqkkttoXDkYdt1FxoY-57">
          <mxGeometry x="60" width="60" height="40" as="geometry">
            <mxRectangle width="60" height="40" as="alternateBounds" />
          </mxGeometry>
        </mxCell>
        <mxCell id="gbKqkkttoXDkYdt1FxoY-60" value="-" style="shape=partialRectangle;html=1;whiteSpace=wrap;connectable=0;overflow=hidden;fillColor=none;top=0;left=0;bottom=0;right=0;pointerEvents=1;labelBackgroundColor=none;" vertex="1" parent="gbKqkkttoXDkYdt1FxoY-57">
          <mxGeometry x="120" width="60" height="40" as="geometry">
            <mxRectangle width="60" height="40" as="alternateBounds" />
          </mxGeometry>
        </mxCell>
        <mxCell id="gbKqkkttoXDkYdt1FxoY-61" value="-" style="shape=partialRectangle;html=1;whiteSpace=wrap;connectable=0;overflow=hidden;fillColor=none;top=0;left=0;bottom=0;right=0;pointerEvents=1;labelBackgroundColor=none;" vertex="1" parent="gbKqkkttoXDkYdt1FxoY-57">
          <mxGeometry x="180" width="60" height="40" as="geometry">
            <mxRectangle width="60" height="40" as="alternateBounds" />
          </mxGeometry>
        </mxCell>
        <mxCell id="gbKqkkttoXDkYdt1FxoY-62" value="-" style="shape=partialRectangle;html=1;whiteSpace=wrap;connectable=0;overflow=hidden;fillColor=none;top=0;left=0;bottom=0;right=0;pointerEvents=1;labelBackgroundColor=none;" vertex="1" parent="gbKqkkttoXDkYdt1FxoY-57">
          <mxGeometry x="240" width="60" height="40" as="geometry">
            <mxRectangle width="60" height="40" as="alternateBounds" />
          </mxGeometry>
        </mxCell>
        <mxCell id="gbKqkkttoXDkYdt1FxoY-63" value="" style="shape=tableRow;horizontal=0;startSize=0;swimlaneHead=0;swimlaneBody=0;top=0;left=0;bottom=0;right=0;collapsible=0;dropTarget=0;fillColor=none;points=[[0,0.5],[1,0.5]];portConstraint=eastwest;labelBackgroundColor=none;" vertex="1" parent="gbKqkkttoXDkYdt1FxoY-50">
          <mxGeometry y="80" width="300" height="40" as="geometry" />
        </mxCell>
        <mxCell id="gbKqkkttoXDkYdt1FxoY-64" value="2" style="shape=partialRectangle;html=1;whiteSpace=wrap;connectable=0;overflow=hidden;fillColor=none;top=0;left=0;bottom=0;right=0;pointerEvents=1;labelBackgroundColor=none;" vertex="1" parent="gbKqkkttoXDkYdt1FxoY-63">
          <mxGeometry width="60" height="40" as="geometry">
            <mxRectangle width="60" height="40" as="alternateBounds" />
          </mxGeometry>
        </mxCell>
        <mxCell id="gbKqkkttoXDkYdt1FxoY-65" value="-" style="shape=partialRectangle;html=1;whiteSpace=wrap;connectable=0;overflow=hidden;fillColor=none;top=0;left=0;bottom=0;right=0;pointerEvents=1;labelBackgroundColor=none;" vertex="1" parent="gbKqkkttoXDkYdt1FxoY-63">
          <mxGeometry x="60" width="60" height="40" as="geometry">
            <mxRectangle width="60" height="40" as="alternateBounds" />
          </mxGeometry>
        </mxCell>
        <mxCell id="gbKqkkttoXDkYdt1FxoY-66" value="1" style="shape=partialRectangle;html=1;whiteSpace=wrap;connectable=0;overflow=hidden;fillColor=none;top=0;left=0;bottom=0;right=0;pointerEvents=1;labelBackgroundColor=none;" vertex="1" parent="gbKqkkttoXDkYdt1FxoY-63">
          <mxGeometry x="120" width="60" height="40" as="geometry">
            <mxRectangle width="60" height="40" as="alternateBounds" />
          </mxGeometry>
        </mxCell>
        <mxCell id="gbKqkkttoXDkYdt1FxoY-67" value="3" style="shape=partialRectangle;html=1;whiteSpace=wrap;connectable=0;overflow=hidden;fillColor=none;top=0;left=0;bottom=0;right=0;pointerEvents=1;labelBackgroundColor=none;" vertex="1" parent="gbKqkkttoXDkYdt1FxoY-63">
          <mxGeometry x="180" width="60" height="40" as="geometry">
            <mxRectangle width="60" height="40" as="alternateBounds" />
          </mxGeometry>
        </mxCell>
        <mxCell id="gbKqkkttoXDkYdt1FxoY-68" value="&amp;nbsp;-" style="shape=partialRectangle;html=1;whiteSpace=wrap;connectable=0;overflow=hidden;fillColor=none;top=0;left=0;bottom=0;right=0;pointerEvents=1;labelBackgroundColor=none;" vertex="1" parent="gbKqkkttoXDkYdt1FxoY-63">
          <mxGeometry x="240" width="60" height="40" as="geometry">
            <mxRectangle width="60" height="40" as="alternateBounds" />
          </mxGeometry>
        </mxCell>
        <mxCell id="gbKqkkttoXDkYdt1FxoY-69" value="" style="shape=tableRow;horizontal=0;startSize=0;swimlaneHead=0;swimlaneBody=0;top=0;left=0;bottom=0;right=0;collapsible=0;dropTarget=0;fillColor=none;points=[[0,0.5],[1,0.5]];portConstraint=eastwest;labelBackgroundColor=none;" vertex="1" parent="gbKqkkttoXDkYdt1FxoY-50">
          <mxGeometry y="120" width="300" height="40" as="geometry" />
        </mxCell>
        <mxCell id="gbKqkkttoXDkYdt1FxoY-70" value="3" style="shape=partialRectangle;html=1;whiteSpace=wrap;connectable=0;overflow=hidden;fillColor=none;top=0;left=0;bottom=0;right=0;pointerEvents=1;labelBackgroundColor=none;" vertex="1" parent="gbKqkkttoXDkYdt1FxoY-69">
          <mxGeometry width="60" height="40" as="geometry">
            <mxRectangle width="60" height="40" as="alternateBounds" />
          </mxGeometry>
        </mxCell>
        <mxCell id="gbKqkkttoXDkYdt1FxoY-71" value="-" style="shape=partialRectangle;html=1;whiteSpace=wrap;connectable=0;overflow=hidden;fillColor=none;top=0;left=0;bottom=0;right=0;pointerEvents=1;labelBackgroundColor=none;" vertex="1" parent="gbKqkkttoXDkYdt1FxoY-69">
          <mxGeometry x="60" width="60" height="40" as="geometry">
            <mxRectangle width="60" height="40" as="alternateBounds" />
          </mxGeometry>
        </mxCell>
        <mxCell id="gbKqkkttoXDkYdt1FxoY-72" value="1" style="shape=partialRectangle;html=1;whiteSpace=wrap;connectable=0;overflow=hidden;fillColor=none;top=0;left=0;bottom=0;right=0;pointerEvents=1;labelBackgroundColor=none;" vertex="1" parent="gbKqkkttoXDkYdt1FxoY-69">
          <mxGeometry x="120" width="60" height="40" as="geometry">
            <mxRectangle width="60" height="40" as="alternateBounds" />
          </mxGeometry>
        </mxCell>
        <mxCell id="gbKqkkttoXDkYdt1FxoY-73" value="-" style="shape=partialRectangle;html=1;whiteSpace=wrap;connectable=0;overflow=hidden;fillColor=none;top=0;left=0;bottom=0;right=0;pointerEvents=1;labelBackgroundColor=none;" vertex="1" parent="gbKqkkttoXDkYdt1FxoY-69">
          <mxGeometry x="180" width="60" height="40" as="geometry">
            <mxRectangle width="60" height="40" as="alternateBounds" />
          </mxGeometry>
        </mxCell>
        <mxCell id="gbKqkkttoXDkYdt1FxoY-74" value="2" style="shape=partialRectangle;html=1;whiteSpace=wrap;connectable=0;overflow=hidden;fillColor=none;top=0;left=0;bottom=0;right=0;pointerEvents=1;labelBackgroundColor=none;" vertex="1" parent="gbKqkkttoXDkYdt1FxoY-69">
          <mxGeometry x="240" width="60" height="40" as="geometry">
            <mxRectangle width="60" height="40" as="alternateBounds" />
          </mxGeometry>
        </mxCell>
        <mxCell id="WHsfBUfXLclG-ORaUZF6-1" style="edgeStyle=orthogonalEdgeStyle;rounded=0;orthogonalLoop=1;jettySize=auto;html=1;entryX=0.406;entryY=0;entryDx=0;entryDy=0;entryPerimeter=0;exitX=0.405;exitY=1.007;exitDx=0;exitDy=0;exitPerimeter=0;labelBackgroundColor=none;fontColor=default;" edge="1" parent="1" source="gbKqkkttoXDkYdt1FxoY-79" target="gbKqkkttoXDkYdt1FxoY-89">
          <mxGeometry relative="1" as="geometry" />
        </mxCell>
        <mxCell id="WHsfBUfXLclG-ORaUZF6-4" value="&lt;font style=&quot;font-size: 14px;&quot;&gt;В1&lt;/font&gt;" style="edgeLabel;html=1;align=center;verticalAlign=middle;resizable=0;points=[];labelBackgroundColor=none;" connectable="0" vertex="1" parent="WHsfBUfXLclG-ORaUZF6-1">
          <mxGeometry x="0.0045" relative="1" as="geometry">
            <mxPoint as="offset" />
          </mxGeometry>
        </mxCell>
        <mxCell id="gbKqkkttoXDkYdt1FxoY-79" value="&lt;font style=&quot;font-size: 14px;&quot;&gt;1. Отключена от сети&lt;/font&gt;" style="rounded=0;whiteSpace=wrap;html=1;labelBackgroundColor=none;" vertex="1" parent="1">
          <mxGeometry x="60" y="470" width="130" height="60" as="geometry" />
        </mxCell>
        <mxCell id="WHsfBUfXLclG-ORaUZF6-3" style="edgeStyle=orthogonalEdgeStyle;rounded=0;orthogonalLoop=1;jettySize=auto;html=1;entryX=0.597;entryY=1.005;entryDx=0;entryDy=0;exitX=0.587;exitY=0.004;exitDx=0;exitDy=0;exitPerimeter=0;entryPerimeter=0;labelBackgroundColor=none;fontColor=default;" edge="1" parent="1" source="gbKqkkttoXDkYdt1FxoY-89" target="gbKqkkttoXDkYdt1FxoY-79">
          <mxGeometry relative="1" as="geometry" />
        </mxCell>
        <mxCell id="WHsfBUfXLclG-ORaUZF6-6" value="&lt;font style=&quot;font-size: 14px;&quot;&gt;В2&lt;/font&gt;" style="edgeLabel;html=1;align=center;verticalAlign=middle;resizable=0;points=[];labelBackgroundColor=none;" connectable="0" vertex="1" parent="WHsfBUfXLclG-ORaUZF6-3">
          <mxGeometry x="-0.0433" y="-1" relative="1" as="geometry">
            <mxPoint as="offset" />
          </mxGeometry>
        </mxCell>
        <mxCell id="gbKqkkttoXDkYdt1FxoY-89" value="&lt;font style=&quot;font-size: 14px;&quot;&gt;2. Включена в сеть&lt;/font&gt;" style="rounded=0;whiteSpace=wrap;html=1;labelBackgroundColor=none;" vertex="1" parent="1">
          <mxGeometry x="50" y="600" width="150" height="60" as="geometry" />
        </mxCell>
        <mxCell id="gbKqkkttoXDkYdt1FxoY-90" value="B1 - Подключить к сети электропитания" style="text;html=1;align=left;verticalAlign=middle;whiteSpace=wrap;rounded=0;labelBackgroundColor=none;" vertex="1" parent="1">
          <mxGeometry x="280" y="512" width="220" height="30" as="geometry" />
        </mxCell>
        <mxCell id="gbKqkkttoXDkYdt1FxoY-91" value="B2 - Выключить из сети" style="text;html=1;align=left;verticalAlign=middle;whiteSpace=wrap;rounded=0;labelBackgroundColor=none;" vertex="1" parent="1">
          <mxGeometry x="281.5" y="547" width="220" height="30" as="geometry" />
        </mxCell>
        <mxCell id="WHsfBUfXLclG-ORaUZF6-7" value="" style="shape=table;startSize=0;container=1;collapsible=0;childLayout=tableLayout;labelBackgroundColor=none;" vertex="1" parent="1">
          <mxGeometry x="550" y="485" width="180" height="120" as="geometry" />
        </mxCell>
        <mxCell id="WHsfBUfXLclG-ORaUZF6-8" value="" style="shape=tableRow;horizontal=0;startSize=0;swimlaneHead=0;swimlaneBody=0;top=0;left=0;bottom=0;right=0;collapsible=0;dropTarget=0;fillColor=none;points=[[0,0.5],[1,0.5]];portConstraint=eastwest;labelBackgroundColor=none;" vertex="1" parent="WHsfBUfXLclG-ORaUZF6-7">
          <mxGeometry width="180" height="40" as="geometry" />
        </mxCell>
        <mxCell id="WHsfBUfXLclG-ORaUZF6-9" value="" style="shape=partialRectangle;html=1;whiteSpace=wrap;connectable=0;overflow=hidden;fillColor=none;top=0;left=0;bottom=0;right=0;pointerEvents=1;labelBackgroundColor=none;" vertex="1" parent="WHsfBUfXLclG-ORaUZF6-8">
          <mxGeometry width="60" height="40" as="geometry">
            <mxRectangle width="60" height="40" as="alternateBounds" />
          </mxGeometry>
        </mxCell>
        <mxCell id="WHsfBUfXLclG-ORaUZF6-10" value="В1" style="shape=partialRectangle;html=1;whiteSpace=wrap;connectable=0;overflow=hidden;fillColor=none;top=0;left=0;bottom=0;right=0;pointerEvents=1;labelBackgroundColor=none;" vertex="1" parent="WHsfBUfXLclG-ORaUZF6-8">
          <mxGeometry x="60" width="60" height="40" as="geometry">
            <mxRectangle width="60" height="40" as="alternateBounds" />
          </mxGeometry>
        </mxCell>
        <mxCell id="WHsfBUfXLclG-ORaUZF6-11" value="В2" style="shape=partialRectangle;html=1;whiteSpace=wrap;connectable=0;overflow=hidden;fillColor=none;top=0;left=0;bottom=0;right=0;pointerEvents=1;labelBackgroundColor=none;" vertex="1" parent="WHsfBUfXLclG-ORaUZF6-8">
          <mxGeometry x="120" width="60" height="40" as="geometry">
            <mxRectangle width="60" height="40" as="alternateBounds" />
          </mxGeometry>
        </mxCell>
        <mxCell id="WHsfBUfXLclG-ORaUZF6-12" value="" style="shape=tableRow;horizontal=0;startSize=0;swimlaneHead=0;swimlaneBody=0;top=0;left=0;bottom=0;right=0;collapsible=0;dropTarget=0;fillColor=none;points=[[0,0.5],[1,0.5]];portConstraint=eastwest;labelBackgroundColor=none;" vertex="1" parent="WHsfBUfXLclG-ORaUZF6-7">
          <mxGeometry y="40" width="180" height="40" as="geometry" />
        </mxCell>
        <mxCell id="WHsfBUfXLclG-ORaUZF6-13" value="1" style="shape=partialRectangle;html=1;whiteSpace=wrap;connectable=0;overflow=hidden;fillColor=none;top=0;left=0;bottom=0;right=0;pointerEvents=1;labelBackgroundColor=none;" vertex="1" parent="WHsfBUfXLclG-ORaUZF6-12">
          <mxGeometry width="60" height="40" as="geometry">
            <mxRectangle width="60" height="40" as="alternateBounds" />
          </mxGeometry>
        </mxCell>
        <mxCell id="WHsfBUfXLclG-ORaUZF6-14" value="2" style="shape=partialRectangle;html=1;whiteSpace=wrap;connectable=0;overflow=hidden;fillColor=none;top=0;left=0;bottom=0;right=0;pointerEvents=1;labelBackgroundColor=none;" vertex="1" parent="WHsfBUfXLclG-ORaUZF6-12">
          <mxGeometry x="60" width="60" height="40" as="geometry">
            <mxRectangle width="60" height="40" as="alternateBounds" />
          </mxGeometry>
        </mxCell>
        <mxCell id="WHsfBUfXLclG-ORaUZF6-15" value="-" style="shape=partialRectangle;html=1;whiteSpace=wrap;connectable=0;overflow=hidden;fillColor=none;top=0;left=0;bottom=0;right=0;pointerEvents=1;labelBackgroundColor=none;" vertex="1" parent="WHsfBUfXLclG-ORaUZF6-12">
          <mxGeometry x="120" width="60" height="40" as="geometry">
            <mxRectangle width="60" height="40" as="alternateBounds" />
          </mxGeometry>
        </mxCell>
        <mxCell id="WHsfBUfXLclG-ORaUZF6-16" value="" style="shape=tableRow;horizontal=0;startSize=0;swimlaneHead=0;swimlaneBody=0;top=0;left=0;bottom=0;right=0;collapsible=0;dropTarget=0;fillColor=none;points=[[0,0.5],[1,0.5]];portConstraint=eastwest;labelBackgroundColor=none;" vertex="1" parent="WHsfBUfXLclG-ORaUZF6-7">
          <mxGeometry y="80" width="180" height="40" as="geometry" />
        </mxCell>
        <mxCell id="WHsfBUfXLclG-ORaUZF6-17" value="2" style="shape=partialRectangle;html=1;whiteSpace=wrap;connectable=0;overflow=hidden;fillColor=none;top=0;left=0;bottom=0;right=0;pointerEvents=1;labelBackgroundColor=none;" vertex="1" parent="WHsfBUfXLclG-ORaUZF6-16">
          <mxGeometry width="60" height="40" as="geometry">
            <mxRectangle width="60" height="40" as="alternateBounds" />
          </mxGeometry>
        </mxCell>
        <mxCell id="WHsfBUfXLclG-ORaUZF6-18" value="-" style="shape=partialRectangle;html=1;whiteSpace=wrap;connectable=0;overflow=hidden;fillColor=none;top=0;left=0;bottom=0;right=0;pointerEvents=1;labelBackgroundColor=none;" vertex="1" parent="WHsfBUfXLclG-ORaUZF6-16">
          <mxGeometry x="60" width="60" height="40" as="geometry">
            <mxRectangle width="60" height="40" as="alternateBounds" />
          </mxGeometry>
        </mxCell>
        <mxCell id="WHsfBUfXLclG-ORaUZF6-19" value="1" style="shape=partialRectangle;html=1;whiteSpace=wrap;connectable=0;overflow=hidden;fillColor=none;top=0;left=0;bottom=0;right=0;pointerEvents=1;labelBackgroundColor=none;" vertex="1" parent="WHsfBUfXLclG-ORaUZF6-16">
          <mxGeometry x="120" width="60" height="40" as="geometry">
            <mxRectangle width="60" height="40" as="alternateBounds" />
          </mxGeometry>
        </mxCell>
        <mxCell id="WHsfBUfXLclG-ORaUZF6-20" value="&lt;font style=&quot;font-size: 20px;&quot;&gt;&lt;b&gt;Вилка&lt;/b&gt;&lt;/font&gt;" style="text;html=1;align=center;verticalAlign=middle;whiteSpace=wrap;rounded=0;labelBackgroundColor=none;" vertex="1" parent="1">
          <mxGeometry x="121" y="410" width="206" height="30" as="geometry" />
        </mxCell>
        <mxCell id="WHsfBUfXLclG-ORaUZF6-21" style="edgeStyle=orthogonalEdgeStyle;rounded=0;orthogonalLoop=1;jettySize=auto;html=1;entryX=0.406;entryY=0;entryDx=0;entryDy=0;entryPerimeter=0;exitX=0.405;exitY=1.007;exitDx=0;exitDy=0;exitPerimeter=0;labelBackgroundColor=none;fontColor=default;" edge="1" parent="1" source="WHsfBUfXLclG-ORaUZF6-23" target="WHsfBUfXLclG-ORaUZF6-26">
          <mxGeometry relative="1" as="geometry" />
        </mxCell>
        <mxCell id="WHsfBUfXLclG-ORaUZF6-22" value="&lt;font style=&quot;font-size: 14px;&quot;&gt;Э1&lt;/font&gt;" style="edgeLabel;html=1;align=center;verticalAlign=middle;resizable=0;points=[];labelBackgroundColor=none;" connectable="0" vertex="1" parent="WHsfBUfXLclG-ORaUZF6-21">
          <mxGeometry x="0.0045" relative="1" as="geometry">
            <mxPoint as="offset" />
          </mxGeometry>
        </mxCell>
        <mxCell id="WHsfBUfXLclG-ORaUZF6-23" value="&lt;font style=&quot;font-size: 14px;&quot;&gt;1. Выключен&lt;/font&gt;" style="rounded=0;whiteSpace=wrap;html=1;labelBackgroundColor=none;" vertex="1" parent="1">
          <mxGeometry x="100" y="790" width="130" height="60" as="geometry" />
        </mxCell>
        <mxCell id="WHsfBUfXLclG-ORaUZF6-24" style="edgeStyle=orthogonalEdgeStyle;rounded=0;orthogonalLoop=1;jettySize=auto;html=1;entryX=0.597;entryY=1.005;entryDx=0;entryDy=0;exitX=0.587;exitY=0.004;exitDx=0;exitDy=0;exitPerimeter=0;entryPerimeter=0;labelBackgroundColor=none;fontColor=default;" edge="1" parent="1" source="WHsfBUfXLclG-ORaUZF6-26" target="WHsfBUfXLclG-ORaUZF6-23">
          <mxGeometry relative="1" as="geometry" />
        </mxCell>
        <mxCell id="WHsfBUfXLclG-ORaUZF6-25" value="&lt;font style=&quot;font-size: 14px;&quot;&gt;Э2&lt;/font&gt;" style="edgeLabel;html=1;align=center;verticalAlign=middle;resizable=0;points=[];labelBackgroundColor=none;" connectable="0" vertex="1" parent="WHsfBUfXLclG-ORaUZF6-24">
          <mxGeometry x="-0.0433" y="-1" relative="1" as="geometry">
            <mxPoint as="offset" />
          </mxGeometry>
        </mxCell>
        <mxCell id="WHsfBUfXLclG-ORaUZF6-26" value="&lt;font style=&quot;font-size: 14px;&quot;&gt;2. Включен&lt;/font&gt;" style="rounded=0;whiteSpace=wrap;html=1;labelBackgroundColor=none;" vertex="1" parent="1">
          <mxGeometry x="90" y="920" width="150" height="60" as="geometry" />
        </mxCell>
        <mxCell id="WHsfBUfXLclG-ORaUZF6-27" value="Э1 - Включить" style="text;html=1;align=left;verticalAlign=middle;whiteSpace=wrap;rounded=0;labelBackgroundColor=none;" vertex="1" parent="1">
          <mxGeometry x="320" y="832" width="220" height="30" as="geometry" />
        </mxCell>
        <mxCell id="WHsfBUfXLclG-ORaUZF6-28" value="Э2 - Выключить" style="text;html=1;align=left;verticalAlign=middle;whiteSpace=wrap;rounded=0;labelBackgroundColor=none;" vertex="1" parent="1">
          <mxGeometry x="321.5" y="867" width="220" height="30" as="geometry" />
        </mxCell>
        <mxCell id="WHsfBUfXLclG-ORaUZF6-29" value="" style="shape=table;startSize=0;container=1;collapsible=0;childLayout=tableLayout;labelBackgroundColor=none;" vertex="1" parent="1">
          <mxGeometry x="590" y="805" width="180" height="120" as="geometry" />
        </mxCell>
        <mxCell id="WHsfBUfXLclG-ORaUZF6-30" value="" style="shape=tableRow;horizontal=0;startSize=0;swimlaneHead=0;swimlaneBody=0;top=0;left=0;bottom=0;right=0;collapsible=0;dropTarget=0;fillColor=none;points=[[0,0.5],[1,0.5]];portConstraint=eastwest;labelBackgroundColor=none;" vertex="1" parent="WHsfBUfXLclG-ORaUZF6-29">
          <mxGeometry width="180" height="40" as="geometry" />
        </mxCell>
        <mxCell id="WHsfBUfXLclG-ORaUZF6-31" value="" style="shape=partialRectangle;html=1;whiteSpace=wrap;connectable=0;overflow=hidden;fillColor=none;top=0;left=0;bottom=0;right=0;pointerEvents=1;labelBackgroundColor=none;" vertex="1" parent="WHsfBUfXLclG-ORaUZF6-30">
          <mxGeometry width="60" height="40" as="geometry">
            <mxRectangle width="60" height="40" as="alternateBounds" />
          </mxGeometry>
        </mxCell>
        <mxCell id="WHsfBUfXLclG-ORaUZF6-32" value="Э1" style="shape=partialRectangle;html=1;whiteSpace=wrap;connectable=0;overflow=hidden;fillColor=none;top=0;left=0;bottom=0;right=0;pointerEvents=1;labelBackgroundColor=none;" vertex="1" parent="WHsfBUfXLclG-ORaUZF6-30">
          <mxGeometry x="60" width="60" height="40" as="geometry">
            <mxRectangle width="60" height="40" as="alternateBounds" />
          </mxGeometry>
        </mxCell>
        <mxCell id="WHsfBUfXLclG-ORaUZF6-33" value="Э2" style="shape=partialRectangle;html=1;whiteSpace=wrap;connectable=0;overflow=hidden;fillColor=none;top=0;left=0;bottom=0;right=0;pointerEvents=1;labelBackgroundColor=none;" vertex="1" parent="WHsfBUfXLclG-ORaUZF6-30">
          <mxGeometry x="120" width="60" height="40" as="geometry">
            <mxRectangle width="60" height="40" as="alternateBounds" />
          </mxGeometry>
        </mxCell>
        <mxCell id="WHsfBUfXLclG-ORaUZF6-34" value="" style="shape=tableRow;horizontal=0;startSize=0;swimlaneHead=0;swimlaneBody=0;top=0;left=0;bottom=0;right=0;collapsible=0;dropTarget=0;fillColor=none;points=[[0,0.5],[1,0.5]];portConstraint=eastwest;labelBackgroundColor=none;" vertex="1" parent="WHsfBUfXLclG-ORaUZF6-29">
          <mxGeometry y="40" width="180" height="40" as="geometry" />
        </mxCell>
        <mxCell id="WHsfBUfXLclG-ORaUZF6-35" value="1" style="shape=partialRectangle;html=1;whiteSpace=wrap;connectable=0;overflow=hidden;fillColor=none;top=0;left=0;bottom=0;right=0;pointerEvents=1;labelBackgroundColor=none;" vertex="1" parent="WHsfBUfXLclG-ORaUZF6-34">
          <mxGeometry width="60" height="40" as="geometry">
            <mxRectangle width="60" height="40" as="alternateBounds" />
          </mxGeometry>
        </mxCell>
        <mxCell id="WHsfBUfXLclG-ORaUZF6-36" value="2" style="shape=partialRectangle;html=1;whiteSpace=wrap;connectable=0;overflow=hidden;fillColor=none;top=0;left=0;bottom=0;right=0;pointerEvents=1;labelBackgroundColor=none;" vertex="1" parent="WHsfBUfXLclG-ORaUZF6-34">
          <mxGeometry x="60" width="60" height="40" as="geometry">
            <mxRectangle width="60" height="40" as="alternateBounds" />
          </mxGeometry>
        </mxCell>
        <mxCell id="WHsfBUfXLclG-ORaUZF6-37" value="-" style="shape=partialRectangle;html=1;whiteSpace=wrap;connectable=0;overflow=hidden;fillColor=none;top=0;left=0;bottom=0;right=0;pointerEvents=1;labelBackgroundColor=none;" vertex="1" parent="WHsfBUfXLclG-ORaUZF6-34">
          <mxGeometry x="120" width="60" height="40" as="geometry">
            <mxRectangle width="60" height="40" as="alternateBounds" />
          </mxGeometry>
        </mxCell>
        <mxCell id="WHsfBUfXLclG-ORaUZF6-38" value="" style="shape=tableRow;horizontal=0;startSize=0;swimlaneHead=0;swimlaneBody=0;top=0;left=0;bottom=0;right=0;collapsible=0;dropTarget=0;fillColor=none;points=[[0,0.5],[1,0.5]];portConstraint=eastwest;labelBackgroundColor=none;" vertex="1" parent="WHsfBUfXLclG-ORaUZF6-29">
          <mxGeometry y="80" width="180" height="40" as="geometry" />
        </mxCell>
        <mxCell id="WHsfBUfXLclG-ORaUZF6-39" value="2" style="shape=partialRectangle;html=1;whiteSpace=wrap;connectable=0;overflow=hidden;fillColor=none;top=0;left=0;bottom=0;right=0;pointerEvents=1;labelBackgroundColor=none;" vertex="1" parent="WHsfBUfXLclG-ORaUZF6-38">
          <mxGeometry width="60" height="40" as="geometry">
            <mxRectangle width="60" height="40" as="alternateBounds" />
          </mxGeometry>
        </mxCell>
        <mxCell id="WHsfBUfXLclG-ORaUZF6-40" value="-" style="shape=partialRectangle;html=1;whiteSpace=wrap;connectable=0;overflow=hidden;fillColor=none;top=0;left=0;bottom=0;right=0;pointerEvents=1;labelBackgroundColor=none;" vertex="1" parent="WHsfBUfXLclG-ORaUZF6-38">
          <mxGeometry x="60" width="60" height="40" as="geometry">
            <mxRectangle width="60" height="40" as="alternateBounds" />
          </mxGeometry>
        </mxCell>
        <mxCell id="WHsfBUfXLclG-ORaUZF6-41" value="1" style="shape=partialRectangle;html=1;whiteSpace=wrap;connectable=0;overflow=hidden;fillColor=none;top=0;left=0;bottom=0;right=0;pointerEvents=1;labelBackgroundColor=none;" vertex="1" parent="WHsfBUfXLclG-ORaUZF6-38">
          <mxGeometry x="120" width="60" height="40" as="geometry">
            <mxRectangle width="60" height="40" as="alternateBounds" />
          </mxGeometry>
        </mxCell>
        <mxCell id="WHsfBUfXLclG-ORaUZF6-42" value="&lt;font style=&quot;font-size: 20px;&quot;&gt;&lt;b&gt;Электронагреватель&lt;/b&gt;&lt;/font&gt;" style="text;html=1;align=center;verticalAlign=middle;whiteSpace=wrap;rounded=0;labelBackgroundColor=none;" vertex="1" parent="1">
          <mxGeometry x="200" y="730" width="206" height="30" as="geometry" />
        </mxCell>
        <mxCell id="jCTq1OI_J1pbugujm0EU-1" style="edgeStyle=orthogonalEdgeStyle;rounded=0;orthogonalLoop=1;jettySize=auto;html=1;entryX=0.406;entryY=0;entryDx=0;entryDy=0;entryPerimeter=0;exitX=0.405;exitY=1.007;exitDx=0;exitDy=0;exitPerimeter=0;labelBackgroundColor=none;fontColor=default;" edge="1" parent="1" source="jCTq1OI_J1pbugujm0EU-3" target="jCTq1OI_J1pbugujm0EU-6">
          <mxGeometry relative="1" as="geometry" />
        </mxCell>
        <mxCell id="TJ0tVEPkmKTqhxerXWwx-1" value="&lt;font style=&quot;font-size: 13px;&quot;&gt;П1&lt;/font&gt;" style="edgeLabel;html=1;align=center;verticalAlign=middle;resizable=0;points=[];" vertex="1" connectable="0" parent="jCTq1OI_J1pbugujm0EU-1">
          <mxGeometry x="-0.0688" y="-1" relative="1" as="geometry">
            <mxPoint as="offset" />
          </mxGeometry>
        </mxCell>
        <mxCell id="jCTq1OI_J1pbugujm0EU-3" value="&lt;font style=&quot;font-size: 14px;&quot;&gt;1. Мощность не установлена&lt;/font&gt;" style="rounded=0;whiteSpace=wrap;html=1;labelBackgroundColor=none;" vertex="1" parent="1">
          <mxGeometry x="84" y="1090" width="130" height="60" as="geometry" />
        </mxCell>
        <mxCell id="jCTq1OI_J1pbugujm0EU-4" style="edgeStyle=orthogonalEdgeStyle;rounded=0;orthogonalLoop=1;jettySize=auto;html=1;entryX=0.597;entryY=1.005;entryDx=0;entryDy=0;exitX=0.587;exitY=0.004;exitDx=0;exitDy=0;exitPerimeter=0;entryPerimeter=0;labelBackgroundColor=none;fontColor=default;" edge="1" parent="1" source="jCTq1OI_J1pbugujm0EU-6" target="jCTq1OI_J1pbugujm0EU-3">
          <mxGeometry relative="1" as="geometry" />
        </mxCell>
        <mxCell id="TJ0tVEPkmKTqhxerXWwx-2" value="&lt;span style=&quot;font-size: 12px;&quot;&gt;П2&lt;/span&gt;" style="edgeLabel;html=1;align=center;verticalAlign=middle;resizable=0;points=[];" vertex="1" connectable="0" parent="jCTq1OI_J1pbugujm0EU-4">
          <mxGeometry x="0.0007" y="-1" relative="1" as="geometry">
            <mxPoint y="1" as="offset" />
          </mxGeometry>
        </mxCell>
        <mxCell id="jCTq1OI_J1pbugujm0EU-6" value="&lt;font style=&quot;font-size: 14px;&quot;&gt;2. Мощность установлена&lt;/font&gt;" style="rounded=0;whiteSpace=wrap;html=1;labelBackgroundColor=none;" vertex="1" parent="1">
          <mxGeometry x="75" y="1220" width="150" height="60" as="geometry" />
        </mxCell>
        <mxCell id="jCTq1OI_J1pbugujm0EU-7" value="П1 - Установить мощность" style="text;html=1;align=left;verticalAlign=middle;whiteSpace=wrap;rounded=0;labelBackgroundColor=none;" vertex="1" parent="1">
          <mxGeometry x="305.5" y="1137" width="220" height="30" as="geometry" />
        </mxCell>
        <mxCell id="jCTq1OI_J1pbugujm0EU-8" value="П2 - Выключить" style="text;html=1;align=left;verticalAlign=middle;whiteSpace=wrap;rounded=0;labelBackgroundColor=none;" vertex="1" parent="1">
          <mxGeometry x="305.5" y="1167" width="220" height="30" as="geometry" />
        </mxCell>
        <mxCell id="jCTq1OI_J1pbugujm0EU-9" value="" style="shape=table;startSize=0;container=1;collapsible=0;childLayout=tableLayout;labelBackgroundColor=none;" vertex="1" parent="1">
          <mxGeometry x="574" y="1105" width="180" height="120" as="geometry" />
        </mxCell>
        <mxCell id="jCTq1OI_J1pbugujm0EU-10" value="" style="shape=tableRow;horizontal=0;startSize=0;swimlaneHead=0;swimlaneBody=0;top=0;left=0;bottom=0;right=0;collapsible=0;dropTarget=0;fillColor=none;points=[[0,0.5],[1,0.5]];portConstraint=eastwest;labelBackgroundColor=none;" vertex="1" parent="jCTq1OI_J1pbugujm0EU-9">
          <mxGeometry width="180" height="40" as="geometry" />
        </mxCell>
        <mxCell id="jCTq1OI_J1pbugujm0EU-11" value="" style="shape=partialRectangle;html=1;whiteSpace=wrap;connectable=0;overflow=hidden;fillColor=none;top=0;left=0;bottom=0;right=0;pointerEvents=1;labelBackgroundColor=none;" vertex="1" parent="jCTq1OI_J1pbugujm0EU-10">
          <mxGeometry width="60" height="40" as="geometry">
            <mxRectangle width="60" height="40" as="alternateBounds" />
          </mxGeometry>
        </mxCell>
        <mxCell id="jCTq1OI_J1pbugujm0EU-12" value="П1" style="shape=partialRectangle;html=1;whiteSpace=wrap;connectable=0;overflow=hidden;fillColor=none;top=0;left=0;bottom=0;right=0;pointerEvents=1;labelBackgroundColor=none;" vertex="1" parent="jCTq1OI_J1pbugujm0EU-10">
          <mxGeometry x="60" width="60" height="40" as="geometry">
            <mxRectangle width="60" height="40" as="alternateBounds" />
          </mxGeometry>
        </mxCell>
        <mxCell id="jCTq1OI_J1pbugujm0EU-13" value="П2" style="shape=partialRectangle;html=1;whiteSpace=wrap;connectable=0;overflow=hidden;fillColor=none;top=0;left=0;bottom=0;right=0;pointerEvents=1;labelBackgroundColor=none;" vertex="1" parent="jCTq1OI_J1pbugujm0EU-10">
          <mxGeometry x="120" width="60" height="40" as="geometry">
            <mxRectangle width="60" height="40" as="alternateBounds" />
          </mxGeometry>
        </mxCell>
        <mxCell id="jCTq1OI_J1pbugujm0EU-14" value="" style="shape=tableRow;horizontal=0;startSize=0;swimlaneHead=0;swimlaneBody=0;top=0;left=0;bottom=0;right=0;collapsible=0;dropTarget=0;fillColor=none;points=[[0,0.5],[1,0.5]];portConstraint=eastwest;labelBackgroundColor=none;" vertex="1" parent="jCTq1OI_J1pbugujm0EU-9">
          <mxGeometry y="40" width="180" height="40" as="geometry" />
        </mxCell>
        <mxCell id="jCTq1OI_J1pbugujm0EU-15" value="1" style="shape=partialRectangle;html=1;whiteSpace=wrap;connectable=0;overflow=hidden;fillColor=none;top=0;left=0;bottom=0;right=0;pointerEvents=1;labelBackgroundColor=none;" vertex="1" parent="jCTq1OI_J1pbugujm0EU-14">
          <mxGeometry width="60" height="40" as="geometry">
            <mxRectangle width="60" height="40" as="alternateBounds" />
          </mxGeometry>
        </mxCell>
        <mxCell id="jCTq1OI_J1pbugujm0EU-16" value="2" style="shape=partialRectangle;html=1;whiteSpace=wrap;connectable=0;overflow=hidden;fillColor=none;top=0;left=0;bottom=0;right=0;pointerEvents=1;labelBackgroundColor=none;" vertex="1" parent="jCTq1OI_J1pbugujm0EU-14">
          <mxGeometry x="60" width="60" height="40" as="geometry">
            <mxRectangle width="60" height="40" as="alternateBounds" />
          </mxGeometry>
        </mxCell>
        <mxCell id="jCTq1OI_J1pbugujm0EU-17" value="-" style="shape=partialRectangle;html=1;whiteSpace=wrap;connectable=0;overflow=hidden;fillColor=none;top=0;left=0;bottom=0;right=0;pointerEvents=1;labelBackgroundColor=none;" vertex="1" parent="jCTq1OI_J1pbugujm0EU-14">
          <mxGeometry x="120" width="60" height="40" as="geometry">
            <mxRectangle width="60" height="40" as="alternateBounds" />
          </mxGeometry>
        </mxCell>
        <mxCell id="jCTq1OI_J1pbugujm0EU-18" value="" style="shape=tableRow;horizontal=0;startSize=0;swimlaneHead=0;swimlaneBody=0;top=0;left=0;bottom=0;right=0;collapsible=0;dropTarget=0;fillColor=none;points=[[0,0.5],[1,0.5]];portConstraint=eastwest;labelBackgroundColor=none;" vertex="1" parent="jCTq1OI_J1pbugujm0EU-9">
          <mxGeometry y="80" width="180" height="40" as="geometry" />
        </mxCell>
        <mxCell id="jCTq1OI_J1pbugujm0EU-19" value="2" style="shape=partialRectangle;html=1;whiteSpace=wrap;connectable=0;overflow=hidden;fillColor=none;top=0;left=0;bottom=0;right=0;pointerEvents=1;labelBackgroundColor=none;" vertex="1" parent="jCTq1OI_J1pbugujm0EU-18">
          <mxGeometry width="60" height="40" as="geometry">
            <mxRectangle width="60" height="40" as="alternateBounds" />
          </mxGeometry>
        </mxCell>
        <mxCell id="jCTq1OI_J1pbugujm0EU-20" value="-" style="shape=partialRectangle;html=1;whiteSpace=wrap;connectable=0;overflow=hidden;fillColor=none;top=0;left=0;bottom=0;right=0;pointerEvents=1;labelBackgroundColor=none;" vertex="1" parent="jCTq1OI_J1pbugujm0EU-18">
          <mxGeometry x="60" width="60" height="40" as="geometry">
            <mxRectangle width="60" height="40" as="alternateBounds" />
          </mxGeometry>
        </mxCell>
        <mxCell id="jCTq1OI_J1pbugujm0EU-21" value="1" style="shape=partialRectangle;html=1;whiteSpace=wrap;connectable=0;overflow=hidden;fillColor=none;top=0;left=0;bottom=0;right=0;pointerEvents=1;labelBackgroundColor=none;" vertex="1" parent="jCTq1OI_J1pbugujm0EU-18">
          <mxGeometry x="120" width="60" height="40" as="geometry">
            <mxRectangle width="60" height="40" as="alternateBounds" />
          </mxGeometry>
        </mxCell>
        <mxCell id="jCTq1OI_J1pbugujm0EU-22" value="&lt;font style=&quot;font-size: 20px;&quot;&gt;&lt;b&gt;Панель управления&lt;/b&gt;&lt;/font&gt;" style="text;html=1;align=center;verticalAlign=middle;whiteSpace=wrap;rounded=0;labelBackgroundColor=none;" vertex="1" parent="1">
          <mxGeometry x="234" y="1030" width="206" height="30" as="geometry" />
        </mxCell>
        <mxCell id="FScucOQOeqTtBvvVaMdB-1" value="" style="endArrow=classic;html=1;rounded=0;entryX=1;entryY=0.25;entryDx=0;entryDy=0;labelBackgroundColor=none;fontColor=default;" edge="1" parent="1" target="9hR5Twmfe8VWlhZQ7I1L-2">
          <mxGeometry width="50" height="50" relative="1" as="geometry">
            <mxPoint x="410" y="125" as="sourcePoint" />
            <mxPoint x="530" y="340" as="targetPoint" />
          </mxGeometry>
        </mxCell>
        <mxCell id="FScucOQOeqTtBvvVaMdB-2" value="" style="endArrow=classic;html=1;rounded=0;entryX=0.546;entryY=-0.039;entryDx=0;entryDy=0;entryPerimeter=0;labelBackgroundColor=none;fontColor=default;" edge="1" parent="1" target="gbKqkkttoXDkYdt1FxoY-79">
          <mxGeometry width="50" height="50" relative="1" as="geometry">
            <mxPoint x="130" y="400" as="sourcePoint" />
            <mxPoint x="280" y="540" as="targetPoint" />
          </mxGeometry>
        </mxCell>
        <mxCell id="FScucOQOeqTtBvvVaMdB-3" value="" style="endArrow=classic;html=1;rounded=0;entryX=0.5;entryY=0;entryDx=0;entryDy=0;labelBackgroundColor=none;fontColor=default;" edge="1" parent="1" target="WHsfBUfXLclG-ORaUZF6-23">
          <mxGeometry width="50" height="50" relative="1" as="geometry">
            <mxPoint x="165" y="700" as="sourcePoint" />
            <mxPoint x="320" y="830" as="targetPoint" />
          </mxGeometry>
        </mxCell>
        <mxCell id="FScucOQOeqTtBvvVaMdB-4" value="" style="endArrow=classic;html=1;rounded=0;labelBackgroundColor=none;fontColor=default;" edge="1" parent="1">
          <mxGeometry width="50" height="50" relative="1" as="geometry">
            <mxPoint x="144" y="1020" as="sourcePoint" />
            <mxPoint x="144" y="1090" as="targetPoint" />
          </mxGeometry>
        </mxCell>
        <mxCell id="wJfe7nU85D7BIgURsdR2-1" style="edgeStyle=orthogonalEdgeStyle;rounded=0;orthogonalLoop=1;jettySize=auto;html=1;startArrow=classic;startFill=1;endArrow=none;labelBackgroundColor=none;fontColor=default;" edge="1" parent="1" source="wJfe7nU85D7BIgURsdR2-3" target="wJfe7nU85D7BIgURsdR2-14">
          <mxGeometry relative="1" as="geometry">
            <Array as="points">
              <mxPoint x="240" y="1450" />
              <mxPoint x="240" y="1450" />
            </Array>
          </mxGeometry>
        </mxCell>
        <mxCell id="wJfe7nU85D7BIgURsdR2-39" value="&lt;font style=&quot;font-size: 16px;&quot;&gt;T2&lt;/font&gt;" style="edgeLabel;html=1;align=center;verticalAlign=middle;resizable=0;points=[];" vertex="1" connectable="0" parent="wJfe7nU85D7BIgURsdR2-1">
          <mxGeometry x="0.0408" y="-1" relative="1" as="geometry">
            <mxPoint as="offset" />
          </mxGeometry>
        </mxCell>
        <mxCell id="wJfe7nU85D7BIgURsdR2-3" value="&lt;font style=&quot;font-size: 14px;&quot;&gt;1. Выключен&lt;/font&gt;" style="rounded=0;whiteSpace=wrap;html=1;labelBackgroundColor=none;" vertex="1" parent="1">
          <mxGeometry x="288" y="1435" width="130" height="60" as="geometry" />
        </mxCell>
        <mxCell id="wJfe7nU85D7BIgURsdR2-44" style="edgeStyle=orthogonalEdgeStyle;rounded=0;orthogonalLoop=1;jettySize=auto;html=1;entryX=0;entryY=0.5;entryDx=0;entryDy=0;" edge="1" parent="1" source="wJfe7nU85D7BIgURsdR2-6" target="wJfe7nU85D7BIgURsdR2-41">
          <mxGeometry relative="1" as="geometry" />
        </mxCell>
        <mxCell id="wJfe7nU85D7BIgURsdR2-45" value="&lt;font style=&quot;font-size: 16px;&quot;&gt;Т4&lt;/font&gt;" style="edgeLabel;html=1;align=center;verticalAlign=middle;resizable=0;points=[];" vertex="1" connectable="0" parent="wJfe7nU85D7BIgURsdR2-44">
          <mxGeometry x="-0.0955" relative="1" as="geometry">
            <mxPoint as="offset" />
          </mxGeometry>
        </mxCell>
        <mxCell id="wJfe7nU85D7BIgURsdR2-6" value="&lt;span style=&quot;font-size: 14px;&quot;&gt;3. Отсчитывает время готовки&lt;/span&gt;" style="rounded=0;whiteSpace=wrap;html=1;labelBackgroundColor=none;" vertex="1" parent="1">
          <mxGeometry x="50" y="1580" width="150" height="60" as="geometry" />
        </mxCell>
        <mxCell id="wJfe7nU85D7BIgURsdR2-7" value="Т1 - Включить" style="text;html=1;align=left;verticalAlign=middle;whiteSpace=wrap;rounded=0;labelBackgroundColor=none;" vertex="1" parent="1">
          <mxGeometry x="480" y="1480" width="220" height="30" as="geometry" />
        </mxCell>
        <mxCell id="wJfe7nU85D7BIgURsdR2-8" value="Т2 - Выключить" style="text;html=1;align=left;verticalAlign=middle;whiteSpace=wrap;rounded=0;labelBackgroundColor=none;" vertex="1" parent="1">
          <mxGeometry x="481.5" y="1515" width="220" height="30" as="geometry" />
        </mxCell>
        <mxCell id="wJfe7nU85D7BIgURsdR2-9" value="&lt;font style=&quot;font-size: 20px;&quot;&gt;&lt;b&gt;Таймер&lt;/b&gt;&lt;/font&gt;" style="text;html=1;align=center;verticalAlign=middle;whiteSpace=wrap;rounded=0;labelBackgroundColor=none;" vertex="1" parent="1">
          <mxGeometry x="161" y="1360" width="206" height="30" as="geometry" />
        </mxCell>
        <mxCell id="wJfe7nU85D7BIgURsdR2-10" style="edgeStyle=orthogonalEdgeStyle;rounded=0;orthogonalLoop=1;jettySize=auto;html=1;startArrow=classic;startFill=1;endArrow=none;labelBackgroundColor=none;fontColor=default;" edge="1" parent="1" source="wJfe7nU85D7BIgURsdR2-14" target="wJfe7nU85D7BIgURsdR2-3">
          <mxGeometry relative="1" as="geometry">
            <Array as="points">
              <mxPoint x="240" y="1480" />
              <mxPoint x="240" y="1480" />
            </Array>
          </mxGeometry>
        </mxCell>
        <mxCell id="wJfe7nU85D7BIgURsdR2-38" value="&lt;font style=&quot;font-size: 16px;&quot;&gt;T1&lt;/font&gt;" style="edgeLabel;html=1;align=center;verticalAlign=middle;resizable=0;points=[];" vertex="1" connectable="0" parent="wJfe7nU85D7BIgURsdR2-10">
          <mxGeometry x="0.1458" relative="1" as="geometry">
            <mxPoint as="offset" />
          </mxGeometry>
        </mxCell>
        <mxCell id="wJfe7nU85D7BIgURsdR2-12" style="edgeStyle=orthogonalEdgeStyle;rounded=0;orthogonalLoop=1;jettySize=auto;html=1;entryX=0.5;entryY=0;entryDx=0;entryDy=0;labelBackgroundColor=none;fontColor=default;" edge="1" parent="1" source="wJfe7nU85D7BIgURsdR2-14" target="wJfe7nU85D7BIgURsdR2-6">
          <mxGeometry relative="1" as="geometry" />
        </mxCell>
        <mxCell id="wJfe7nU85D7BIgURsdR2-40" value="&lt;font style=&quot;font-size: 16px;&quot;&gt;T3&lt;/font&gt;" style="edgeLabel;html=1;align=center;verticalAlign=middle;resizable=0;points=[];" vertex="1" connectable="0" parent="wJfe7nU85D7BIgURsdR2-12">
          <mxGeometry x="-0.0552" y="1" relative="1" as="geometry">
            <mxPoint as="offset" />
          </mxGeometry>
        </mxCell>
        <mxCell id="wJfe7nU85D7BIgURsdR2-14" value="&lt;font style=&quot;font-size: 14px;&quot;&gt;2.Сброшен&lt;/font&gt;" style="rounded=0;whiteSpace=wrap;html=1;labelBackgroundColor=none;" vertex="1" parent="1">
          <mxGeometry x="60" y="1435" width="130" height="60" as="geometry" />
        </mxCell>
        <mxCell id="wJfe7nU85D7BIgURsdR2-15" value="T3 - Запустить отсчет времени" style="text;html=1;align=left;verticalAlign=middle;whiteSpace=wrap;rounded=0;labelBackgroundColor=none;" vertex="1" parent="1">
          <mxGeometry x="481.5" y="1550" width="220" height="30" as="geometry" />
        </mxCell>
        <mxCell id="wJfe7nU85D7BIgURsdR2-37" value="" style="endArrow=classic;html=1;rounded=0;entryX=0.98;entryY=0.418;entryDx=0;entryDy=0;entryPerimeter=0;labelBackgroundColor=none;fontColor=default;" edge="1" parent="1" target="wJfe7nU85D7BIgURsdR2-3">
          <mxGeometry width="50" height="50" relative="1" as="geometry">
            <mxPoint x="480" y="1460" as="sourcePoint" />
            <mxPoint x="500" y="1440" as="targetPoint" />
          </mxGeometry>
        </mxCell>
        <mxCell id="wJfe7nU85D7BIgURsdR2-42" style="edgeStyle=orthogonalEdgeStyle;rounded=0;orthogonalLoop=1;jettySize=auto;html=1;entryX=0.5;entryY=0.958;entryDx=0;entryDy=0;exitX=0.468;exitY=-0.017;exitDx=0;exitDy=0;exitPerimeter=0;entryPerimeter=0;" edge="1" parent="1" source="wJfe7nU85D7BIgURsdR2-41" target="wJfe7nU85D7BIgURsdR2-3">
          <mxGeometry relative="1" as="geometry">
            <Array as="points">
              <mxPoint x="352" y="1538" />
              <mxPoint x="352" y="1538" />
              <mxPoint x="352" y="1493" />
            </Array>
          </mxGeometry>
        </mxCell>
        <mxCell id="wJfe7nU85D7BIgURsdR2-43" value="&lt;font style=&quot;font-size: 16px;&quot;&gt;T2&lt;/font&gt;" style="edgeLabel;html=1;align=center;verticalAlign=middle;resizable=0;points=[];" vertex="1" connectable="0" parent="wJfe7nU85D7BIgURsdR2-42">
          <mxGeometry x="0.2566" y="-1" relative="1" as="geometry">
            <mxPoint as="offset" />
          </mxGeometry>
        </mxCell>
        <mxCell id="wJfe7nU85D7BIgURsdR2-47" style="edgeStyle=orthogonalEdgeStyle;rounded=0;orthogonalLoop=1;jettySize=auto;html=1;exitX=0.25;exitY=0;exitDx=0;exitDy=0;entryX=0.75;entryY=1;entryDx=0;entryDy=0;" edge="1" parent="1" source="wJfe7nU85D7BIgURsdR2-41" target="wJfe7nU85D7BIgURsdR2-14">
          <mxGeometry relative="1" as="geometry" />
        </mxCell>
        <mxCell id="wJfe7nU85D7BIgURsdR2-48" value="&lt;font style=&quot;font-size: 16px;&quot;&gt;T5&lt;/font&gt;" style="edgeLabel;html=1;align=center;verticalAlign=middle;resizable=0;points=[];" vertex="1" connectable="0" parent="wJfe7nU85D7BIgURsdR2-47">
          <mxGeometry x="0.0953" y="-3" relative="1" as="geometry">
            <mxPoint as="offset" />
          </mxGeometry>
        </mxCell>
        <mxCell id="wJfe7nU85D7BIgURsdR2-41" value="&lt;span style=&quot;font-size: 14px;&quot;&gt;4. Подать сигнал об окончании готовки&lt;/span&gt;" style="rounded=0;whiteSpace=wrap;html=1;labelBackgroundColor=none;" vertex="1" parent="1">
          <mxGeometry x="281.5" y="1580" width="150" height="60" as="geometry" />
        </mxCell>
        <mxCell id="wJfe7nU85D7BIgURsdR2-46" value="T4 - Достигнуто время приготовления" style="text;html=1;align=left;verticalAlign=middle;whiteSpace=wrap;rounded=0;labelBackgroundColor=none;" vertex="1" parent="1">
          <mxGeometry x="481.5" y="1580" width="220" height="30" as="geometry" />
        </mxCell>
        <mxCell id="wJfe7nU85D7BIgURsdR2-50" value="T5 - Сброс" style="text;html=1;align=left;verticalAlign=middle;whiteSpace=wrap;rounded=0;labelBackgroundColor=none;" vertex="1" parent="1">
          <mxGeometry x="480" y="1610" width="220" height="30" as="geometry" />
        </mxCell>
        <mxCell id="wJfe7nU85D7BIgURsdR2-51" style="edgeStyle=orthogonalEdgeStyle;rounded=0;orthogonalLoop=1;jettySize=auto;html=1;entryX=0.654;entryY=0.993;entryDx=0;entryDy=0;entryPerimeter=0;exitX=0.639;exitY=-0.055;exitDx=0;exitDy=0;exitPerimeter=0;" edge="1" parent="1" source="wJfe7nU85D7BIgURsdR2-6" target="wJfe7nU85D7BIgURsdR2-14">
          <mxGeometry relative="1" as="geometry" />
        </mxCell>
        <mxCell id="wJfe7nU85D7BIgURsdR2-52" value="&lt;font style=&quot;font-size: 16px;&quot;&gt;T5&lt;/font&gt;" style="edgeLabel;html=1;align=center;verticalAlign=middle;resizable=0;points=[];" vertex="1" connectable="0" parent="wJfe7nU85D7BIgURsdR2-51">
          <mxGeometry x="-0.3812" y="2" relative="1" as="geometry">
            <mxPoint as="offset" />
          </mxGeometry>
        </mxCell>
        <mxCell id="wJfe7nU85D7BIgURsdR2-82" value="" style="shape=table;startSize=0;container=1;collapsible=0;childLayout=tableLayout;" vertex="1" parent="1">
          <mxGeometry x="754" y="1434" width="360" height="200" as="geometry" />
        </mxCell>
        <mxCell id="wJfe7nU85D7BIgURsdR2-83" value="" style="shape=tableRow;horizontal=0;startSize=0;swimlaneHead=0;swimlaneBody=0;strokeColor=inherit;top=0;left=0;bottom=0;right=0;collapsible=0;dropTarget=0;fillColor=none;points=[[0,0.5],[1,0.5]];portConstraint=eastwest;" vertex="1" parent="wJfe7nU85D7BIgURsdR2-82">
          <mxGeometry width="360" height="40" as="geometry" />
        </mxCell>
        <mxCell id="wJfe7nU85D7BIgURsdR2-84" value="" style="shape=partialRectangle;html=1;whiteSpace=wrap;connectable=0;strokeColor=inherit;overflow=hidden;fillColor=none;top=0;left=0;bottom=0;right=0;pointerEvents=1;" vertex="1" parent="wJfe7nU85D7BIgURsdR2-83">
          <mxGeometry width="60" height="40" as="geometry">
            <mxRectangle width="60" height="40" as="alternateBounds" />
          </mxGeometry>
        </mxCell>
        <mxCell id="wJfe7nU85D7BIgURsdR2-85" value="Т1" style="shape=partialRectangle;html=1;whiteSpace=wrap;connectable=0;strokeColor=inherit;overflow=hidden;fillColor=none;top=0;left=0;bottom=0;right=0;pointerEvents=1;" vertex="1" parent="wJfe7nU85D7BIgURsdR2-83">
          <mxGeometry x="60" width="60" height="40" as="geometry">
            <mxRectangle width="60" height="40" as="alternateBounds" />
          </mxGeometry>
        </mxCell>
        <mxCell id="wJfe7nU85D7BIgURsdR2-86" value="Т2" style="shape=partialRectangle;html=1;whiteSpace=wrap;connectable=0;strokeColor=inherit;overflow=hidden;fillColor=none;top=0;left=0;bottom=0;right=0;pointerEvents=1;" vertex="1" parent="wJfe7nU85D7BIgURsdR2-83">
          <mxGeometry x="120" width="60" height="40" as="geometry">
            <mxRectangle width="60" height="40" as="alternateBounds" />
          </mxGeometry>
        </mxCell>
        <mxCell id="wJfe7nU85D7BIgURsdR2-87" value="Т 3" style="shape=partialRectangle;html=1;whiteSpace=wrap;connectable=0;strokeColor=inherit;overflow=hidden;fillColor=none;top=0;left=0;bottom=0;right=0;pointerEvents=1;" vertex="1" parent="wJfe7nU85D7BIgURsdR2-83">
          <mxGeometry x="180" width="60" height="40" as="geometry">
            <mxRectangle width="60" height="40" as="alternateBounds" />
          </mxGeometry>
        </mxCell>
        <mxCell id="wJfe7nU85D7BIgURsdR2-88" value="Т4" style="shape=partialRectangle;html=1;whiteSpace=wrap;connectable=0;strokeColor=inherit;overflow=hidden;fillColor=none;top=0;left=0;bottom=0;right=0;pointerEvents=1;" vertex="1" parent="wJfe7nU85D7BIgURsdR2-83">
          <mxGeometry x="240" width="60" height="40" as="geometry">
            <mxRectangle width="60" height="40" as="alternateBounds" />
          </mxGeometry>
        </mxCell>
        <mxCell id="wJfe7nU85D7BIgURsdR2-89" value="Т5" style="shape=partialRectangle;html=1;whiteSpace=wrap;connectable=0;strokeColor=inherit;overflow=hidden;fillColor=none;top=0;left=0;bottom=0;right=0;pointerEvents=1;" vertex="1" parent="wJfe7nU85D7BIgURsdR2-83">
          <mxGeometry x="300" width="60" height="40" as="geometry">
            <mxRectangle width="60" height="40" as="alternateBounds" />
          </mxGeometry>
        </mxCell>
        <mxCell id="wJfe7nU85D7BIgURsdR2-90" value="" style="shape=tableRow;horizontal=0;startSize=0;swimlaneHead=0;swimlaneBody=0;strokeColor=inherit;top=0;left=0;bottom=0;right=0;collapsible=0;dropTarget=0;fillColor=none;points=[[0,0.5],[1,0.5]];portConstraint=eastwest;" vertex="1" parent="wJfe7nU85D7BIgURsdR2-82">
          <mxGeometry y="40" width="360" height="40" as="geometry" />
        </mxCell>
        <mxCell id="wJfe7nU85D7BIgURsdR2-91" value="1" style="shape=partialRectangle;html=1;whiteSpace=wrap;connectable=0;strokeColor=inherit;overflow=hidden;fillColor=none;top=0;left=0;bottom=0;right=0;pointerEvents=1;" vertex="1" parent="wJfe7nU85D7BIgURsdR2-90">
          <mxGeometry width="60" height="40" as="geometry">
            <mxRectangle width="60" height="40" as="alternateBounds" />
          </mxGeometry>
        </mxCell>
        <mxCell id="wJfe7nU85D7BIgURsdR2-92" value="2" style="shape=partialRectangle;html=1;whiteSpace=wrap;connectable=0;strokeColor=inherit;overflow=hidden;fillColor=none;top=0;left=0;bottom=0;right=0;pointerEvents=1;" vertex="1" parent="wJfe7nU85D7BIgURsdR2-90">
          <mxGeometry x="60" width="60" height="40" as="geometry">
            <mxRectangle width="60" height="40" as="alternateBounds" />
          </mxGeometry>
        </mxCell>
        <mxCell id="wJfe7nU85D7BIgURsdR2-93" value="-" style="shape=partialRectangle;html=1;whiteSpace=wrap;connectable=0;strokeColor=inherit;overflow=hidden;fillColor=none;top=0;left=0;bottom=0;right=0;pointerEvents=1;" vertex="1" parent="wJfe7nU85D7BIgURsdR2-90">
          <mxGeometry x="120" width="60" height="40" as="geometry">
            <mxRectangle width="60" height="40" as="alternateBounds" />
          </mxGeometry>
        </mxCell>
        <mxCell id="wJfe7nU85D7BIgURsdR2-94" value="-" style="shape=partialRectangle;html=1;whiteSpace=wrap;connectable=0;strokeColor=inherit;overflow=hidden;fillColor=none;top=0;left=0;bottom=0;right=0;pointerEvents=1;" vertex="1" parent="wJfe7nU85D7BIgURsdR2-90">
          <mxGeometry x="180" width="60" height="40" as="geometry">
            <mxRectangle width="60" height="40" as="alternateBounds" />
          </mxGeometry>
        </mxCell>
        <mxCell id="wJfe7nU85D7BIgURsdR2-95" value="-" style="shape=partialRectangle;html=1;whiteSpace=wrap;connectable=0;strokeColor=inherit;overflow=hidden;fillColor=none;top=0;left=0;bottom=0;right=0;pointerEvents=1;" vertex="1" parent="wJfe7nU85D7BIgURsdR2-90">
          <mxGeometry x="240" width="60" height="40" as="geometry">
            <mxRectangle width="60" height="40" as="alternateBounds" />
          </mxGeometry>
        </mxCell>
        <mxCell id="wJfe7nU85D7BIgURsdR2-96" value="-" style="shape=partialRectangle;html=1;whiteSpace=wrap;connectable=0;strokeColor=inherit;overflow=hidden;fillColor=none;top=0;left=0;bottom=0;right=0;pointerEvents=1;" vertex="1" parent="wJfe7nU85D7BIgURsdR2-90">
          <mxGeometry x="300" width="60" height="40" as="geometry">
            <mxRectangle width="60" height="40" as="alternateBounds" />
          </mxGeometry>
        </mxCell>
        <mxCell id="wJfe7nU85D7BIgURsdR2-97" value="" style="shape=tableRow;horizontal=0;startSize=0;swimlaneHead=0;swimlaneBody=0;strokeColor=inherit;top=0;left=0;bottom=0;right=0;collapsible=0;dropTarget=0;fillColor=none;points=[[0,0.5],[1,0.5]];portConstraint=eastwest;" vertex="1" parent="wJfe7nU85D7BIgURsdR2-82">
          <mxGeometry y="80" width="360" height="40" as="geometry" />
        </mxCell>
        <mxCell id="wJfe7nU85D7BIgURsdR2-98" value="2" style="shape=partialRectangle;html=1;whiteSpace=wrap;connectable=0;strokeColor=inherit;overflow=hidden;fillColor=none;top=0;left=0;bottom=0;right=0;pointerEvents=1;" vertex="1" parent="wJfe7nU85D7BIgURsdR2-97">
          <mxGeometry width="60" height="40" as="geometry">
            <mxRectangle width="60" height="40" as="alternateBounds" />
          </mxGeometry>
        </mxCell>
        <mxCell id="wJfe7nU85D7BIgURsdR2-99" value="-" style="shape=partialRectangle;html=1;whiteSpace=wrap;connectable=0;strokeColor=inherit;overflow=hidden;fillColor=none;top=0;left=0;bottom=0;right=0;pointerEvents=1;" vertex="1" parent="wJfe7nU85D7BIgURsdR2-97">
          <mxGeometry x="60" width="60" height="40" as="geometry">
            <mxRectangle width="60" height="40" as="alternateBounds" />
          </mxGeometry>
        </mxCell>
        <mxCell id="wJfe7nU85D7BIgURsdR2-100" value="1" style="shape=partialRectangle;html=1;whiteSpace=wrap;connectable=0;strokeColor=inherit;overflow=hidden;fillColor=none;top=0;left=0;bottom=0;right=0;pointerEvents=1;" vertex="1" parent="wJfe7nU85D7BIgURsdR2-97">
          <mxGeometry x="120" width="60" height="40" as="geometry">
            <mxRectangle width="60" height="40" as="alternateBounds" />
          </mxGeometry>
        </mxCell>
        <mxCell id="wJfe7nU85D7BIgURsdR2-101" value="3" style="shape=partialRectangle;html=1;whiteSpace=wrap;connectable=0;strokeColor=inherit;overflow=hidden;fillColor=none;top=0;left=0;bottom=0;right=0;pointerEvents=1;" vertex="1" parent="wJfe7nU85D7BIgURsdR2-97">
          <mxGeometry x="180" width="60" height="40" as="geometry">
            <mxRectangle width="60" height="40" as="alternateBounds" />
          </mxGeometry>
        </mxCell>
        <mxCell id="wJfe7nU85D7BIgURsdR2-102" value="-" style="shape=partialRectangle;html=1;whiteSpace=wrap;connectable=0;strokeColor=inherit;overflow=hidden;fillColor=none;top=0;left=0;bottom=0;right=0;pointerEvents=1;" vertex="1" parent="wJfe7nU85D7BIgURsdR2-97">
          <mxGeometry x="240" width="60" height="40" as="geometry">
            <mxRectangle width="60" height="40" as="alternateBounds" />
          </mxGeometry>
        </mxCell>
        <mxCell id="wJfe7nU85D7BIgURsdR2-103" value="-" style="shape=partialRectangle;html=1;whiteSpace=wrap;connectable=0;strokeColor=inherit;overflow=hidden;fillColor=none;top=0;left=0;bottom=0;right=0;pointerEvents=1;" vertex="1" parent="wJfe7nU85D7BIgURsdR2-97">
          <mxGeometry x="300" width="60" height="40" as="geometry">
            <mxRectangle width="60" height="40" as="alternateBounds" />
          </mxGeometry>
        </mxCell>
        <mxCell id="wJfe7nU85D7BIgURsdR2-104" value="" style="shape=tableRow;horizontal=0;startSize=0;swimlaneHead=0;swimlaneBody=0;strokeColor=inherit;top=0;left=0;bottom=0;right=0;collapsible=0;dropTarget=0;fillColor=none;points=[[0,0.5],[1,0.5]];portConstraint=eastwest;" vertex="1" parent="wJfe7nU85D7BIgURsdR2-82">
          <mxGeometry y="120" width="360" height="40" as="geometry" />
        </mxCell>
        <mxCell id="wJfe7nU85D7BIgURsdR2-105" value="3" style="shape=partialRectangle;html=1;whiteSpace=wrap;connectable=0;strokeColor=inherit;overflow=hidden;fillColor=none;top=0;left=0;bottom=0;right=0;pointerEvents=1;" vertex="1" parent="wJfe7nU85D7BIgURsdR2-104">
          <mxGeometry width="60" height="40" as="geometry">
            <mxRectangle width="60" height="40" as="alternateBounds" />
          </mxGeometry>
        </mxCell>
        <mxCell id="wJfe7nU85D7BIgURsdR2-106" value="-" style="shape=partialRectangle;html=1;whiteSpace=wrap;connectable=0;strokeColor=inherit;overflow=hidden;fillColor=none;top=0;left=0;bottom=0;right=0;pointerEvents=1;" vertex="1" parent="wJfe7nU85D7BIgURsdR2-104">
          <mxGeometry x="60" width="60" height="40" as="geometry">
            <mxRectangle width="60" height="40" as="alternateBounds" />
          </mxGeometry>
        </mxCell>
        <mxCell id="wJfe7nU85D7BIgURsdR2-107" value="-" style="shape=partialRectangle;html=1;whiteSpace=wrap;connectable=0;strokeColor=inherit;overflow=hidden;fillColor=none;top=0;left=0;bottom=0;right=0;pointerEvents=1;" vertex="1" parent="wJfe7nU85D7BIgURsdR2-104">
          <mxGeometry x="120" width="60" height="40" as="geometry">
            <mxRectangle width="60" height="40" as="alternateBounds" />
          </mxGeometry>
        </mxCell>
        <mxCell id="wJfe7nU85D7BIgURsdR2-108" value="-" style="shape=partialRectangle;html=1;whiteSpace=wrap;connectable=0;strokeColor=inherit;overflow=hidden;fillColor=none;top=0;left=0;bottom=0;right=0;pointerEvents=1;" vertex="1" parent="wJfe7nU85D7BIgURsdR2-104">
          <mxGeometry x="180" width="60" height="40" as="geometry">
            <mxRectangle width="60" height="40" as="alternateBounds" />
          </mxGeometry>
        </mxCell>
        <mxCell id="wJfe7nU85D7BIgURsdR2-109" value="4" style="shape=partialRectangle;html=1;whiteSpace=wrap;connectable=0;strokeColor=inherit;overflow=hidden;fillColor=none;top=0;left=0;bottom=0;right=0;pointerEvents=1;" vertex="1" parent="wJfe7nU85D7BIgURsdR2-104">
          <mxGeometry x="240" width="60" height="40" as="geometry">
            <mxRectangle width="60" height="40" as="alternateBounds" />
          </mxGeometry>
        </mxCell>
        <mxCell id="wJfe7nU85D7BIgURsdR2-110" value="2" style="shape=partialRectangle;html=1;whiteSpace=wrap;connectable=0;strokeColor=inherit;overflow=hidden;fillColor=none;top=0;left=0;bottom=0;right=0;pointerEvents=1;" vertex="1" parent="wJfe7nU85D7BIgURsdR2-104">
          <mxGeometry x="300" width="60" height="40" as="geometry">
            <mxRectangle width="60" height="40" as="alternateBounds" />
          </mxGeometry>
        </mxCell>
        <mxCell id="wJfe7nU85D7BIgURsdR2-111" value="" style="shape=tableRow;horizontal=0;startSize=0;swimlaneHead=0;swimlaneBody=0;strokeColor=inherit;top=0;left=0;bottom=0;right=0;collapsible=0;dropTarget=0;fillColor=none;points=[[0,0.5],[1,0.5]];portConstraint=eastwest;" vertex="1" parent="wJfe7nU85D7BIgURsdR2-82">
          <mxGeometry y="160" width="360" height="40" as="geometry" />
        </mxCell>
        <mxCell id="wJfe7nU85D7BIgURsdR2-112" value="4" style="shape=partialRectangle;html=1;whiteSpace=wrap;connectable=0;strokeColor=inherit;overflow=hidden;fillColor=none;top=0;left=0;bottom=0;right=0;pointerEvents=1;" vertex="1" parent="wJfe7nU85D7BIgURsdR2-111">
          <mxGeometry width="60" height="40" as="geometry">
            <mxRectangle width="60" height="40" as="alternateBounds" />
          </mxGeometry>
        </mxCell>
        <mxCell id="wJfe7nU85D7BIgURsdR2-113" value="-" style="shape=partialRectangle;html=1;whiteSpace=wrap;connectable=0;strokeColor=inherit;overflow=hidden;fillColor=none;top=0;left=0;bottom=0;right=0;pointerEvents=1;" vertex="1" parent="wJfe7nU85D7BIgURsdR2-111">
          <mxGeometry x="60" width="60" height="40" as="geometry">
            <mxRectangle width="60" height="40" as="alternateBounds" />
          </mxGeometry>
        </mxCell>
        <mxCell id="wJfe7nU85D7BIgURsdR2-114" value="1" style="shape=partialRectangle;html=1;whiteSpace=wrap;connectable=0;strokeColor=inherit;overflow=hidden;fillColor=none;top=0;left=0;bottom=0;right=0;pointerEvents=1;" vertex="1" parent="wJfe7nU85D7BIgURsdR2-111">
          <mxGeometry x="120" width="60" height="40" as="geometry">
            <mxRectangle width="60" height="40" as="alternateBounds" />
          </mxGeometry>
        </mxCell>
        <mxCell id="wJfe7nU85D7BIgURsdR2-115" value="-" style="shape=partialRectangle;html=1;whiteSpace=wrap;connectable=0;strokeColor=inherit;overflow=hidden;fillColor=none;top=0;left=0;bottom=0;right=0;pointerEvents=1;" vertex="1" parent="wJfe7nU85D7BIgURsdR2-111">
          <mxGeometry x="180" width="60" height="40" as="geometry">
            <mxRectangle width="60" height="40" as="alternateBounds" />
          </mxGeometry>
        </mxCell>
        <mxCell id="wJfe7nU85D7BIgURsdR2-116" value="-" style="shape=partialRectangle;html=1;whiteSpace=wrap;connectable=0;strokeColor=inherit;overflow=hidden;fillColor=none;top=0;left=0;bottom=0;right=0;pointerEvents=1;" vertex="1" parent="wJfe7nU85D7BIgURsdR2-111">
          <mxGeometry x="240" width="60" height="40" as="geometry">
            <mxRectangle width="60" height="40" as="alternateBounds" />
          </mxGeometry>
        </mxCell>
        <mxCell id="wJfe7nU85D7BIgURsdR2-117" value="2" style="shape=partialRectangle;html=1;whiteSpace=wrap;connectable=0;strokeColor=inherit;overflow=hidden;fillColor=none;top=0;left=0;bottom=0;right=0;pointerEvents=1;" vertex="1" parent="wJfe7nU85D7BIgURsdR2-111">
          <mxGeometry x="300" width="60" height="40" as="geometry">
            <mxRectangle width="60" height="40" as="alternateBounds" />
          </mxGeometry>
        </mxCell>
        <mxCell id="wJfe7nU85D7BIgURsdR2-118" style="edgeStyle=orthogonalEdgeStyle;rounded=0;orthogonalLoop=1;jettySize=auto;html=1;entryX=0.406;entryY=0;entryDx=0;entryDy=0;entryPerimeter=0;exitX=0.405;exitY=1.007;exitDx=0;exitDy=0;exitPerimeter=0;labelBackgroundColor=none;fontColor=default;" edge="1" parent="1" source="wJfe7nU85D7BIgURsdR2-120" target="wJfe7nU85D7BIgURsdR2-123">
          <mxGeometry relative="1" as="geometry" />
        </mxCell>
        <mxCell id="wJfe7nU85D7BIgURsdR2-119" value="&lt;font style=&quot;font-size: 13px;&quot;&gt;И1&lt;/font&gt;" style="edgeLabel;html=1;align=center;verticalAlign=middle;resizable=0;points=[];" vertex="1" connectable="0" parent="wJfe7nU85D7BIgURsdR2-118">
          <mxGeometry x="-0.0688" y="-1" relative="1" as="geometry">
            <mxPoint as="offset" />
          </mxGeometry>
        </mxCell>
        <mxCell id="wJfe7nU85D7BIgURsdR2-120" value="&lt;font style=&quot;font-size: 14px;&quot;&gt;1. Выключен&lt;/font&gt;" style="rounded=0;whiteSpace=wrap;html=1;labelBackgroundColor=none;" vertex="1" parent="1">
          <mxGeometry x="70" y="1760" width="130" height="60" as="geometry" />
        </mxCell>
        <mxCell id="wJfe7nU85D7BIgURsdR2-121" style="edgeStyle=orthogonalEdgeStyle;rounded=0;orthogonalLoop=1;jettySize=auto;html=1;entryX=0.597;entryY=1.005;entryDx=0;entryDy=0;exitX=0.587;exitY=0.004;exitDx=0;exitDy=0;exitPerimeter=0;entryPerimeter=0;labelBackgroundColor=none;fontColor=default;" edge="1" parent="1" source="wJfe7nU85D7BIgURsdR2-123" target="wJfe7nU85D7BIgURsdR2-120">
          <mxGeometry relative="1" as="geometry" />
        </mxCell>
        <mxCell id="wJfe7nU85D7BIgURsdR2-122" value="&lt;span style=&quot;font-size: 12px;&quot;&gt;И2&lt;/span&gt;" style="edgeLabel;html=1;align=center;verticalAlign=middle;resizable=0;points=[];" vertex="1" connectable="0" parent="wJfe7nU85D7BIgURsdR2-121">
          <mxGeometry x="0.0007" y="-1" relative="1" as="geometry">
            <mxPoint y="1" as="offset" />
          </mxGeometry>
        </mxCell>
        <mxCell id="wJfe7nU85D7BIgURsdR2-123" value="&lt;font style=&quot;font-size: 14px;&quot;&gt;2. Включен&lt;/font&gt;" style="rounded=0;whiteSpace=wrap;html=1;labelBackgroundColor=none;" vertex="1" parent="1">
          <mxGeometry x="61" y="1890" width="150" height="60" as="geometry" />
        </mxCell>
        <mxCell id="wJfe7nU85D7BIgURsdR2-124" value="И1 - Включить" style="text;html=1;align=left;verticalAlign=middle;whiteSpace=wrap;rounded=0;labelBackgroundColor=none;" vertex="1" parent="1">
          <mxGeometry x="291.5" y="1807" width="220" height="30" as="geometry" />
        </mxCell>
        <mxCell id="wJfe7nU85D7BIgURsdR2-125" value="И2 - Выключить" style="text;html=1;align=left;verticalAlign=middle;whiteSpace=wrap;rounded=0;labelBackgroundColor=none;" vertex="1" parent="1">
          <mxGeometry x="291.5" y="1837" width="220" height="30" as="geometry" />
        </mxCell>
        <mxCell id="wJfe7nU85D7BIgURsdR2-126" value="" style="shape=table;startSize=0;container=1;collapsible=0;childLayout=tableLayout;labelBackgroundColor=none;" vertex="1" parent="1">
          <mxGeometry x="560" y="1775" width="180" height="120" as="geometry" />
        </mxCell>
        <mxCell id="wJfe7nU85D7BIgURsdR2-127" value="" style="shape=tableRow;horizontal=0;startSize=0;swimlaneHead=0;swimlaneBody=0;top=0;left=0;bottom=0;right=0;collapsible=0;dropTarget=0;fillColor=none;points=[[0,0.5],[1,0.5]];portConstraint=eastwest;labelBackgroundColor=none;" vertex="1" parent="wJfe7nU85D7BIgURsdR2-126">
          <mxGeometry width="180" height="40" as="geometry" />
        </mxCell>
        <mxCell id="wJfe7nU85D7BIgURsdR2-128" value="" style="shape=partialRectangle;html=1;whiteSpace=wrap;connectable=0;overflow=hidden;fillColor=none;top=0;left=0;bottom=0;right=0;pointerEvents=1;labelBackgroundColor=none;" vertex="1" parent="wJfe7nU85D7BIgURsdR2-127">
          <mxGeometry width="60" height="40" as="geometry">
            <mxRectangle width="60" height="40" as="alternateBounds" />
          </mxGeometry>
        </mxCell>
        <mxCell id="wJfe7nU85D7BIgURsdR2-129" value="И1" style="shape=partialRectangle;html=1;whiteSpace=wrap;connectable=0;overflow=hidden;fillColor=none;top=0;left=0;bottom=0;right=0;pointerEvents=1;labelBackgroundColor=none;" vertex="1" parent="wJfe7nU85D7BIgURsdR2-127">
          <mxGeometry x="60" width="60" height="40" as="geometry">
            <mxRectangle width="60" height="40" as="alternateBounds" />
          </mxGeometry>
        </mxCell>
        <mxCell id="wJfe7nU85D7BIgURsdR2-130" value="И2" style="shape=partialRectangle;html=1;whiteSpace=wrap;connectable=0;overflow=hidden;fillColor=none;top=0;left=0;bottom=0;right=0;pointerEvents=1;labelBackgroundColor=none;" vertex="1" parent="wJfe7nU85D7BIgURsdR2-127">
          <mxGeometry x="120" width="60" height="40" as="geometry">
            <mxRectangle width="60" height="40" as="alternateBounds" />
          </mxGeometry>
        </mxCell>
        <mxCell id="wJfe7nU85D7BIgURsdR2-131" value="" style="shape=tableRow;horizontal=0;startSize=0;swimlaneHead=0;swimlaneBody=0;top=0;left=0;bottom=0;right=0;collapsible=0;dropTarget=0;fillColor=none;points=[[0,0.5],[1,0.5]];portConstraint=eastwest;labelBackgroundColor=none;" vertex="1" parent="wJfe7nU85D7BIgURsdR2-126">
          <mxGeometry y="40" width="180" height="40" as="geometry" />
        </mxCell>
        <mxCell id="wJfe7nU85D7BIgURsdR2-132" value="1" style="shape=partialRectangle;html=1;whiteSpace=wrap;connectable=0;overflow=hidden;fillColor=none;top=0;left=0;bottom=0;right=0;pointerEvents=1;labelBackgroundColor=none;" vertex="1" parent="wJfe7nU85D7BIgURsdR2-131">
          <mxGeometry width="60" height="40" as="geometry">
            <mxRectangle width="60" height="40" as="alternateBounds" />
          </mxGeometry>
        </mxCell>
        <mxCell id="wJfe7nU85D7BIgURsdR2-133" value="2" style="shape=partialRectangle;html=1;whiteSpace=wrap;connectable=0;overflow=hidden;fillColor=none;top=0;left=0;bottom=0;right=0;pointerEvents=1;labelBackgroundColor=none;" vertex="1" parent="wJfe7nU85D7BIgURsdR2-131">
          <mxGeometry x="60" width="60" height="40" as="geometry">
            <mxRectangle width="60" height="40" as="alternateBounds" />
          </mxGeometry>
        </mxCell>
        <mxCell id="wJfe7nU85D7BIgURsdR2-134" value="-" style="shape=partialRectangle;html=1;whiteSpace=wrap;connectable=0;overflow=hidden;fillColor=none;top=0;left=0;bottom=0;right=0;pointerEvents=1;labelBackgroundColor=none;" vertex="1" parent="wJfe7nU85D7BIgURsdR2-131">
          <mxGeometry x="120" width="60" height="40" as="geometry">
            <mxRectangle width="60" height="40" as="alternateBounds" />
          </mxGeometry>
        </mxCell>
        <mxCell id="wJfe7nU85D7BIgURsdR2-135" value="" style="shape=tableRow;horizontal=0;startSize=0;swimlaneHead=0;swimlaneBody=0;top=0;left=0;bottom=0;right=0;collapsible=0;dropTarget=0;fillColor=none;points=[[0,0.5],[1,0.5]];portConstraint=eastwest;labelBackgroundColor=none;" vertex="1" parent="wJfe7nU85D7BIgURsdR2-126">
          <mxGeometry y="80" width="180" height="40" as="geometry" />
        </mxCell>
        <mxCell id="wJfe7nU85D7BIgURsdR2-136" value="2" style="shape=partialRectangle;html=1;whiteSpace=wrap;connectable=0;overflow=hidden;fillColor=none;top=0;left=0;bottom=0;right=0;pointerEvents=1;labelBackgroundColor=none;" vertex="1" parent="wJfe7nU85D7BIgURsdR2-135">
          <mxGeometry width="60" height="40" as="geometry">
            <mxRectangle width="60" height="40" as="alternateBounds" />
          </mxGeometry>
        </mxCell>
        <mxCell id="wJfe7nU85D7BIgURsdR2-137" value="-" style="shape=partialRectangle;html=1;whiteSpace=wrap;connectable=0;overflow=hidden;fillColor=none;top=0;left=0;bottom=0;right=0;pointerEvents=1;labelBackgroundColor=none;" vertex="1" parent="wJfe7nU85D7BIgURsdR2-135">
          <mxGeometry x="60" width="60" height="40" as="geometry">
            <mxRectangle width="60" height="40" as="alternateBounds" />
          </mxGeometry>
        </mxCell>
        <mxCell id="wJfe7nU85D7BIgURsdR2-138" value="1" style="shape=partialRectangle;html=1;whiteSpace=wrap;connectable=0;overflow=hidden;fillColor=none;top=0;left=0;bottom=0;right=0;pointerEvents=1;labelBackgroundColor=none;" vertex="1" parent="wJfe7nU85D7BIgURsdR2-135">
          <mxGeometry x="120" width="60" height="40" as="geometry">
            <mxRectangle width="60" height="40" as="alternateBounds" />
          </mxGeometry>
        </mxCell>
        <mxCell id="wJfe7nU85D7BIgURsdR2-139" value="&lt;font style=&quot;font-size: 20px;&quot;&gt;&lt;b&gt;Индикатор приготовления&lt;/b&gt;&lt;/font&gt;" style="text;html=1;align=center;verticalAlign=middle;whiteSpace=wrap;rounded=0;labelBackgroundColor=none;" vertex="1" parent="1">
          <mxGeometry x="196.5" y="1700" width="320" height="30" as="geometry" />
        </mxCell>
        <mxCell id="wJfe7nU85D7BIgURsdR2-140" value="" style="endArrow=classic;html=1;rounded=0;labelBackgroundColor=none;fontColor=default;" edge="1" parent="1">
          <mxGeometry width="50" height="50" relative="1" as="geometry">
            <mxPoint x="130" y="1690" as="sourcePoint" />
            <mxPoint x="130" y="1760" as="targetPoint" />
          </mxGeometry>
        </mxCell>
      </root>
    </mxGraphModel>
  </diagram>
  <diagram name="МВО" id="OTtFf0bKPMHqj_aBwreE">
    <mxGraphModel grid="1" page="1" gridSize="10" guides="1" tooltips="1" connect="1" arrows="1" fold="1" pageScale="1" pageWidth="827" pageHeight="1169" math="0" shadow="0">
      <root>
        <mxCell id="0" />
        <mxCell id="1" parent="0" />
        <mxCell id="bq7hR0FgS6wlqoZna40s-2" style="edgeStyle=orthogonalEdgeStyle;rounded=0;orthogonalLoop=1;jettySize=auto;html=1;entryX=0.5;entryY=0;entryDx=0;entryDy=0;exitX=0.01;exitY=0.377;exitDx=0;exitDy=0;labelBackgroundColor=none;fontColor=default;exitPerimeter=0;" edge="1" parent="1" source="Vfu6OBMB87fygliHcBvU-1" target="PThf3ngzuTzbP_xElSIa-1">
          <mxGeometry relative="1" as="geometry">
            <Array as="points">
              <mxPoint x="288" y="80" />
              <mxPoint x="30" y="80" />
            </Array>
          </mxGeometry>
        </mxCell>
        <mxCell id="4-TmSXPJYHdWITlh-lSH-2" value="&lt;font style=&quot;font-size: 14px;&quot;&gt;Э2&lt;/font&gt;" style="edgeLabel;html=1;align=center;verticalAlign=middle;resizable=0;points=[];" connectable="0" vertex="1" parent="bq7hR0FgS6wlqoZna40s-2">
          <mxGeometry x="0.0437" relative="1" as="geometry">
            <mxPoint as="offset" />
          </mxGeometry>
        </mxCell>
        <mxCell id="VExzsnRiJw3uKKd4sotS-2" style="edgeStyle=orthogonalEdgeStyle;rounded=0;orthogonalLoop=1;jettySize=auto;html=1;entryX=0.297;entryY=0.046;entryDx=0;entryDy=0;entryPerimeter=0;" edge="1" parent="1" source="Vfu6OBMB87fygliHcBvU-1" target="VExzsnRiJw3uKKd4sotS-1">
          <mxGeometry relative="1" as="geometry">
            <Array as="points">
              <mxPoint x="223" y="90" />
              <mxPoint x="223" y="140" />
            </Array>
          </mxGeometry>
        </mxCell>
        <mxCell id="VExzsnRiJw3uKKd4sotS-3" value="&lt;font style=&quot;font-size: 14px;&quot;&gt;T1, T2, T3, T5&lt;/font&gt;" style="edgeLabel;html=1;align=center;verticalAlign=middle;resizable=0;points=[];" vertex="1" connectable="0" parent="VExzsnRiJw3uKKd4sotS-2">
          <mxGeometry x="0.6012" relative="1" as="geometry">
            <mxPoint y="-28" as="offset" />
          </mxGeometry>
        </mxCell>
        <mxCell id="fFE1cpATKzG0pvTzld5l-3" style="edgeStyle=orthogonalEdgeStyle;rounded=0;orthogonalLoop=1;jettySize=auto;html=1;entryX=0;entryY=0.5;entryDx=0;entryDy=0;exitX=0.421;exitY=0.965;exitDx=0;exitDy=0;exitPerimeter=0;" edge="1" parent="1" source="Vfu6OBMB87fygliHcBvU-1" target="fFE1cpATKzG0pvTzld5l-1">
          <mxGeometry relative="1" as="geometry" />
        </mxCell>
        <mxCell id="fFE1cpATKzG0pvTzld5l-4" value="&lt;font style=&quot;font-size: 15px;&quot;&gt;И1, И2&lt;/font&gt;" style="edgeLabel;html=1;align=center;verticalAlign=middle;resizable=0;points=[];" vertex="1" connectable="0" parent="fFE1cpATKzG0pvTzld5l-3">
          <mxGeometry x="-0.1524" relative="1" as="geometry">
            <mxPoint as="offset" />
          </mxGeometry>
        </mxCell>
        <mxCell id="Vfu6OBMB87fygliHcBvU-1" value="&lt;font style=&quot;font-size: 17px;&quot;&gt;Вафельница&lt;/font&gt;" style="ellipse;whiteSpace=wrap;html=1;labelBackgroundColor=none;" vertex="1" parent="1">
          <mxGeometry x="288" y="50" width="176" height="80" as="geometry" />
        </mxCell>
        <mxCell id="PThf3ngzuTzbP_xElSIa-1" value="&lt;font style=&quot;font-size: 15px;&quot;&gt;Электронагреватель&lt;/font&gt;" style="ellipse;whiteSpace=wrap;html=1;labelBackgroundColor=none;" vertex="1" parent="1">
          <mxGeometry x="-100" y="200" width="180" height="80" as="geometry" />
        </mxCell>
        <mxCell id="hZor8aOesRWTUhpIG4PY-1" style="edgeStyle=orthogonalEdgeStyle;rounded=0;orthogonalLoop=1;jettySize=auto;html=1;labelBackgroundColor=none;fontColor=default;" edge="1" parent="1" source="PThf3ngzuTzbP_xElSIa-2" target="Vfu6OBMB87fygliHcBvU-1">
          <mxGeometry relative="1" as="geometry">
            <Array as="points">
              <mxPoint x="640" y="150" />
              <mxPoint x="376" y="150" />
            </Array>
          </mxGeometry>
        </mxCell>
        <mxCell id="4-TmSXPJYHdWITlh-lSH-1" value="&lt;font style=&quot;font-size: 14px;&quot;&gt;С1, С2&lt;/font&gt;" style="edgeLabel;html=1;align=center;verticalAlign=middle;resizable=0;points=[];" connectable="0" vertex="1" parent="hZor8aOesRWTUhpIG4PY-1">
          <mxGeometry x="0.0195" relative="1" as="geometry">
            <mxPoint as="offset" />
          </mxGeometry>
        </mxCell>
        <mxCell id="PThf3ngzuTzbP_xElSIa-2" value="&lt;font style=&quot;font-size: 15px;&quot;&gt;Вилка&lt;/font&gt;" style="ellipse;whiteSpace=wrap;html=1;labelBackgroundColor=none;" vertex="1" parent="1">
          <mxGeometry x="550" y="200" width="130" height="80" as="geometry" />
        </mxCell>
        <mxCell id="Da99-eEdUNzAC-9l4UmY-1" style="edgeStyle=orthogonalEdgeStyle;rounded=0;orthogonalLoop=1;jettySize=auto;html=1;entryX=1;entryY=0.5;entryDx=0;entryDy=0;labelBackgroundColor=none;fontColor=default;" edge="1" parent="1" source="oIf5UVNFSvHtEh49Biqo-1" target="Vfu6OBMB87fygliHcBvU-1">
          <mxGeometry relative="1" as="geometry">
            <Array as="points">
              <mxPoint x="750" y="90" />
            </Array>
          </mxGeometry>
        </mxCell>
        <mxCell id="c7Z771N7kakBp39lQ27g-3" value="&lt;font style=&quot;font-size: 14px;&quot;&gt;С3, С4&lt;/font&gt;" style="edgeLabel;html=1;align=center;verticalAlign=middle;resizable=0;points=[];" connectable="0" vertex="1" parent="Da99-eEdUNzAC-9l4UmY-1">
          <mxGeometry x="-0.4349" y="1" relative="1" as="geometry">
            <mxPoint as="offset" />
          </mxGeometry>
        </mxCell>
        <mxCell id="oIf5UVNFSvHtEh49Biqo-1" value="&lt;font style=&quot;font-size: 15px;&quot;&gt;Панель&lt;/font&gt;&lt;div&gt;&lt;font style=&quot;font-size: 15px;&quot;&gt;управления&lt;/font&gt;&lt;/div&gt;" style="ellipse;whiteSpace=wrap;html=1;labelBackgroundColor=none;" vertex="1" parent="1">
          <mxGeometry x="690" y="200" width="130" height="80" as="geometry" />
        </mxCell>
        <mxCell id="oIf5UVNFSvHtEh49Biqo-12" style="edgeStyle=orthogonalEdgeStyle;rounded=0;orthogonalLoop=1;jettySize=auto;html=1;labelBackgroundColor=none;fontColor=default;" edge="1" parent="1" source="oIf5UVNFSvHtEh49Biqo-2" target="oIf5UVNFSvHtEh49Biqo-1">
          <mxGeometry relative="1" as="geometry" />
        </mxCell>
        <mxCell id="c7Z771N7kakBp39lQ27g-4" value="&lt;font style=&quot;font-size: 15px;&quot;&gt;П1, П2&lt;/font&gt;" style="edgeLabel;html=1;align=center;verticalAlign=middle;resizable=0;points=[];" connectable="0" vertex="1" parent="oIf5UVNFSvHtEh49Biqo-12">
          <mxGeometry x="0.6789" y="-4" relative="1" as="geometry">
            <mxPoint as="offset" />
          </mxGeometry>
        </mxCell>
        <mxCell id="oIf5UVNFSvHtEh49Biqo-13" style="edgeStyle=orthogonalEdgeStyle;rounded=0;orthogonalLoop=1;jettySize=auto;html=1;entryX=0.5;entryY=1;entryDx=0;entryDy=0;labelBackgroundColor=none;fontColor=default;" edge="1" parent="1" source="oIf5UVNFSvHtEh49Biqo-2" target="PThf3ngzuTzbP_xElSIa-2">
          <mxGeometry relative="1" as="geometry" />
        </mxCell>
        <mxCell id="c7Z771N7kakBp39lQ27g-5" value="&lt;font style=&quot;font-size: 14px;&quot;&gt;В1, В2&lt;/font&gt;" style="edgeLabel;html=1;align=center;verticalAlign=middle;resizable=0;points=[];" connectable="0" vertex="1" parent="oIf5UVNFSvHtEh49Biqo-13">
          <mxGeometry x="0.6485" relative="1" as="geometry">
            <mxPoint as="offset" />
          </mxGeometry>
        </mxCell>
        <mxCell id="oIf5UVNFSvHtEh49Biqo-2" value="&lt;font style=&quot;font-size: 14px;&quot;&gt;Пользователь&lt;/font&gt;" style="rounded=0;whiteSpace=wrap;html=1;labelBackgroundColor=none;" vertex="1" parent="1">
          <mxGeometry x="610" y="400" width="180" height="60" as="geometry" />
        </mxCell>
        <mxCell id="oIf5UVNFSvHtEh49Biqo-7" style="edgeStyle=orthogonalEdgeStyle;rounded=0;orthogonalLoop=1;jettySize=auto;html=1;exitX=0.5;exitY=1;exitDx=0;exitDy=0;labelBackgroundColor=none;fontColor=default;" edge="1" parent="1">
          <mxGeometry relative="1" as="geometry">
            <mxPoint x="358" y="160" as="sourcePoint" />
            <mxPoint x="358" y="160" as="targetPoint" />
          </mxGeometry>
        </mxCell>
        <mxCell id="8yWl8e7g7S8pnMCj6NYd-1" style="edgeStyle=orthogonalEdgeStyle;rounded=0;orthogonalLoop=1;jettySize=auto;html=1;entryX=0;entryY=1;entryDx=0;entryDy=0;" edge="1" parent="1" source="VExzsnRiJw3uKKd4sotS-1" target="fFE1cpATKzG0pvTzld5l-1">
          <mxGeometry relative="1" as="geometry" />
        </mxCell>
        <mxCell id="8yWl8e7g7S8pnMCj6NYd-2" value="&lt;font style=&quot;font-size: 15px;&quot;&gt;И1&lt;/font&gt;" style="edgeLabel;html=1;align=center;verticalAlign=middle;resizable=0;points=[];" connectable="0" vertex="1" parent="8yWl8e7g7S8pnMCj6NYd-1">
          <mxGeometry x="-0.1129" relative="1" as="geometry">
            <mxPoint as="offset" />
          </mxGeometry>
        </mxCell>
        <mxCell id="8yWl8e7g7S8pnMCj6NYd-3" style="edgeStyle=orthogonalEdgeStyle;rounded=0;orthogonalLoop=1;jettySize=auto;html=1;entryX=0;entryY=1;entryDx=0;entryDy=0;" edge="1" parent="1" source="VExzsnRiJw3uKKd4sotS-1" target="oIf5UVNFSvHtEh49Biqo-1">
          <mxGeometry relative="1" as="geometry">
            <Array as="points">
              <mxPoint x="245" y="300" />
              <mxPoint x="709" y="300" />
            </Array>
          </mxGeometry>
        </mxCell>
        <mxCell id="8yWl8e7g7S8pnMCj6NYd-4" value="&lt;font style=&quot;font-size: 14px;&quot;&gt;П2&lt;/font&gt;" style="edgeLabel;html=1;align=center;verticalAlign=middle;resizable=0;points=[];" connectable="0" vertex="1" parent="8yWl8e7g7S8pnMCj6NYd-3">
          <mxGeometry x="-0.2581" y="-2" relative="1" as="geometry">
            <mxPoint as="offset" />
          </mxGeometry>
        </mxCell>
        <mxCell id="VExzsnRiJw3uKKd4sotS-1" value="&lt;span style=&quot;font-size: 15px;&quot;&gt;Таймер&lt;/span&gt;" style="ellipse;whiteSpace=wrap;html=1;labelBackgroundColor=none;" vertex="1" parent="1">
          <mxGeometry x="190" y="200" width="110" height="80" as="geometry" />
        </mxCell>
        <mxCell id="Fl3UK1UiTeQ-5bk5F7oD-1" style="edgeStyle=orthogonalEdgeStyle;rounded=0;orthogonalLoop=1;jettySize=auto;html=1;entryX=0.25;entryY=0;entryDx=0;entryDy=0;" edge="1" parent="1" source="fFE1cpATKzG0pvTzld5l-1" target="oIf5UVNFSvHtEh49Biqo-2">
          <mxGeometry relative="1" as="geometry">
            <Array as="points">
              <mxPoint x="470" y="370" />
              <mxPoint x="655" y="370" />
            </Array>
          </mxGeometry>
        </mxCell>
        <mxCell id="fFE1cpATKzG0pvTzld5l-1" value="&lt;font style=&quot;font-size: 15px;&quot;&gt;Индикатор готовки&lt;/font&gt;" style="ellipse;whiteSpace=wrap;html=1;labelBackgroundColor=none;" vertex="1" parent="1">
          <mxGeometry x="400" y="200" width="130" height="80" as="geometry" />
        </mxCell>
        <mxCell id="fx6_V7A6E2FUUvjfxFjE-1" style="edgeStyle=orthogonalEdgeStyle;rounded=0;orthogonalLoop=1;jettySize=auto;html=1;exitX=1;exitY=1;exitDx=0;exitDy=0;entryX=0.32;entryY=0.046;entryDx=0;entryDy=0;entryPerimeter=0;" edge="1" parent="1" source="Vfu6OBMB87fygliHcBvU-1" target="oIf5UVNFSvHtEh49Biqo-1">
          <mxGeometry relative="1" as="geometry" />
        </mxCell>
        <mxCell id="Xhvs-Mh-TOOIqzbJl0F8-1" value="&lt;font style=&quot;font-size: 14px;&quot;&gt;П2&lt;/font&gt;" style="edgeLabel;html=1;align=center;verticalAlign=middle;resizable=0;points=[];" connectable="0" vertex="1" parent="fx6_V7A6E2FUUvjfxFjE-1">
          <mxGeometry x="0.3237" y="2" relative="1" as="geometry">
            <mxPoint as="offset" />
          </mxGeometry>
        </mxCell>
        <mxCell id="lfBIoEeem8y5U5LH8HzI-1" style="edgeStyle=orthogonalEdgeStyle;rounded=0;orthogonalLoop=1;jettySize=auto;html=1;exitX=0;exitY=0.5;exitDx=0;exitDy=0;entryX=1;entryY=0.5;entryDx=0;entryDy=0;" edge="1" parent="1" source="VExzsnRiJw3uKKd4sotS-1" target="PThf3ngzuTzbP_xElSIa-1">
          <mxGeometry relative="1" as="geometry" />
        </mxCell>
        <mxCell id="lfBIoEeem8y5U5LH8HzI-2" value="&lt;font style=&quot;font-size: 14px;&quot;&gt;Э1&lt;/font&gt;" style="edgeLabel;html=1;align=center;verticalAlign=middle;resizable=0;points=[];" connectable="0" vertex="1" parent="lfBIoEeem8y5U5LH8HzI-1">
          <mxGeometry x="0.027" y="-1" relative="1" as="geometry">
            <mxPoint as="offset" />
          </mxGeometry>
        </mxCell>
      </root>
    </mxGraphModel>
  </diagram>
  <diagram name="Канал Управления" id="IeNx6hOC-UXBcyXBALGN">
    <mxGraphModel grid="1" page="1" gridSize="10" guides="1" tooltips="1" connect="1" arrows="1" fold="1" pageScale="1" pageWidth="827" pageHeight="1169" math="0" shadow="0" adaptiveColors="auto">
      <root>
        <mxCell id="0" />
        <mxCell id="1" parent="0" />
        <mxCell id="-yaVRX2lsxp-XcFSKAJk-29" value="Вилка" style="rounded=0;whiteSpace=wrap;html=1;strokeWidth=2;labelBackgroundColor=none;" vertex="1" parent="1">
          <mxGeometry x="30" y="20" width="120" height="60" as="geometry" />
        </mxCell>
        <mxCell id="-yaVRX2lsxp-XcFSKAJk-30" value="Вафельница" style="rounded=0;whiteSpace=wrap;html=1;strokeWidth=2;labelBackgroundColor=none;" vertex="1" parent="1">
          <mxGeometry x="190" y="20" width="120" height="60" as="geometry" />
        </mxCell>
        <mxCell id="xwQqBWZy6mt2oXgFwLZM-66" style="edgeStyle=orthogonalEdgeStyle;rounded=0;orthogonalLoop=1;jettySize=auto;html=1;entryX=0.5;entryY=0;entryDx=0;entryDy=0;" edge="1" parent="1" source="-yaVRX2lsxp-XcFSKAJk-31" target="rrz6_y-tvjZpp-3b8Haa-3">
          <mxGeometry relative="1" as="geometry" />
        </mxCell>
        <mxCell id="-yaVRX2lsxp-XcFSKAJk-31" value="Панель управления" style="rounded=0;whiteSpace=wrap;html=1;strokeWidth=2;labelBackgroundColor=none;" vertex="1" parent="1">
          <mxGeometry x="350" y="20" width="120" height="60" as="geometry" />
        </mxCell>
        <mxCell id="-yaVRX2lsxp-XcFSKAJk-33" value="Электронагреватель" style="rounded=0;whiteSpace=wrap;html=1;strokeWidth=2;labelBackgroundColor=none;" vertex="1" parent="1">
          <mxGeometry x="810" y="20" width="120" height="60" as="geometry" />
        </mxCell>
        <mxCell id="wvDoCa5QpcWDkaJyzc1K-1" style="edgeStyle=orthogonalEdgeStyle;rounded=0;orthogonalLoop=1;jettySize=auto;html=1;entryX=0.5;entryY=0;entryDx=0;entryDy=0;" edge="1" parent="1" source="rrz6_y-tvjZpp-3b8Haa-3" target="8IrHcC6sHlPvY5i0vOVl-1">
          <mxGeometry relative="1" as="geometry">
            <Array as="points">
              <mxPoint x="414" y="210" />
              <mxPoint x="414" y="210" />
            </Array>
          </mxGeometry>
        </mxCell>
        <mxCell id="rrz6_y-tvjZpp-3b8Haa-3" value="&lt;font&gt;Мощность не задана&lt;/font&gt;" style="rounded=0;whiteSpace=wrap;html=1;labelBackgroundColor=none;" vertex="1" parent="1">
          <mxGeometry x="350" y="110" width="120" height="60" as="geometry" />
        </mxCell>
        <mxCell id="8IrHcC6sHlPvY5i0vOVl-21" style="edgeStyle=orthogonalEdgeStyle;rounded=0;orthogonalLoop=1;jettySize=auto;html=1;labelBackgroundColor=none;fontColor=default;" edge="1" parent="1" source="yjRtDs9tLxRfpxincapM-2" target="8IrHcC6sHlPvY5i0vOVl-20">
          <mxGeometry relative="1" as="geometry" />
        </mxCell>
        <mxCell id="yjRtDs9tLxRfpxincapM-2" value="Выключен" style="rounded=0;whiteSpace=wrap;html=1;labelBackgroundColor=none;" vertex="1" parent="1">
          <mxGeometry x="810" y="110" width="120" height="60" as="geometry" />
        </mxCell>
        <mxCell id="yjRtDs9tLxRfpxincapM-3" value="Включена в сеть" style="rounded=0;whiteSpace=wrap;html=1;labelBackgroundColor=none;" vertex="1" parent="1">
          <mxGeometry x="30" y="110" width="120" height="60" as="geometry" />
        </mxCell>
        <mxCell id="87B2_zmxps0AtsFEGdub-1" style="edgeStyle=orthogonalEdgeStyle;rounded=0;orthogonalLoop=1;jettySize=auto;html=1;entryX=0.5;entryY=0;entryDx=0;entryDy=0;labelBackgroundColor=none;fontColor=default;" edge="1" parent="1" source="yjRtDs9tLxRfpxincapM-17" target="MSWJdDurSQ1XaUoUYs1h-4">
          <mxGeometry relative="1" as="geometry" />
        </mxCell>
        <mxCell id="yjRtDs9tLxRfpxincapM-17" value="Ожидает запуска" style="rounded=0;whiteSpace=wrap;html=1;labelBackgroundColor=none;" vertex="1" parent="1">
          <mxGeometry x="190" y="110" width="120" height="60" as="geometry" />
        </mxCell>
        <mxCell id="Kw9wER47RiiByr30r8BP-2" style="edgeStyle=orthogonalEdgeStyle;rounded=0;orthogonalLoop=1;jettySize=auto;html=1;" edge="1" parent="1" source="MSWJdDurSQ1XaUoUYs1h-4">
          <mxGeometry relative="1" as="geometry">
            <mxPoint x="570" y="324" as="targetPoint" />
          </mxGeometry>
        </mxCell>
        <mxCell id="MSWJdDurSQ1XaUoUYs1h-4" value="&lt;span style=&quot;font-size: 14px;&quot;&gt;Приготовление&lt;/span&gt;" style="rounded=0;whiteSpace=wrap;html=1;labelBackgroundColor=none;" vertex="1" parent="1">
          <mxGeometry x="190" y="294" width="120" height="60" as="geometry" />
        </mxCell>
        <mxCell id="pS0l7Aq2QoBkhpY8-8RY-5" style="edgeStyle=orthogonalEdgeStyle;rounded=0;orthogonalLoop=1;jettySize=auto;html=1;" edge="1" parent="1" source="8IrHcC6sHlPvY5i0vOVl-1">
          <mxGeometry relative="1" as="geometry">
            <mxPoint x="250" y="244" as="targetPoint" />
            <Array as="points">
              <mxPoint x="250" y="244" />
            </Array>
          </mxGeometry>
        </mxCell>
        <mxCell id="0V2O5d_Xxc97DOFz7141-1" style="edgeStyle=orthogonalEdgeStyle;rounded=0;orthogonalLoop=1;jettySize=auto;html=1;" edge="1" parent="1" source="8IrHcC6sHlPvY5i0vOVl-1" target="7vE2mqFnSNuL_LkeZQyY-1">
          <mxGeometry relative="1" as="geometry" />
        </mxCell>
        <mxCell id="8IrHcC6sHlPvY5i0vOVl-1" value="&lt;font&gt;Мощность задана&lt;/font&gt;" style="rounded=0;whiteSpace=wrap;html=1;labelBackgroundColor=none;" vertex="1" parent="1">
          <mxGeometry x="354" y="214" width="120" height="60" as="geometry" />
        </mxCell>
        <mxCell id="8IrHcC6sHlPvY5i0vOVl-24" style="edgeStyle=orthogonalEdgeStyle;rounded=0;orthogonalLoop=1;jettySize=auto;html=1;entryX=0.5;entryY=0;entryDx=0;entryDy=0;labelBackgroundColor=none;fontColor=default;" edge="1" parent="1" source="8IrHcC6sHlPvY5i0vOVl-20" target="8IrHcC6sHlPvY5i0vOVl-23">
          <mxGeometry relative="1" as="geometry" />
        </mxCell>
        <mxCell id="8IrHcC6sHlPvY5i0vOVl-20" value="Включен" style="rounded=0;whiteSpace=wrap;html=1;labelBackgroundColor=none;" vertex="1" parent="1">
          <mxGeometry x="810" y="414" width="120" height="60" as="geometry" />
        </mxCell>
        <mxCell id="8IrHcC6sHlPvY5i0vOVl-23" value="Выключен" style="rounded=0;whiteSpace=wrap;html=1;labelBackgroundColor=none;" vertex="1" parent="1">
          <mxGeometry x="810" y="720" width="120" height="60" as="geometry" />
        </mxCell>
        <mxCell id="pS0l7Aq2QoBkhpY8-8RY-15" value="" style="edgeStyle=orthogonalEdgeStyle;rounded=0;orthogonalLoop=1;jettySize=auto;html=1;entryX=0.5;entryY=0;entryDx=0;entryDy=0;labelBackgroundColor=none;fontColor=default;" edge="1" parent="1" source="MSWJdDurSQ1XaUoUYs1h-4" target="pS0l7Aq2QoBkhpY8-8RY-14">
          <mxGeometry relative="1" as="geometry">
            <mxPoint x="250" y="364" as="sourcePoint" />
            <mxPoint x="250" y="684" as="targetPoint" />
          </mxGeometry>
        </mxCell>
        <mxCell id="xwQqBWZy6mt2oXgFwLZM-3" style="edgeStyle=orthogonalEdgeStyle;rounded=0;orthogonalLoop=1;jettySize=auto;html=1;" edge="1" parent="1" source="pS0l7Aq2QoBkhpY8-8RY-14">
          <mxGeometry relative="1" as="geometry">
            <mxPoint x="730" y="674" as="targetPoint" />
          </mxGeometry>
        </mxCell>
        <mxCell id="xwQqBWZy6mt2oXgFwLZM-4" style="edgeStyle=orthogonalEdgeStyle;rounded=0;orthogonalLoop=1;jettySize=auto;html=1;exitX=1;exitY=0.75;exitDx=0;exitDy=0;" edge="1" parent="1" source="pS0l7Aq2QoBkhpY8-8RY-14">
          <mxGeometry relative="1" as="geometry">
            <mxPoint x="870" y="689" as="targetPoint" />
          </mxGeometry>
        </mxCell>
        <mxCell id="-2DQ-TuSyJZLC8CEQK_O-1" style="edgeStyle=orthogonalEdgeStyle;rounded=0;orthogonalLoop=1;jettySize=auto;html=1;exitX=1;exitY=0.25;exitDx=0;exitDy=0;" edge="1" parent="1" source="pS0l7Aq2QoBkhpY8-8RY-14">
          <mxGeometry relative="1" as="geometry">
            <mxPoint x="570" y="658.9259259259259" as="targetPoint" />
          </mxGeometry>
        </mxCell>
        <mxCell id="pS0l7Aq2QoBkhpY8-8RY-14" value="Ожидает запуска" style="rounded=0;whiteSpace=wrap;html=1;labelBackgroundColor=none;" vertex="1" parent="1">
          <mxGeometry x="190" y="644" width="120" height="60" as="geometry" />
        </mxCell>
        <mxCell id="L0AOPnsEuN8DX3gn7_NO-2" value="Таймер" style="rounded=0;whiteSpace=wrap;html=1;strokeWidth=2;labelBackgroundColor=none;" vertex="1" parent="1">
          <mxGeometry x="510" y="20" width="120" height="60" as="geometry" />
        </mxCell>
        <mxCell id="L0AOPnsEuN8DX3gn7_NO-3" value="Индикатор" style="rounded=0;whiteSpace=wrap;html=1;strokeWidth=2;labelBackgroundColor=none;" vertex="1" parent="1">
          <mxGeometry x="670" y="20" width="120" height="60" as="geometry" />
        </mxCell>
        <mxCell id="Vdr5a4DSqj5sg-mwhtSM-3" style="edgeStyle=orthogonalEdgeStyle;rounded=0;orthogonalLoop=1;jettySize=auto;html=1;" edge="1" parent="1" source="L0AOPnsEuN8DX3gn7_NO-5" target="Vdr5a4DSqj5sg-mwhtSM-2">
          <mxGeometry relative="1" as="geometry" />
        </mxCell>
        <mxCell id="L0AOPnsEuN8DX3gn7_NO-5" value="Выключен" style="rounded=0;whiteSpace=wrap;html=1;labelBackgroundColor=none;" vertex="1" parent="1">
          <mxGeometry x="670" y="110" width="120" height="60" as="geometry" />
        </mxCell>
        <mxCell id="Kw9wER47RiiByr30r8BP-1" style="edgeStyle=orthogonalEdgeStyle;rounded=0;orthogonalLoop=1;jettySize=auto;html=1;" edge="1" parent="1" source="ZNF29OTpaUPmzhOasNad-1">
          <mxGeometry relative="1" as="geometry">
            <mxPoint x="570" y="520" as="targetPoint" />
          </mxGeometry>
        </mxCell>
        <mxCell id="ZNF29OTpaUPmzhOasNad-1" value="Сброшен" style="rounded=0;whiteSpace=wrap;html=1;labelBackgroundColor=none;" vertex="1" parent="1">
          <mxGeometry x="510" y="110" width="120" height="60" as="geometry" />
        </mxCell>
        <mxCell id="Vdr5a4DSqj5sg-mwhtSM-5" style="edgeStyle=orthogonalEdgeStyle;rounded=0;orthogonalLoop=1;jettySize=auto;html=1;entryX=0.5;entryY=0;entryDx=0;entryDy=0;" edge="1" parent="1" source="Vdr5a4DSqj5sg-mwhtSM-2" target="Vdr5a4DSqj5sg-mwhtSM-4">
          <mxGeometry relative="1" as="geometry" />
        </mxCell>
        <mxCell id="Vdr5a4DSqj5sg-mwhtSM-2" value="Включен" style="rounded=0;whiteSpace=wrap;html=1;labelBackgroundColor=none;" vertex="1" parent="1">
          <mxGeometry x="670" y="414" width="120" height="60" as="geometry" />
        </mxCell>
        <mxCell id="Vdr5a4DSqj5sg-mwhtSM-4" value="Выключен" style="rounded=0;whiteSpace=wrap;html=1;labelBackgroundColor=none;" vertex="1" parent="1">
          <mxGeometry x="670" y="720" width="120" height="60" as="geometry" />
        </mxCell>
        <mxCell id="kMv00xWh_1BwuR52SvvS-2" style="edgeStyle=orthogonalEdgeStyle;rounded=0;orthogonalLoop=1;jettySize=auto;html=1;entryX=0.5;entryY=0;entryDx=0;entryDy=0;" edge="1" parent="1" source="Vdr5a4DSqj5sg-mwhtSM-9" target="kMv00xWh_1BwuR52SvvS-1">
          <mxGeometry relative="1" as="geometry" />
        </mxCell>
        <mxCell id="gWy4UK59fA0zi568ue4U-3" style="edgeStyle=orthogonalEdgeStyle;rounded=0;orthogonalLoop=1;jettySize=auto;html=1;exitX=1;exitY=0.5;exitDx=0;exitDy=0;" edge="1" parent="1" source="Vdr5a4DSqj5sg-mwhtSM-9">
          <mxGeometry relative="1" as="geometry">
            <mxPoint x="870" y="388.82352941176464" as="targetPoint" />
          </mxGeometry>
        </mxCell>
        <mxCell id="gWy4UK59fA0zi568ue4U-4" style="edgeStyle=orthogonalEdgeStyle;rounded=0;orthogonalLoop=1;jettySize=auto;html=1;exitX=1;exitY=0.25;exitDx=0;exitDy=0;" edge="1" parent="1" source="Vdr5a4DSqj5sg-mwhtSM-9">
          <mxGeometry relative="1" as="geometry">
            <mxPoint x="730" y="373.52941176470586" as="targetPoint" />
          </mxGeometry>
        </mxCell>
        <mxCell id="Vdr5a4DSqj5sg-mwhtSM-9" value="Отсчитывает время готовки" style="rounded=0;whiteSpace=wrap;html=1;labelBackgroundColor=none;" vertex="1" parent="1">
          <mxGeometry x="510" y="359" width="120" height="60" as="geometry" />
        </mxCell>
        <mxCell id="-2DQ-TuSyJZLC8CEQK_O-7" style="edgeStyle=orthogonalEdgeStyle;rounded=0;orthogonalLoop=1;jettySize=auto;html=1;entryX=0.5;entryY=0;entryDx=0;entryDy=0;" edge="1" parent="1" source="kMv00xWh_1BwuR52SvvS-1" target="-2DQ-TuSyJZLC8CEQK_O-6">
          <mxGeometry relative="1" as="geometry" />
        </mxCell>
        <mxCell id="gWy4UK59fA0zi568ue4U-1" style="edgeStyle=orthogonalEdgeStyle;rounded=0;orthogonalLoop=1;jettySize=auto;html=1;exitX=0;exitY=0.25;exitDx=0;exitDy=0;" edge="1" parent="1" source="kMv00xWh_1BwuR52SvvS-1">
          <mxGeometry relative="1" as="geometry">
            <mxPoint x="410" y="514" as="targetPoint" />
            <Array as="points">
              <mxPoint x="510" y="514" />
              <mxPoint x="410" y="514" />
            </Array>
          </mxGeometry>
        </mxCell>
        <mxCell id="kMv00xWh_1BwuR52SvvS-1" value="Подать сигнал об окончании готовки" style="rounded=0;whiteSpace=wrap;html=1;labelBackgroundColor=none;" vertex="1" parent="1">
          <mxGeometry x="510" y="480" width="120" height="60" as="geometry" />
        </mxCell>
        <mxCell id="8woaSlCvseCAqZsOnPPg-9" style="edgeStyle=orthogonalEdgeStyle;rounded=0;orthogonalLoop=1;jettySize=auto;html=1;" edge="1" parent="1" source="7vE2mqFnSNuL_LkeZQyY-1">
          <mxGeometry relative="1" as="geometry">
            <mxPoint x="250" y="584" as="targetPoint" />
          </mxGeometry>
        </mxCell>
        <mxCell id="7vE2mqFnSNuL_LkeZQyY-1" value="&lt;font&gt;Мощность не задана&lt;/font&gt;" style="rounded=0;whiteSpace=wrap;html=1;labelBackgroundColor=none;" vertex="1" parent="1">
          <mxGeometry x="354" y="555" width="120" height="60" as="geometry" />
        </mxCell>
        <mxCell id="xwQqBWZy6mt2oXgFwLZM-6" style="edgeStyle=orthogonalEdgeStyle;rounded=0;orthogonalLoop=1;jettySize=auto;html=1;entryX=0.5;entryY=0;entryDx=0;entryDy=0;" edge="1" parent="1" source="xwQqBWZy6mt2oXgFwLZM-7" target="xwQqBWZy6mt2oXgFwLZM-12">
          <mxGeometry relative="1" as="geometry" />
        </mxCell>
        <mxCell id="xwQqBWZy6mt2oXgFwLZM-7" value="Вилка" style="rounded=0;whiteSpace=wrap;html=1;strokeWidth=2;labelBackgroundColor=none;" vertex="1" parent="1">
          <mxGeometry x="1080" y="20" width="120" height="60" as="geometry" />
        </mxCell>
        <mxCell id="xwQqBWZy6mt2oXgFwLZM-8" value="Вафельница" style="rounded=0;whiteSpace=wrap;html=1;strokeWidth=2;labelBackgroundColor=none;" vertex="1" parent="1">
          <mxGeometry x="1240" y="20" width="120" height="60" as="geometry" />
        </mxCell>
        <mxCell id="xwQqBWZy6mt2oXgFwLZM-11" style="edgeStyle=orthogonalEdgeStyle;rounded=0;orthogonalLoop=1;jettySize=auto;html=1;" edge="1" parent="1" source="xwQqBWZy6mt2oXgFwLZM-12" target="xwQqBWZy6mt2oXgFwLZM-22">
          <mxGeometry relative="1" as="geometry" />
        </mxCell>
        <mxCell id="xwQqBWZy6mt2oXgFwLZM-12" value="Отключена от сети" style="rounded=0;whiteSpace=wrap;html=1;labelBackgroundColor=none;" vertex="1" parent="1">
          <mxGeometry x="1080" y="110" width="120" height="60" as="geometry" />
        </mxCell>
        <mxCell id="xwQqBWZy6mt2oXgFwLZM-13" style="edgeStyle=orthogonalEdgeStyle;rounded=0;orthogonalLoop=1;jettySize=auto;html=1;labelBackgroundColor=none;fontColor=default;" edge="1" parent="1" source="xwQqBWZy6mt2oXgFwLZM-14" target="xwQqBWZy6mt2oXgFwLZM-27">
          <mxGeometry relative="1" as="geometry" />
        </mxCell>
        <mxCell id="xwQqBWZy6mt2oXgFwLZM-14" value="Выключена" style="rounded=0;whiteSpace=wrap;html=1;labelBackgroundColor=none;" vertex="1" parent="1">
          <mxGeometry x="1240" y="110" width="120" height="60" as="geometry" />
        </mxCell>
        <mxCell id="xwQqBWZy6mt2oXgFwLZM-19" style="edgeStyle=orthogonalEdgeStyle;rounded=0;orthogonalLoop=1;jettySize=auto;html=1;labelBackgroundColor=none;fontColor=default;" edge="1" parent="1" source="xwQqBWZy6mt2oXgFwLZM-22">
          <mxGeometry relative="1" as="geometry">
            <mxPoint x="1300" y="250" as="targetPoint" />
          </mxGeometry>
        </mxCell>
        <mxCell id="xwQqBWZy6mt2oXgFwLZM-22" value="Включена в сеть" style="rounded=0;whiteSpace=wrap;html=1;labelBackgroundColor=none;" vertex="1" parent="1">
          <mxGeometry x="1080" y="220" width="120" height="60" as="geometry" />
        </mxCell>
        <mxCell id="qYdKFr3F2_6xi02HfjdM-1" style="edgeStyle=orthogonalEdgeStyle;rounded=0;orthogonalLoop=1;jettySize=auto;html=1;" edge="1" parent="1" source="xwQqBWZy6mt2oXgFwLZM-27">
          <mxGeometry relative="1" as="geometry">
            <mxPoint x="1770" y="300" as="targetPoint" />
          </mxGeometry>
        </mxCell>
        <mxCell id="xwQqBWZy6mt2oXgFwLZM-27" value="Ожидает запуска" style="rounded=0;whiteSpace=wrap;html=1;labelBackgroundColor=none;" vertex="1" parent="1">
          <mxGeometry x="1240" y="270" width="120" height="60" as="geometry" />
        </mxCell>
        <mxCell id="xwQqBWZy6mt2oXgFwLZM-72" value="Панель управления" style="rounded=0;whiteSpace=wrap;html=1;strokeWidth=2;labelBackgroundColor=none;" vertex="1" parent="1">
          <mxGeometry x="1390" y="20" width="120" height="60" as="geometry" />
        </mxCell>
        <mxCell id="xwQqBWZy6mt2oXgFwLZM-73" value="Электронагреватель" style="rounded=0;whiteSpace=wrap;html=1;strokeWidth=2;labelBackgroundColor=none;" vertex="1" parent="1">
          <mxGeometry x="1850" y="20" width="120" height="60" as="geometry" />
        </mxCell>
        <mxCell id="xwQqBWZy6mt2oXgFwLZM-74" value="&lt;font&gt;Мощность не задана&lt;/font&gt;" style="rounded=0;whiteSpace=wrap;html=1;labelBackgroundColor=none;" vertex="1" parent="1">
          <mxGeometry x="1390" y="110" width="120" height="60" as="geometry" />
        </mxCell>
        <mxCell id="xwQqBWZy6mt2oXgFwLZM-75" value="Выключен" style="rounded=0;whiteSpace=wrap;html=1;labelBackgroundColor=none;" vertex="1" parent="1">
          <mxGeometry x="1850" y="110" width="120" height="60" as="geometry" />
        </mxCell>
        <mxCell id="xwQqBWZy6mt2oXgFwLZM-76" value="Таймер" style="rounded=0;whiteSpace=wrap;html=1;strokeWidth=2;labelBackgroundColor=none;" vertex="1" parent="1">
          <mxGeometry x="1550" y="20" width="120" height="60" as="geometry" />
        </mxCell>
        <mxCell id="xwQqBWZy6mt2oXgFwLZM-77" value="Индикатор" style="rounded=0;whiteSpace=wrap;html=1;strokeWidth=2;labelBackgroundColor=none;" vertex="1" parent="1">
          <mxGeometry x="1710" y="20" width="120" height="60" as="geometry" />
        </mxCell>
        <mxCell id="xwQqBWZy6mt2oXgFwLZM-78" value="Выключен" style="rounded=0;whiteSpace=wrap;html=1;labelBackgroundColor=none;" vertex="1" parent="1">
          <mxGeometry x="1550" y="110" width="120" height="60" as="geometry" />
        </mxCell>
        <mxCell id="Kw9wER47RiiByr30r8BP-4" style="edgeStyle=orthogonalEdgeStyle;rounded=0;orthogonalLoop=1;jettySize=auto;html=1;" edge="1" parent="1" source="xwQqBWZy6mt2oXgFwLZM-79" target="Kw9wER47RiiByr30r8BP-3">
          <mxGeometry relative="1" as="geometry" />
        </mxCell>
        <mxCell id="xwQqBWZy6mt2oXgFwLZM-79" value="Выключен" style="rounded=0;whiteSpace=wrap;html=1;labelBackgroundColor=none;" vertex="1" parent="1">
          <mxGeometry x="1710" y="110" width="120" height="60" as="geometry" />
        </mxCell>
        <mxCell id="-2DQ-TuSyJZLC8CEQK_O-6" value="Сброшен" style="rounded=0;whiteSpace=wrap;html=1;labelBackgroundColor=none;" vertex="1" parent="1">
          <mxGeometry x="510" y="720" width="120" height="60" as="geometry" />
        </mxCell>
        <mxCell id="Kw9wER47RiiByr30r8BP-3" value="Сброшен" style="rounded=0;whiteSpace=wrap;html=1;labelBackgroundColor=none;" vertex="1" parent="1">
          <mxGeometry x="1710" y="330" width="120" height="60" as="geometry" />
        </mxCell>
      </root>
    </mxGraphModel>
  </diagram>
  <diagram name="ДПДД" id="Ba2TiLJJKMMLkP9Yh7CK">
    <mxGraphModel grid="1" page="1" gridSize="10" guides="1" tooltips="1" connect="1" arrows="1" fold="1" pageScale="1" pageWidth="827" pageHeight="1169" math="0" shadow="0">
      <root>
        <mxCell id="0" />
        <mxCell id="1" parent="0" />
        <mxCell id="KzurcuNZsRSPmzHi2wHg-1" value="&lt;font style=&quot;font-size: 22px;&quot; face=&quot;Times New Roman&quot;&gt;&lt;b style=&quot;&quot;&gt;1. Выключена&lt;/b&gt;&lt;/font&gt;" style="text;html=1;align=center;verticalAlign=middle;whiteSpace=wrap;rounded=0;labelBackgroundColor=none;" vertex="1" parent="1">
          <mxGeometry x="-620" y="130" width="170" height="30" as="geometry" />
        </mxCell>
        <mxCell id="KzurcuNZsRSPmzHi2wHg-2" value="" style="verticalLabelPosition=bottom;verticalAlign=top;html=1;shape=mxgraph.basic.frame;dx=10;whiteSpace=wrap;labelBackgroundColor=none;" vertex="1" parent="1">
          <mxGeometry x="-700" y="280" width="100" height="60" as="geometry" />
        </mxCell>
        <mxCell id="KzurcuNZsRSPmzHi2wHg-3" value="&lt;font style=&quot;font-size: 14px;&quot; face=&quot;Times New Roman&quot;&gt;Вафельница&lt;/font&gt;" style="text;html=1;align=center;verticalAlign=middle;whiteSpace=wrap;rounded=0;labelBackgroundColor=none;" vertex="1" parent="1">
          <mxGeometry x="-680" y="295" width="60" height="30" as="geometry" />
        </mxCell>
        <mxCell id="uLU99d3s7XBJEIJOx_Uw-23" style="edgeStyle=orthogonalEdgeStyle;rounded=0;orthogonalLoop=1;jettySize=auto;html=1;entryX=0.5;entryY=0;entryDx=0;entryDy=0;dashed=1;" edge="1" parent="1" source="KzurcuNZsRSPmzHi2wHg-4" target="KzurcuNZsRSPmzHi2wHg-23">
          <mxGeometry relative="1" as="geometry" />
        </mxCell>
        <mxCell id="KzurcuNZsRSPmzHi2wHg-4" value="С1.1 Получить состояние" style="ellipse;whiteSpace=wrap;html=1;labelBackgroundColor=none;" vertex="1" parent="1">
          <mxGeometry x="-530" y="270" width="120" height="80" as="geometry" />
        </mxCell>
        <mxCell id="KzurcuNZsRSPmzHi2wHg-8" value="С1.0 Принять событие" style="ellipse;whiteSpace=wrap;html=1;labelBackgroundColor=none;" vertex="1" parent="1">
          <mxGeometry x="-350" y="140" width="120" height="80" as="geometry" />
        </mxCell>
        <mxCell id="KzurcuNZsRSPmzHi2wHg-9" value="" style="endArrow=classic;html=1;rounded=0;entryX=0.5;entryY=0;entryDx=0;entryDy=0;labelBackgroundColor=none;fontColor=default;" edge="1" parent="1" target="KzurcuNZsRSPmzHi2wHg-8">
          <mxGeometry width="50" height="50" relative="1" as="geometry">
            <mxPoint x="-290" y="70" as="sourcePoint" />
            <mxPoint x="-310" y="20" as="targetPoint" />
          </mxGeometry>
        </mxCell>
        <mxCell id="KzurcuNZsRSPmzHi2wHg-10" value="&lt;font style=&quot;font-size: 14px;&quot; face=&quot;Times New Roman&quot;&gt;С2&lt;/font&gt;" style="edgeLabel;html=1;align=center;verticalAlign=middle;resizable=0;points=[];labelBackgroundColor=none;" connectable="0" vertex="1" parent="KzurcuNZsRSPmzHi2wHg-9">
          <mxGeometry x="-0.5762" y="2" relative="1" as="geometry">
            <mxPoint x="8" y="15" as="offset" />
          </mxGeometry>
        </mxCell>
        <mxCell id="KzurcuNZsRSPmzHi2wHg-11" value="&lt;span style=&quot;font-family: &amp;quot;Times New Roman&amp;quot;; font-size: 14px;&quot;&gt;Данные события&lt;/span&gt;" style="endArrow=classic;html=1;rounded=0;exitX=1;exitY=0.5;exitDx=0;exitDy=0;entryX=1;entryY=0;entryDx=0;entryDy=0;labelBackgroundColor=none;fontColor=default;" edge="1" parent="1" source="KzurcuNZsRSPmzHi2wHg-8" target="KzurcuNZsRSPmzHi2wHg-27">
          <mxGeometry width="50" height="50" relative="1" as="geometry">
            <mxPoint x="-420" y="310" as="sourcePoint" />
            <mxPoint x="-164" y="700" as="targetPoint" />
            <Array as="points">
              <mxPoint x="-164" y="180" />
              <mxPoint x="-164" y="682" />
            </Array>
          </mxGeometry>
        </mxCell>
        <mxCell id="KzurcuNZsRSPmzHi2wHg-13" value="" style="endArrow=classic;html=1;rounded=0;exitX=1;exitY=0.5;exitDx=0;exitDy=0;exitPerimeter=0;labelBackgroundColor=none;fontColor=default;" edge="1" parent="1" source="KzurcuNZsRSPmzHi2wHg-2" target="KzurcuNZsRSPmzHi2wHg-4">
          <mxGeometry width="50" height="50" relative="1" as="geometry">
            <mxPoint x="-550" y="460" as="sourcePoint" />
            <mxPoint x="-500" y="410" as="targetPoint" />
            <Array as="points">
              <mxPoint x="-570" y="310" />
            </Array>
          </mxGeometry>
        </mxCell>
        <mxCell id="KzurcuNZsRSPmzHi2wHg-14" value="&lt;font style=&quot;font-size: 12px;&quot; face=&quot;Times New Roman&quot;&gt;Состояние С&lt;/font&gt;" style="edgeLabel;html=1;align=center;verticalAlign=middle;resizable=0;points=[];labelBackgroundColor=none;" connectable="0" vertex="1" parent="KzurcuNZsRSPmzHi2wHg-13">
          <mxGeometry x="-0.2524" relative="1" as="geometry">
            <mxPoint x="14" y="-40" as="offset" />
          </mxGeometry>
        </mxCell>
        <mxCell id="KzurcuNZsRSPmzHi2wHg-15" value="" style="endArrow=classic;html=1;rounded=0;exitX=1;exitY=0.5;exitDx=0;exitDy=0;entryX=0.569;entryY=-0.034;entryDx=0;entryDy=0;labelBackgroundColor=none;fontColor=default;entryPerimeter=0;" edge="1" parent="1" source="KzurcuNZsRSPmzHi2wHg-4" target="KzurcuNZsRSPmzHi2wHg-27">
          <mxGeometry width="50" height="50" relative="1" as="geometry">
            <mxPoint x="-400" y="370" as="sourcePoint" />
            <mxPoint x="-350" y="310" as="targetPoint" />
            <Array as="points">
              <mxPoint x="-280" y="310" />
            </Array>
          </mxGeometry>
        </mxCell>
        <mxCell id="KzurcuNZsRSPmzHi2wHg-16" value="&lt;font style=&quot;font-size: 12px;&quot; face=&quot;Times New Roman&quot;&gt;Состояние С&lt;/font&gt;" style="edgeLabel;html=1;align=center;verticalAlign=middle;resizable=0;points=[];labelBackgroundColor=none;" connectable="0" vertex="1" parent="KzurcuNZsRSPmzHi2wHg-15">
          <mxGeometry x="-0.2524" relative="1" as="geometry">
            <mxPoint x="1" y="97" as="offset" />
          </mxGeometry>
        </mxCell>
        <mxCell id="KzurcuNZsRSPmzHi2wHg-17" value="" style="endArrow=classic;html=1;rounded=0;exitX=0;exitY=0.5;exitDx=0;exitDy=0;entryX=0.5;entryY=1;entryDx=0;entryDy=0;entryPerimeter=0;labelBackgroundColor=none;fontColor=default;" edge="1" parent="1" source="KzurcuNZsRSPmzHi2wHg-26" target="KzurcuNZsRSPmzHi2wHg-2">
          <mxGeometry width="50" height="50" relative="1" as="geometry">
            <mxPoint x="-480" y="579.1700000000001" as="sourcePoint" />
            <mxPoint x="-420" y="579.1700000000001" as="targetPoint" />
            <Array as="points">
              <mxPoint x="-650" y="600" />
            </Array>
          </mxGeometry>
        </mxCell>
        <mxCell id="KzurcuNZsRSPmzHi2wHg-18" value="&lt;font style=&quot;font-size: 12px;&quot; face=&quot;Times New Roman&quot;&gt;Состояние С&lt;/font&gt;" style="edgeLabel;html=1;align=center;verticalAlign=middle;resizable=0;points=[];labelBackgroundColor=none;" connectable="0" vertex="1" parent="KzurcuNZsRSPmzHi2wHg-17">
          <mxGeometry x="-0.2524" relative="1" as="geometry">
            <mxPoint x="70" y="-6" as="offset" />
          </mxGeometry>
        </mxCell>
        <mxCell id="KzurcuNZsRSPmzHi2wHg-19" style="edgeStyle=orthogonalEdgeStyle;rounded=0;orthogonalLoop=1;jettySize=auto;html=1;exitX=0.5;exitY=1;exitDx=0;exitDy=0;entryX=0.5;entryY=0;entryDx=0;entryDy=0;labelBackgroundColor=none;fontColor=default;" edge="1" parent="1" source="KzurcuNZsRSPmzHi2wHg-23" target="KzurcuNZsRSPmzHi2wHg-26">
          <mxGeometry relative="1" as="geometry" />
        </mxCell>
        <mxCell id="KzurcuNZsRSPmzHi2wHg-20" value="&lt;span style=&quot;color: rgba(0, 0, 0, 0); font-family: monospace; font-size: 0px; text-align: start; background-color: rgb(27, 29, 30);&quot;&gt;%3CmxGraphModel%3E%3Croot%3E%3CmxCell%20id%3D%220%22%2F%3E%3CmxCell%20id%3D%221%22%20parent%3D%220%22%2F%3E%3CmxCell%20id%3D%222%22%20value%3D%22%26lt%3Bfont%20face%3D%26quot%3BTimes%20New%20Roman%26quot%3B%20style%3D%26quot%3Bfont-size%3A%2014px%3B%26quot%3B%26gt%3B%D0%A1%D0%BE%D1%81%D1%82%D0%BE%D1%8F%D0%BD%D0%B8%D0%B5%20%D0%A1%26lt%3B%2Ffont%26gt%3B%26lt%3Bdiv%26gt%3B%26lt%3Bfont%20face%3D%26quot%3BTimes%20New%20Roman%26quot%3B%20style%3D%26quot%3Bfont-size%3A%2014px%3B%26quot%3B%26gt%3B%D0%9F%D1%80%D0%B5%D0%B4.%20%D0%A1%D0%BE%D1%81%D1%82.%26lt%3B%2Ffont%26gt%3B%26lt%3B%2Fdiv%26gt%3B%22%20style%3D%22edgeLabel%3Bhtml%3D1%3Balign%3Dcenter%3BverticalAlign%3Dmiddle%3Bresizable%3D0%3Bpoints%3D%5B%5D%3B%22%20vertex%3D%221%22%20connectable%3D%220%22%20parent%3D%221%22%3E%3CmxGeometry%20x%3D%222110%22%20y%3D%22435.20000000000005%22%20as%3D%22geometry%22%2F%3E%3C%2FmxCell%3E%3C%2Froot%3E%3C%2FmxGraphModel%3&lt;/span&gt;" style="edgeLabel;html=1;align=center;verticalAlign=middle;resizable=0;points=[];labelBackgroundColor=none;" connectable="0" vertex="1" parent="KzurcuNZsRSPmzHi2wHg-19">
          <mxGeometry x="-0.2631" y="-1" relative="1" as="geometry">
            <mxPoint as="offset" />
          </mxGeometry>
        </mxCell>
        <mxCell id="KzurcuNZsRSPmzHi2wHg-21" value="&lt;span style=&quot;color: rgba(0, 0, 0, 0); font-family: monospace; font-size: 0px; text-align: start; background-color: rgb(27, 29, 30);&quot;&gt;%3CmxGraphModel%3E%3Croot%3E%3CmxCell%20id%3D%220%22%2F%3E%3CmxCell%20id%3D%221%22%20parent%3D%220%22%2F%3E%3CmxCell%20id%3D%222%22%20value%3D%22%26lt%3Bfont%20face%3D%26quot%3BTimes%20New%20Roman%26quot%3B%20style%3D%26quot%3Bfont-size%3A%2014px%3B%26quot%3B%26gt%3B%D0%A1%D0%BE%D1%81%D1%82%D0%BE%D1%8F%D0%BD%D0%B8%D0%B5%20%D0%A1%26lt%3B%2Ffont%26gt%3B%26lt%3Bdiv%26gt%3B%26lt%3Bfont%20face%3D%26quot%3BTimes%20New%20Roman%26quot%3B%20style%3D%26quot%3Bfont-size%3A%2014px%3B%26quot%3B%26gt%3B%D0%9F%D1%80%D0%B5%D0%B4.%20%D0%A1%D0%BE%D1%81%D1%82.%26lt%3B%2Ffont%26gt%3B%26lt%3B%2Fdiv%26gt%3B%22%20style%3D%22edgeLabel%3Bhtml%3D1%3Balign%3Dcenter%3BverticalAlign%3Dmiddle%3Bresizable%3D0%3Bpoints%3D%5B%5D%3B%22%20vertex%3D%221%22%20connectable%3D%220%22%20parent%3D%221%22%3E%3CmxGeometry%20x%3D%222110%22%20y%3D%22435.20000000000005%22%20as%3D%22geometry%22%2F%3E%3C%2FmxCell%3E%3C%2Froot%3E%3C%2FmxGraphModel%3E&lt;/span&gt;" style="edgeLabel;html=1;align=center;verticalAlign=middle;resizable=0;points=[];labelBackgroundColor=none;" connectable="0" vertex="1" parent="KzurcuNZsRSPmzHi2wHg-19">
          <mxGeometry x="-0.2057" relative="1" as="geometry">
            <mxPoint as="offset" />
          </mxGeometry>
        </mxCell>
        <mxCell id="uLU99d3s7XBJEIJOx_Uw-22" value="Состояние C" style="edgeLabel;html=1;align=center;verticalAlign=middle;resizable=0;points=[];" connectable="0" vertex="1" parent="KzurcuNZsRSPmzHi2wHg-19">
          <mxGeometry x="0.0481" y="-1" relative="1" as="geometry">
            <mxPoint as="offset" />
          </mxGeometry>
        </mxCell>
        <mxCell id="KzurcuNZsRSPmzHi2wHg-23" value="С1.3 Изменить состояние&lt;div&gt;С:=Выключена(1)&lt;/div&gt;" style="ellipse;whiteSpace=wrap;html=1;labelBackgroundColor=none;" vertex="1" parent="1">
          <mxGeometry x="-460" y="420" width="120" height="80" as="geometry" />
        </mxCell>
        <mxCell id="KzurcuNZsRSPmzHi2wHg-26" value="С1.4 Записать состояние" style="ellipse;whiteSpace=wrap;html=1;labelBackgroundColor=none;" vertex="1" parent="1">
          <mxGeometry x="-510" y="560" width="120" height="80" as="geometry" />
        </mxCell>
        <mxCell id="KzurcuNZsRSPmzHi2wHg-27" value="С1.5 Проверить состояние" style="ellipse;whiteSpace=wrap;html=1;labelBackgroundColor=none;" vertex="1" parent="1">
          <mxGeometry x="-350" y="670" width="120" height="80" as="geometry" />
        </mxCell>
        <mxCell id="KzurcuNZsRSPmzHi2wHg-28" style="edgeStyle=orthogonalEdgeStyle;rounded=0;orthogonalLoop=1;jettySize=auto;html=1;exitX=1;exitY=0.5;exitDx=0;exitDy=0;labelBackgroundColor=none;fontColor=default;" edge="1" parent="1" source="KzurcuNZsRSPmzHi2wHg-29">
          <mxGeometry relative="1" as="geometry">
            <mxPoint x="210" y="750" as="targetPoint" />
          </mxGeometry>
        </mxCell>
        <mxCell id="KzurcuNZsRSPmzHi2wHg-29" value="С1.6 Породить события И2, Э2, Т2, П2" style="ellipse;whiteSpace=wrap;html=1;labelBackgroundColor=none;" vertex="1" parent="1">
          <mxGeometry x="20" y="710" width="120" height="80" as="geometry" />
        </mxCell>
        <mxCell id="KzurcuNZsRSPmzHi2wHg-30" value="" style="endArrow=classic;html=1;rounded=0;exitX=1;exitY=0.5;exitDx=0;exitDy=0;entryX=0;entryY=0.5;entryDx=0;entryDy=0;dashed=1;labelBackgroundColor=none;fontColor=default;" edge="1" parent="1" source="KzurcuNZsRSPmzHi2wHg-27" target="KzurcuNZsRSPmzHi2wHg-29">
          <mxGeometry width="50" height="50" relative="1" as="geometry">
            <mxPoint x="-212" y="770" as="sourcePoint" />
            <mxPoint x="-92" y="950" as="targetPoint" />
            <Array as="points">
              <mxPoint x="-30" y="710" />
              <mxPoint x="-30" y="750" />
            </Array>
          </mxGeometry>
        </mxCell>
        <mxCell id="KzurcuNZsRSPmzHi2wHg-31" value="&lt;font style=&quot;font-size: 12px;&quot;&gt;Пред.Сост. == Приготовление&amp;nbsp;(3)&lt;/font&gt;" style="edgeLabel;html=1;align=center;verticalAlign=middle;resizable=0;points=[];labelBackgroundColor=none;" connectable="0" vertex="1" parent="KzurcuNZsRSPmzHi2wHg-30">
          <mxGeometry x="-0.3116" relative="1" as="geometry">
            <mxPoint as="offset" />
          </mxGeometry>
        </mxCell>
        <mxCell id="KzurcuNZsRSPmzHi2wHg-32" value="" style="endArrow=classic;html=1;rounded=0;exitX=1;exitY=1;exitDx=0;exitDy=0;entryX=0;entryY=0.5;entryDx=0;entryDy=0;dashed=1;labelBackgroundColor=none;fontColor=default;" edge="1" parent="1" source="KzurcuNZsRSPmzHi2wHg-27" target="KzurcuNZsRSPmzHi2wHg-35">
          <mxGeometry width="50" height="50" relative="1" as="geometry">
            <mxPoint x="-230" y="798" as="sourcePoint" />
            <mxPoint x="-32" y="970" as="targetPoint" />
            <Array as="points">
              <mxPoint x="-248" y="830" />
              <mxPoint x="-250" y="840" />
              <mxPoint x="-30" y="840" />
            </Array>
          </mxGeometry>
        </mxCell>
        <mxCell id="KzurcuNZsRSPmzHi2wHg-33" style="edgeStyle=orthogonalEdgeStyle;rounded=0;orthogonalLoop=1;jettySize=auto;html=1;exitX=1;exitY=0.5;exitDx=0;exitDy=0;labelBackgroundColor=none;fontColor=default;" edge="1" parent="1" source="KzurcuNZsRSPmzHi2wHg-35">
          <mxGeometry relative="1" as="geometry">
            <mxPoint x="210" y="840" as="targetPoint" />
          </mxGeometry>
        </mxCell>
        <mxCell id="KzurcuNZsRSPmzHi2wHg-35" value="С1.7 Породить событие Т2" style="ellipse;whiteSpace=wrap;html=1;labelBackgroundColor=none;" vertex="1" parent="1">
          <mxGeometry x="20" y="800" width="120" height="80" as="geometry" />
        </mxCell>
        <mxCell id="KzurcuNZsRSPmzHi2wHg-36" value="&lt;font style=&quot;font-size: 12px;&quot;&gt;Пред.Сост.&amp;nbsp;== Ожидает запуска (2)&lt;/font&gt;" style="edgeLabel;html=1;align=center;verticalAlign=middle;resizable=0;points=[];labelBackgroundColor=none;" connectable="0" vertex="1" parent="1">
          <mxGeometry x="-130.0011655927865" y="839.9988405008773" as="geometry" />
        </mxCell>
        <mxCell id="eqEgvU586HSFr2kg52Lh-1" value="&lt;font style=&quot;font-size: 22px;&quot; face=&quot;Times New Roman&quot;&gt;&lt;b style=&quot;&quot;&gt;2. Ожидает запуска&lt;/b&gt;&lt;/font&gt;" style="text;html=1;align=center;verticalAlign=middle;whiteSpace=wrap;rounded=0;labelBackgroundColor=none;" vertex="1" parent="1">
          <mxGeometry x="-610" y="940" width="200" height="30" as="geometry" />
        </mxCell>
        <mxCell id="eqEgvU586HSFr2kg52Lh-2" value="" style="verticalLabelPosition=bottom;verticalAlign=top;html=1;shape=mxgraph.basic.frame;dx=10;whiteSpace=wrap;labelBackgroundColor=none;" vertex="1" parent="1">
          <mxGeometry x="-700" y="1130" width="100" height="60" as="geometry" />
        </mxCell>
        <mxCell id="eqEgvU586HSFr2kg52Lh-3" value="&lt;font style=&quot;font-size: 14px;&quot; face=&quot;Times New Roman&quot;&gt;Вафельница&lt;/font&gt;" style="text;html=1;align=center;verticalAlign=middle;whiteSpace=wrap;rounded=0;labelBackgroundColor=none;" vertex="1" parent="1">
          <mxGeometry x="-680" y="1145" width="60" height="30" as="geometry" />
        </mxCell>
        <mxCell id="uLU99d3s7XBJEIJOx_Uw-25" style="edgeStyle=orthogonalEdgeStyle;rounded=0;orthogonalLoop=1;jettySize=auto;html=1;entryX=0.5;entryY=0;entryDx=0;entryDy=0;dashed=1;" edge="1" parent="1" source="eqEgvU586HSFr2kg52Lh-4" target="eqEgvU586HSFr2kg52Lh-23">
          <mxGeometry relative="1" as="geometry" />
        </mxCell>
        <mxCell id="uLU99d3s7XBJEIJOx_Uw-29" style="edgeStyle=orthogonalEdgeStyle;rounded=0;orthogonalLoop=1;jettySize=auto;html=1;entryX=0.5;entryY=0;entryDx=0;entryDy=0;" edge="1" parent="1" source="eqEgvU586HSFr2kg52Lh-4" target="eqEgvU586HSFr2kg52Lh-27">
          <mxGeometry relative="1" as="geometry" />
        </mxCell>
        <mxCell id="uLU99d3s7XBJEIJOx_Uw-30" value="&lt;font style=&quot;font-size: 14px;&quot;&gt;Состояние C&lt;/font&gt;" style="edgeLabel;html=1;align=center;verticalAlign=middle;resizable=0;points=[];" connectable="0" vertex="1" parent="uLU99d3s7XBJEIJOx_Uw-29">
          <mxGeometry x="0.0514" y="5" relative="1" as="geometry">
            <mxPoint x="-5" y="-72" as="offset" />
          </mxGeometry>
        </mxCell>
        <mxCell id="eqEgvU586HSFr2kg52Lh-4" value="С2.1 Получить состояние" style="ellipse;whiteSpace=wrap;html=1;labelBackgroundColor=none;" vertex="1" parent="1">
          <mxGeometry x="-530" y="1120" width="120" height="80" as="geometry" />
        </mxCell>
        <mxCell id="eqEgvU586HSFr2kg52Lh-8" value="С2.0 Принять событие" style="ellipse;whiteSpace=wrap;html=1;labelBackgroundColor=none;" vertex="1" parent="1">
          <mxGeometry x="-350" y="990" width="120" height="80" as="geometry" />
        </mxCell>
        <mxCell id="eqEgvU586HSFr2kg52Lh-9" value="" style="endArrow=classic;html=1;rounded=0;entryX=0.5;entryY=0;entryDx=0;entryDy=0;labelBackgroundColor=none;fontColor=default;" edge="1" parent="1" target="eqEgvU586HSFr2kg52Lh-8">
          <mxGeometry width="50" height="50" relative="1" as="geometry">
            <mxPoint x="-290" y="920" as="sourcePoint" />
            <mxPoint x="-310" y="870" as="targetPoint" />
          </mxGeometry>
        </mxCell>
        <mxCell id="eqEgvU586HSFr2kg52Lh-10" value="&lt;font style=&quot;font-size: 14px;&quot; face=&quot;Times New Roman&quot;&gt;С1 || С4&lt;/font&gt;" style="edgeLabel;html=1;align=center;verticalAlign=middle;resizable=0;points=[];labelBackgroundColor=none;" connectable="0" vertex="1" parent="eqEgvU586HSFr2kg52Lh-9">
          <mxGeometry x="-0.5762" y="2" relative="1" as="geometry">
            <mxPoint x="-2" y="15" as="offset" />
          </mxGeometry>
        </mxCell>
        <mxCell id="eqEgvU586HSFr2kg52Lh-11" value="" style="endArrow=classic;html=1;rounded=0;exitX=1;exitY=0.5;exitDx=0;exitDy=0;entryX=1;entryY=0;entryDx=0;entryDy=0;labelBackgroundColor=none;fontColor=default;" edge="1" parent="1" source="eqEgvU586HSFr2kg52Lh-8" target="eqEgvU586HSFr2kg52Lh-27">
          <mxGeometry width="50" height="50" relative="1" as="geometry">
            <mxPoint x="-420" y="1160" as="sourcePoint" />
            <mxPoint x="-164" y="1550" as="targetPoint" />
            <Array as="points">
              <mxPoint x="-164" y="1030" />
              <mxPoint x="-164" y="1532" />
            </Array>
          </mxGeometry>
        </mxCell>
        <mxCell id="eqEgvU586HSFr2kg52Lh-12" value="&lt;font style=&quot;font-size: 14px;&quot; face=&quot;Times New Roman&quot;&gt;Данные события&lt;/font&gt;" style="edgeLabel;html=1;align=center;verticalAlign=middle;resizable=0;points=[];rotation=0;labelBackgroundColor=none;" connectable="0" vertex="1" parent="eqEgvU586HSFr2kg52Lh-11">
          <mxGeometry x="-0.5067" y="2" relative="1" as="geometry">
            <mxPoint x="12" y="165" as="offset" />
          </mxGeometry>
        </mxCell>
        <mxCell id="eqEgvU586HSFr2kg52Lh-13" value="" style="endArrow=classic;html=1;rounded=0;exitX=1;exitY=0.5;exitDx=0;exitDy=0;exitPerimeter=0;labelBackgroundColor=none;fontColor=default;" edge="1" parent="1" source="eqEgvU586HSFr2kg52Lh-2" target="eqEgvU586HSFr2kg52Lh-4">
          <mxGeometry width="50" height="50" relative="1" as="geometry">
            <mxPoint x="-550" y="1310" as="sourcePoint" />
            <mxPoint x="-500" y="1260" as="targetPoint" />
            <Array as="points" />
          </mxGeometry>
        </mxCell>
        <mxCell id="eqEgvU586HSFr2kg52Lh-14" value="&lt;font style=&quot;font-size: 12px;&quot; face=&quot;Times New Roman&quot;&gt;Состояние С&lt;/font&gt;" style="edgeLabel;html=1;align=center;verticalAlign=middle;resizable=0;points=[];labelBackgroundColor=none;" connectable="0" vertex="1" parent="eqEgvU586HSFr2kg52Lh-13">
          <mxGeometry x="-0.2524" relative="1" as="geometry">
            <mxPoint x="14" y="-40" as="offset" />
          </mxGeometry>
        </mxCell>
        <mxCell id="eqEgvU586HSFr2kg52Lh-17" value="" style="endArrow=classic;html=1;rounded=0;exitX=0;exitY=0.5;exitDx=0;exitDy=0;entryX=0.5;entryY=1;entryDx=0;entryDy=0;entryPerimeter=0;labelBackgroundColor=none;fontColor=default;" edge="1" parent="1" source="eqEgvU586HSFr2kg52Lh-26" target="eqEgvU586HSFr2kg52Lh-2">
          <mxGeometry width="50" height="50" relative="1" as="geometry">
            <mxPoint x="-480" y="1429.17" as="sourcePoint" />
            <mxPoint x="-420" y="1429.17" as="targetPoint" />
            <Array as="points">
              <mxPoint x="-650" y="1440" />
            </Array>
          </mxGeometry>
        </mxCell>
        <mxCell id="uLU99d3s7XBJEIJOx_Uw-14" value="&lt;font style=&quot;font-size: 14px;&quot;&gt;Состояние C&lt;/font&gt;" style="edgeLabel;html=1;align=center;verticalAlign=middle;resizable=0;points=[];" connectable="0" vertex="1" parent="eqEgvU586HSFr2kg52Lh-17">
          <mxGeometry x="-0.5763" y="-1" relative="1" as="geometry">
            <mxPoint as="offset" />
          </mxGeometry>
        </mxCell>
        <mxCell id="eqEgvU586HSFr2kg52Lh-19" style="edgeStyle=orthogonalEdgeStyle;rounded=0;orthogonalLoop=1;jettySize=auto;html=1;exitX=0.5;exitY=1;exitDx=0;exitDy=0;entryX=0.5;entryY=0;entryDx=0;entryDy=0;labelBackgroundColor=none;fontColor=default;" edge="1" parent="1" source="eqEgvU586HSFr2kg52Lh-23" target="eqEgvU586HSFr2kg52Lh-26">
          <mxGeometry relative="1" as="geometry">
            <Array as="points">
              <mxPoint x="-460" y="1330" />
            </Array>
          </mxGeometry>
        </mxCell>
        <mxCell id="eqEgvU586HSFr2kg52Lh-20" value="&lt;span style=&quot;color: rgba(0, 0, 0, 0); font-family: monospace; font-size: 0px; text-align: start; background-color: rgb(27, 29, 30);&quot;&gt;%3CmxGraphModel%3E%3Croot%3E%3CmxCell%20id%3D%220%22%2F%3E%3CmxCell%20id%3D%221%22%20parent%3D%220%22%2F%3E%3CmxCell%20id%3D%222%22%20value%3D%22%26lt%3Bfont%20face%3D%26quot%3BTimes%20New%20Roman%26quot%3B%20style%3D%26quot%3Bfont-size%3A%2014px%3B%26quot%3B%26gt%3B%D0%A1%D0%BE%D1%81%D1%82%D0%BE%D1%8F%D0%BD%D0%B8%D0%B5%20%D0%A1%26lt%3B%2Ffont%26gt%3B%26lt%3Bdiv%26gt%3B%26lt%3Bfont%20face%3D%26quot%3BTimes%20New%20Roman%26quot%3B%20style%3D%26quot%3Bfont-size%3A%2014px%3B%26quot%3B%26gt%3B%D0%9F%D1%80%D0%B5%D0%B4.%20%D0%A1%D0%BE%D1%81%D1%82.%26lt%3B%2Ffont%26gt%3B%26lt%3B%2Fdiv%26gt%3B%22%20style%3D%22edgeLabel%3Bhtml%3D1%3Balign%3Dcenter%3BverticalAlign%3Dmiddle%3Bresizable%3D0%3Bpoints%3D%5B%5D%3B%22%20vertex%3D%221%22%20connectable%3D%220%22%20parent%3D%221%22%3E%3CmxGeometry%20x%3D%222110%22%20y%3D%22435.20000000000005%22%20as%3D%22geometry%22%2F%3E%3C%2FmxCell%3E%3C%2Froot%3E%3C%2FmxGraphModel%3&lt;/span&gt;" style="edgeLabel;html=1;align=center;verticalAlign=middle;resizable=0;points=[];labelBackgroundColor=none;" connectable="0" vertex="1" parent="eqEgvU586HSFr2kg52Lh-19">
          <mxGeometry x="-0.2631" y="-1" relative="1" as="geometry">
            <mxPoint as="offset" />
          </mxGeometry>
        </mxCell>
        <mxCell id="eqEgvU586HSFr2kg52Lh-21" value="&lt;span style=&quot;color: rgba(0, 0, 0, 0); font-family: monospace; font-size: 0px; text-align: start; background-color: rgb(27, 29, 30);&quot;&gt;%3CmxGraphModel%3E%3Croot%3E%3CmxCell%20id%3D%220%22%2F%3E%3CmxCell%20id%3D%221%22%20parent%3D%220%22%2F%3E%3CmxCell%20id%3D%222%22%20value%3D%22%26lt%3Bfont%20face%3D%26quot%3BTimes%20New%20Roman%26quot%3B%20style%3D%26quot%3Bfont-size%3A%2014px%3B%26quot%3B%26gt%3B%D0%A1%D0%BE%D1%81%D1%82%D0%BE%D1%8F%D0%BD%D0%B8%D0%B5%20%D0%A1%26lt%3B%2Ffont%26gt%3B%26lt%3Bdiv%26gt%3B%26lt%3Bfont%20face%3D%26quot%3BTimes%20New%20Roman%26quot%3B%20style%3D%26quot%3Bfont-size%3A%2014px%3B%26quot%3B%26gt%3B%D0%9F%D1%80%D0%B5%D0%B4.%20%D0%A1%D0%BE%D1%81%D1%82.%26lt%3B%2Ffont%26gt%3B%26lt%3B%2Fdiv%26gt%3B%22%20style%3D%22edgeLabel%3Bhtml%3D1%3Balign%3Dcenter%3BverticalAlign%3Dmiddle%3Bresizable%3D0%3Bpoints%3D%5B%5D%3B%22%20vertex%3D%221%22%20connectable%3D%220%22%20parent%3D%221%22%3E%3CmxGeometry%20x%3D%222110%22%20y%3D%22435.20000000000005%22%20as%3D%22geometry%22%2F%3E%3C%2FmxCell%3E%3C%2Froot%3E%3C%2FmxGraphModel%3E&lt;/span&gt;" style="edgeLabel;html=1;align=center;verticalAlign=middle;resizable=0;points=[];labelBackgroundColor=none;" connectable="0" vertex="1" parent="eqEgvU586HSFr2kg52Lh-19">
          <mxGeometry x="-0.2057" relative="1" as="geometry">
            <mxPoint as="offset" />
          </mxGeometry>
        </mxCell>
        <mxCell id="uLU99d3s7XBJEIJOx_Uw-32" value="&lt;font style=&quot;font-size: 14px;&quot;&gt;Состояние C&lt;/font&gt;" style="edgeLabel;html=1;align=center;verticalAlign=middle;resizable=0;points=[];" connectable="0" vertex="1" parent="eqEgvU586HSFr2kg52Lh-19">
          <mxGeometry x="0.3587" y="2" relative="1" as="geometry">
            <mxPoint as="offset" />
          </mxGeometry>
        </mxCell>
        <mxCell id="eqEgvU586HSFr2kg52Lh-23" value="С2.3 Изменить состояние&lt;div&gt;C=Ожидает запуска(2)&lt;/div&gt;" style="ellipse;whiteSpace=wrap;html=1;labelBackgroundColor=none;" vertex="1" parent="1">
          <mxGeometry x="-450" y="1250" width="120" height="80" as="geometry" />
        </mxCell>
        <mxCell id="eqEgvU586HSFr2kg52Lh-26" value="С2.4 Записать состояние" style="ellipse;whiteSpace=wrap;html=1;labelBackgroundColor=none;" vertex="1" parent="1">
          <mxGeometry x="-520" y="1400" width="120" height="80" as="geometry" />
        </mxCell>
        <mxCell id="eqEgvU586HSFr2kg52Lh-27" value="С2.5 Проверить состояние" style="ellipse;whiteSpace=wrap;html=1;labelBackgroundColor=none;" vertex="1" parent="1">
          <mxGeometry x="-350" y="1520" width="120" height="80" as="geometry" />
        </mxCell>
        <mxCell id="eqEgvU586HSFr2kg52Lh-28" style="edgeStyle=orthogonalEdgeStyle;rounded=0;orthogonalLoop=1;jettySize=auto;html=1;exitX=1;exitY=0.5;exitDx=0;exitDy=0;labelBackgroundColor=none;fontColor=default;" edge="1" parent="1" source="eqEgvU586HSFr2kg52Lh-29">
          <mxGeometry relative="1" as="geometry">
            <mxPoint x="210" y="1600" as="targetPoint" />
          </mxGeometry>
        </mxCell>
        <mxCell id="eqEgvU586HSFr2kg52Lh-29" value="С2.6 Породить события Т1" style="ellipse;whiteSpace=wrap;html=1;labelBackgroundColor=none;" vertex="1" parent="1">
          <mxGeometry x="20" y="1560" width="120" height="80" as="geometry" />
        </mxCell>
        <mxCell id="eqEgvU586HSFr2kg52Lh-30" value="" style="endArrow=classic;html=1;rounded=0;exitX=1;exitY=0.5;exitDx=0;exitDy=0;entryX=0;entryY=0.5;entryDx=0;entryDy=0;dashed=1;labelBackgroundColor=none;fontColor=default;" edge="1" parent="1" source="eqEgvU586HSFr2kg52Lh-27" target="eqEgvU586HSFr2kg52Lh-29">
          <mxGeometry width="50" height="50" relative="1" as="geometry">
            <mxPoint x="-212" y="1620" as="sourcePoint" />
            <mxPoint x="-92" y="1800" as="targetPoint" />
            <Array as="points">
              <mxPoint x="-30" y="1560" />
              <mxPoint x="-30" y="1600" />
            </Array>
          </mxGeometry>
        </mxCell>
        <mxCell id="eqEgvU586HSFr2kg52Lh-31" value="&lt;font style=&quot;font-size: 12px;&quot;&gt;Состояние. == Выключена(1)&lt;/font&gt;" style="edgeLabel;html=1;align=center;verticalAlign=middle;resizable=0;points=[];labelBackgroundColor=none;" connectable="0" vertex="1" parent="eqEgvU586HSFr2kg52Lh-30">
          <mxGeometry x="-0.3116" relative="1" as="geometry">
            <mxPoint as="offset" />
          </mxGeometry>
        </mxCell>
        <mxCell id="eqEgvU586HSFr2kg52Lh-32" value="" style="endArrow=classic;html=1;rounded=0;exitX=1;exitY=1;exitDx=0;exitDy=0;entryX=0;entryY=0.5;entryDx=0;entryDy=0;dashed=1;labelBackgroundColor=none;fontColor=default;" edge="1" parent="1" source="eqEgvU586HSFr2kg52Lh-27" target="eqEgvU586HSFr2kg52Lh-34">
          <mxGeometry width="50" height="50" relative="1" as="geometry">
            <mxPoint x="-230" y="1648" as="sourcePoint" />
            <mxPoint x="-32" y="1820" as="targetPoint" />
            <Array as="points">
              <mxPoint x="-248" y="1680" />
              <mxPoint x="-250" y="1690" />
              <mxPoint x="-30" y="1690" />
            </Array>
          </mxGeometry>
        </mxCell>
        <mxCell id="eqEgvU586HSFr2kg52Lh-33" style="edgeStyle=orthogonalEdgeStyle;rounded=0;orthogonalLoop=1;jettySize=auto;html=1;exitX=1;exitY=0.5;exitDx=0;exitDy=0;labelBackgroundColor=none;fontColor=default;" edge="1" parent="1" source="eqEgvU586HSFr2kg52Lh-34">
          <mxGeometry relative="1" as="geometry">
            <mxPoint x="210" y="1690" as="targetPoint" />
          </mxGeometry>
        </mxCell>
        <mxCell id="eqEgvU586HSFr2kg52Lh-34" value="С2.7 Породить событие Э2, Т5, И2, П2" style="ellipse;whiteSpace=wrap;html=1;labelBackgroundColor=none;" vertex="1" parent="1">
          <mxGeometry x="20" y="1650" width="120" height="80" as="geometry" />
        </mxCell>
        <mxCell id="eqEgvU586HSFr2kg52Lh-35" value="&lt;font style=&quot;font-size: 12px;&quot;&gt;Состояние == Приготовление(3)&lt;/font&gt;" style="edgeLabel;html=1;align=center;verticalAlign=middle;resizable=0;points=[];labelBackgroundColor=none;" connectable="0" vertex="1" parent="1">
          <mxGeometry x="-130.0011655927865" y="1689.9988405008773" as="geometry" />
        </mxCell>
        <mxCell id="3vU_zGlU28dJKbvTVU9k-1" value="&lt;font style=&quot;font-size: 22px;&quot; face=&quot;Times New Roman&quot;&gt;&lt;b style=&quot;&quot;&gt;3. Приготовление&lt;/b&gt;&lt;/font&gt;" style="text;html=1;align=center;verticalAlign=middle;whiteSpace=wrap;rounded=0;labelBackgroundColor=none;" vertex="1" parent="1">
          <mxGeometry x="-620" y="1810" width="200" height="30" as="geometry" />
        </mxCell>
        <mxCell id="3vU_zGlU28dJKbvTVU9k-2" value="" style="verticalLabelPosition=bottom;verticalAlign=top;html=1;shape=mxgraph.basic.frame;dx=10;whiteSpace=wrap;labelBackgroundColor=none;" vertex="1" parent="1">
          <mxGeometry x="-710" y="2000" width="100" height="60" as="geometry" />
        </mxCell>
        <mxCell id="3vU_zGlU28dJKbvTVU9k-3" value="&lt;font style=&quot;font-size: 14px;&quot; face=&quot;Times New Roman&quot;&gt;Вафельница&lt;/font&gt;" style="text;html=1;align=center;verticalAlign=middle;whiteSpace=wrap;rounded=0;labelBackgroundColor=none;" vertex="1" parent="1">
          <mxGeometry x="-690" y="2015" width="60" height="30" as="geometry" />
        </mxCell>
        <mxCell id="3vU_zGlU28dJKbvTVU9k-4" value="С3.1 Получить состояние" style="ellipse;whiteSpace=wrap;html=1;labelBackgroundColor=none;" vertex="1" parent="1">
          <mxGeometry x="-540" y="1990" width="120" height="80" as="geometry" />
        </mxCell>
        <mxCell id="3vU_zGlU28dJKbvTVU9k-5" style="edgeStyle=orthogonalEdgeStyle;rounded=0;orthogonalLoop=1;jettySize=auto;html=1;exitX=0.5;exitY=1;exitDx=0;exitDy=0;entryX=0.5;entryY=0;entryDx=0;entryDy=0;dashed=1;labelBackgroundColor=none;fontColor=default;" edge="1" parent="1" source="3vU_zGlU28dJKbvTVU9k-7" target="3vU_zGlU28dJKbvTVU9k-23">
          <mxGeometry relative="1" as="geometry">
            <mxPoint x="-300" y="2180" as="targetPoint" />
          </mxGeometry>
        </mxCell>
        <mxCell id="3vU_zGlU28dJKbvTVU9k-6" value="&lt;font face=&quot;Times New Roman&quot; style=&quot;font-size: 12px;&quot;&gt;Состояние С = Ожидает запуска (2)&lt;/font&gt;" style="edgeLabel;html=1;align=center;verticalAlign=middle;resizable=0;points=[];labelBackgroundColor=none;" connectable="0" vertex="1" parent="3vU_zGlU28dJKbvTVU9k-5">
          <mxGeometry x="-0.3105" y="-2" relative="1" as="geometry">
            <mxPoint x="2" y="12" as="offset" />
          </mxGeometry>
        </mxCell>
        <mxCell id="3vU_zGlU28dJKbvTVU9k-7" value="С3.2 Проверить состояние" style="ellipse;whiteSpace=wrap;html=1;labelBackgroundColor=none;" vertex="1" parent="1">
          <mxGeometry x="-360" y="1990" width="120" height="80" as="geometry" />
        </mxCell>
        <mxCell id="gKdUzIWOqTzNSBoO8es5-1" style="edgeStyle=orthogonalEdgeStyle;rounded=0;orthogonalLoop=1;jettySize=auto;html=1;labelBackgroundColor=none;fontColor=default;" edge="1" parent="1" source="3vU_zGlU28dJKbvTVU9k-8" target="3vU_zGlU28dJKbvTVU9k-7">
          <mxGeometry relative="1" as="geometry" />
        </mxCell>
        <mxCell id="gKdUzIWOqTzNSBoO8es5-2" value="Данные события" style="edgeLabel;html=1;align=center;verticalAlign=middle;resizable=0;points=[];labelBackgroundColor=none;" connectable="0" vertex="1" parent="gKdUzIWOqTzNSBoO8es5-1">
          <mxGeometry x="-0.24" y="1" relative="1" as="geometry">
            <mxPoint as="offset" />
          </mxGeometry>
        </mxCell>
        <mxCell id="3vU_zGlU28dJKbvTVU9k-8" value="С3.0 Принять событие" style="ellipse;whiteSpace=wrap;html=1;labelBackgroundColor=none;" vertex="1" parent="1">
          <mxGeometry x="-360" y="1860" width="120" height="80" as="geometry" />
        </mxCell>
        <mxCell id="3vU_zGlU28dJKbvTVU9k-9" value="" style="endArrow=classic;html=1;rounded=0;entryX=0.5;entryY=0;entryDx=0;entryDy=0;labelBackgroundColor=none;fontColor=default;" edge="1" parent="1" target="3vU_zGlU28dJKbvTVU9k-8">
          <mxGeometry width="50" height="50" relative="1" as="geometry">
            <mxPoint x="-300" y="1790" as="sourcePoint" />
            <mxPoint x="-320" y="1740" as="targetPoint" />
          </mxGeometry>
        </mxCell>
        <mxCell id="3vU_zGlU28dJKbvTVU9k-10" value="&lt;font style=&quot;font-size: 14px;&quot; face=&quot;Times New Roman&quot;&gt;С3&lt;/font&gt;" style="edgeLabel;html=1;align=center;verticalAlign=middle;resizable=0;points=[];labelBackgroundColor=none;" connectable="0" vertex="1" parent="3vU_zGlU28dJKbvTVU9k-9">
          <mxGeometry x="-0.5762" y="2" relative="1" as="geometry">
            <mxPoint x="-2" y="15" as="offset" />
          </mxGeometry>
        </mxCell>
        <mxCell id="3vU_zGlU28dJKbvTVU9k-13" value="" style="endArrow=classic;html=1;rounded=0;exitX=1;exitY=0.5;exitDx=0;exitDy=0;exitPerimeter=0;labelBackgroundColor=none;fontColor=default;" edge="1" parent="1" source="3vU_zGlU28dJKbvTVU9k-2" target="3vU_zGlU28dJKbvTVU9k-4">
          <mxGeometry width="50" height="50" relative="1" as="geometry">
            <mxPoint x="-560" y="2180" as="sourcePoint" />
            <mxPoint x="-510" y="2130" as="targetPoint" />
            <Array as="points" />
          </mxGeometry>
        </mxCell>
        <mxCell id="3vU_zGlU28dJKbvTVU9k-14" value="&lt;font style=&quot;font-size: 12px;&quot; face=&quot;Times New Roman&quot;&gt;Состояние С&lt;/font&gt;" style="edgeLabel;html=1;align=center;verticalAlign=middle;resizable=0;points=[];labelBackgroundColor=none;" connectable="0" vertex="1" parent="3vU_zGlU28dJKbvTVU9k-13">
          <mxGeometry x="-0.2524" relative="1" as="geometry">
            <mxPoint x="14" y="-40" as="offset" />
          </mxGeometry>
        </mxCell>
        <mxCell id="3vU_zGlU28dJKbvTVU9k-15" value="" style="endArrow=classic;html=1;rounded=0;exitX=1;exitY=0.5;exitDx=0;exitDy=0;entryX=0;entryY=0.5;entryDx=0;entryDy=0;labelBackgroundColor=none;fontColor=default;" edge="1" parent="1" source="3vU_zGlU28dJKbvTVU9k-4" target="3vU_zGlU28dJKbvTVU9k-7">
          <mxGeometry width="50" height="50" relative="1" as="geometry">
            <mxPoint x="-410" y="2090" as="sourcePoint" />
            <mxPoint x="-340" y="2090" as="targetPoint" />
            <Array as="points" />
          </mxGeometry>
        </mxCell>
        <mxCell id="3vU_zGlU28dJKbvTVU9k-16" value="&lt;font style=&quot;font-size: 12px;&quot; face=&quot;Times New Roman&quot;&gt;Состояние С&lt;/font&gt;" style="edgeLabel;html=1;align=center;verticalAlign=middle;resizable=0;points=[];labelBackgroundColor=none;" connectable="0" vertex="1" parent="3vU_zGlU28dJKbvTVU9k-15">
          <mxGeometry x="-0.2524" relative="1" as="geometry">
            <mxPoint x="14" y="-40" as="offset" />
          </mxGeometry>
        </mxCell>
        <mxCell id="3vU_zGlU28dJKbvTVU9k-17" value="" style="endArrow=classic;html=1;rounded=0;exitX=0;exitY=0.5;exitDx=0;exitDy=0;entryX=0.5;entryY=1;entryDx=0;entryDy=0;entryPerimeter=0;labelBackgroundColor=none;fontColor=default;" edge="1" parent="1" source="3vU_zGlU28dJKbvTVU9k-26" target="3vU_zGlU28dJKbvTVU9k-2">
          <mxGeometry width="50" height="50" relative="1" as="geometry">
            <mxPoint x="-490" y="2299.17" as="sourcePoint" />
            <mxPoint x="-430" y="2299.17" as="targetPoint" />
            <Array as="points">
              <mxPoint x="-660" y="2310" />
            </Array>
          </mxGeometry>
        </mxCell>
        <mxCell id="3vU_zGlU28dJKbvTVU9k-18" value="&lt;font style=&quot;font-size: 12px;&quot; face=&quot;Times New Roman&quot;&gt;Состояние С&lt;/font&gt;" style="edgeLabel;html=1;align=center;verticalAlign=middle;resizable=0;points=[];labelBackgroundColor=none;" connectable="0" vertex="1" parent="3vU_zGlU28dJKbvTVU9k-17">
          <mxGeometry x="-0.2524" relative="1" as="geometry">
            <mxPoint x="90" y="-20" as="offset" />
          </mxGeometry>
        </mxCell>
        <mxCell id="3vU_zGlU28dJKbvTVU9k-19" style="edgeStyle=orthogonalEdgeStyle;rounded=0;orthogonalLoop=1;jettySize=auto;html=1;exitX=0.5;exitY=1;exitDx=0;exitDy=0;entryX=0.5;entryY=0;entryDx=0;entryDy=0;labelBackgroundColor=none;fontColor=default;" edge="1" parent="1" source="3vU_zGlU28dJKbvTVU9k-23" target="3vU_zGlU28dJKbvTVU9k-26">
          <mxGeometry relative="1" as="geometry" />
        </mxCell>
        <mxCell id="3vU_zGlU28dJKbvTVU9k-20" value="&lt;span style=&quot;color: rgba(0, 0, 0, 0); font-family: monospace; font-size: 0px; text-align: start; background-color: rgb(27, 29, 30);&quot;&gt;%3CmxGraphModel%3E%3Croot%3E%3CmxCell%20id%3D%220%22%2F%3E%3CmxCell%20id%3D%221%22%20parent%3D%220%22%2F%3E%3CmxCell%20id%3D%222%22%20value%3D%22%26lt%3Bfont%20face%3D%26quot%3BTimes%20New%20Roman%26quot%3B%20style%3D%26quot%3Bfont-size%3A%2014px%3B%26quot%3B%26gt%3B%D0%A1%D0%BE%D1%81%D1%82%D0%BE%D1%8F%D0%BD%D0%B8%D0%B5%20%D0%A1%26lt%3B%2Ffont%26gt%3B%26lt%3Bdiv%26gt%3B%26lt%3Bfont%20face%3D%26quot%3BTimes%20New%20Roman%26quot%3B%20style%3D%26quot%3Bfont-size%3A%2014px%3B%26quot%3B%26gt%3B%D0%9F%D1%80%D0%B5%D0%B4.%20%D0%A1%D0%BE%D1%81%D1%82.%26lt%3B%2Ffont%26gt%3B%26lt%3B%2Fdiv%26gt%3B%22%20style%3D%22edgeLabel%3Bhtml%3D1%3Balign%3Dcenter%3BverticalAlign%3Dmiddle%3Bresizable%3D0%3Bpoints%3D%5B%5D%3B%22%20vertex%3D%221%22%20connectable%3D%220%22%20parent%3D%221%22%3E%3CmxGeometry%20x%3D%222110%22%20y%3D%22435.20000000000005%22%20as%3D%22geometry%22%2F%3E%3C%2FmxCell%3E%3C%2Froot%3E%3C%2FmxGraphModel%3&lt;/span&gt;" style="edgeLabel;html=1;align=center;verticalAlign=middle;resizable=0;points=[];labelBackgroundColor=none;" connectable="0" vertex="1" parent="3vU_zGlU28dJKbvTVU9k-19">
          <mxGeometry x="-0.2631" y="-1" relative="1" as="geometry">
            <mxPoint as="offset" />
          </mxGeometry>
        </mxCell>
        <mxCell id="3vU_zGlU28dJKbvTVU9k-21" value="&lt;span style=&quot;color: rgba(0, 0, 0, 0); font-family: monospace; font-size: 0px; text-align: start; background-color: rgb(27, 29, 30);&quot;&gt;%3CmxGraphModel%3E%3Croot%3E%3CmxCell%20id%3D%220%22%2F%3E%3CmxCell%20id%3D%221%22%20parent%3D%220%22%2F%3E%3CmxCell%20id%3D%222%22%20value%3D%22%26lt%3Bfont%20face%3D%26quot%3BTimes%20New%20Roman%26quot%3B%20style%3D%26quot%3Bfont-size%3A%2014px%3B%26quot%3B%26gt%3B%D0%A1%D0%BE%D1%81%D1%82%D0%BE%D1%8F%D0%BD%D0%B8%D0%B5%20%D0%A1%26lt%3B%2Ffont%26gt%3B%26lt%3Bdiv%26gt%3B%26lt%3Bfont%20face%3D%26quot%3BTimes%20New%20Roman%26quot%3B%20style%3D%26quot%3Bfont-size%3A%2014px%3B%26quot%3B%26gt%3B%D0%9F%D1%80%D0%B5%D0%B4.%20%D0%A1%D0%BE%D1%81%D1%82.%26lt%3B%2Ffont%26gt%3B%26lt%3B%2Fdiv%26gt%3B%22%20style%3D%22edgeLabel%3Bhtml%3D1%3Balign%3Dcenter%3BverticalAlign%3Dmiddle%3Bresizable%3D0%3Bpoints%3D%5B%5D%3B%22%20vertex%3D%221%22%20connectable%3D%220%22%20parent%3D%221%22%3E%3CmxGeometry%20x%3D%222110%22%20y%3D%22435.20000000000005%22%20as%3D%22geometry%22%2F%3E%3C%2FmxCell%3E%3C%2Froot%3E%3C%2FmxGraphModel%3E&lt;/span&gt;" style="edgeLabel;html=1;align=center;verticalAlign=middle;resizable=0;points=[];labelBackgroundColor=none;" connectable="0" vertex="1" parent="3vU_zGlU28dJKbvTVU9k-19">
          <mxGeometry x="-0.2057" relative="1" as="geometry">
            <mxPoint as="offset" />
          </mxGeometry>
        </mxCell>
        <mxCell id="3vU_zGlU28dJKbvTVU9k-22" value="&lt;font style=&quot;font-size: 12px;&quot; face=&quot;Times New Roman&quot;&gt;Состояние С&lt;/font&gt;" style="edgeLabel;html=1;align=center;verticalAlign=middle;resizable=0;points=[];labelBackgroundColor=none;" connectable="0" vertex="1" parent="3vU_zGlU28dJKbvTVU9k-19">
          <mxGeometry x="-0.3204" relative="1" as="geometry">
            <mxPoint y="3" as="offset" />
          </mxGeometry>
        </mxCell>
        <mxCell id="3vU_zGlU28dJKbvTVU9k-23" value="С3.3 Изменить состояние&lt;div&gt;C =Приготовление(3)&lt;/div&gt;" style="ellipse;whiteSpace=wrap;html=1;labelBackgroundColor=none;" vertex="1" parent="1">
          <mxGeometry x="-370" y="2140" width="140" height="80" as="geometry" />
        </mxCell>
        <mxCell id="1Nl67nKdX6uNpVeU-fWO-1" style="edgeStyle=orthogonalEdgeStyle;rounded=0;orthogonalLoop=1;jettySize=auto;html=1;dashed=1;labelBackgroundColor=none;fontColor=default;" edge="1" parent="1" source="3vU_zGlU28dJKbvTVU9k-26" target="3vU_zGlU28dJKbvTVU9k-29">
          <mxGeometry relative="1" as="geometry" />
        </mxCell>
        <mxCell id="3vU_zGlU28dJKbvTVU9k-26" value="С3.4 Записать состояние" style="ellipse;whiteSpace=wrap;html=1;labelBackgroundColor=none;" vertex="1" parent="1">
          <mxGeometry x="-360" y="2270" width="120" height="80" as="geometry" />
        </mxCell>
        <mxCell id="XRGP9-QLU_o6FH_UDGp9-1" style="edgeStyle=orthogonalEdgeStyle;rounded=0;orthogonalLoop=1;jettySize=auto;html=1;" edge="1" parent="1" source="3vU_zGlU28dJKbvTVU9k-29">
          <mxGeometry relative="1" as="geometry">
            <mxPoint x="84" y="2310" as="targetPoint" />
          </mxGeometry>
        </mxCell>
        <mxCell id="3vU_zGlU28dJKbvTVU9k-29" value="С3.5 Породить события П1, Э1, Т3, И1" style="ellipse;whiteSpace=wrap;html=1;labelBackgroundColor=none;" vertex="1" parent="1">
          <mxGeometry x="-130" y="2270" width="120" height="80" as="geometry" />
        </mxCell>
        <mxCell id="uLU99d3s7XBJEIJOx_Uw-7" value="" style="endArrow=none;html=1;rounded=0;" edge="1" parent="1">
          <mxGeometry width="50" height="50" relative="1" as="geometry">
            <mxPoint x="-40" y="740" as="sourcePoint" />
            <mxPoint x="-10" y="720" as="targetPoint" />
          </mxGeometry>
        </mxCell>
        <mxCell id="uLU99d3s7XBJEIJOx_Uw-8" value="" style="endArrow=none;html=1;rounded=0;" edge="1" parent="1">
          <mxGeometry width="50" height="50" relative="1" as="geometry">
            <mxPoint x="-230" y="790" as="sourcePoint" />
            <mxPoint x="-270" y="820" as="targetPoint" />
          </mxGeometry>
        </mxCell>
        <mxCell id="uLU99d3s7XBJEIJOx_Uw-12" value="" style="endArrow=none;html=1;rounded=0;" edge="1" parent="1">
          <mxGeometry width="50" height="50" relative="1" as="geometry">
            <mxPoint x="-50" y="1600" as="sourcePoint" />
            <mxPoint x="-20" y="1570" as="targetPoint" />
          </mxGeometry>
        </mxCell>
        <mxCell id="uLU99d3s7XBJEIJOx_Uw-13" value="" style="endArrow=none;html=1;rounded=0;" edge="1" parent="1">
          <mxGeometry width="50" height="50" relative="1" as="geometry">
            <mxPoint x="-240" y="1640" as="sourcePoint" />
            <mxPoint x="-260" y="1660" as="targetPoint" />
          </mxGeometry>
        </mxCell>
      </root>
    </mxGraphModel>
  </diagram>
</mxfile>
